<?xml version="1.0" encoding="UTF-8" standalone="no"?>
<svg
   id="Layer_1"
   data-name="Layer 1"
   viewBox="0 0 2494.95 3180.7"
   version="1.1"
   sodipodi:docname="profile.svg"
   inkscape:version="1.2.2 (b0a84865, 2022-12-01)"
   xmlns:inkscape="http://www.inkscape.org/namespaces/inkscape"
   xmlns:sodipodi="http://sodipodi.sourceforge.net/DTD/sodipodi-0.dtd"
   xmlns="http://www.w3.org/2000/svg"
   xmlns:svg="http://www.w3.org/2000/svg">
  <sodipodi:namedview
     id="namedview2439"
     pagecolor="#ffffff"
     bordercolor="#000000"
     borderopacity="0.25"
     inkscape:showpageshadow="2"
     inkscape:pageopacity="0.0"
     inkscape:pagecheckerboard="0"
     inkscape:deskcolor="#d1d1d1"
     showgrid="false"
     inkscape:zoom="0.30559311"
     inkscape:cx="1230.3942"
     inkscape:cy="1590.35"
     inkscape:window-width="1390"
     inkscape:window-height="1122"
     inkscape:window-x="0"
     inkscape:window-y="25"
     inkscape:window-maximized="0"
     inkscape:current-layer="Layer_1" />
  <defs
     id="defs2434">
    <style
       id="style2432">
      .cls-1 {
        fill: #231f20;
      }
    </style>
  </defs>
  <path
     class="cls-1"
     d="m1868.69,1581.81c-169.12,138.87-385.42,222.2-621.12,222.2s-452.19-83.32-621.12-222.2C252.06,1797.16,0,2201.22,0,2664.07c0,688.84,2494.95,688.84,2494.95,0,0-462.85-252.06-866.91-626.26-1082.25Zm-1085.49-75.9c132.22,90.36,292.2,143.06,464.37,143.06s331.96-52.7,464.17-143.06c217.44-148.38,360.12-398.35,360.12-681.43C2071.86,369.06,1702.8,0,1247.57,0S423.08,369.06,423.08,824.48c0,283.07,142.68,532.85,360.12,681.43Z"
     id="path2436" />
  <path
     style="fill:#1f2229;stroke:#000000;stroke-width:0"
     d="M 1187.854,1645.5694 C 1065.9776,1634.0855 955.98179,1601.8748 858.26918,1549.055 656.04684,1439.7412 506.61845,1248.1833 449.90383,1025.5561 431.76382,954.34932 427.38692,915.89067 427.22259,826.26208 427.05531,735.02036 430.47096,703.34406 448.32221,630.58663 467.93748,550.63954 508.2814,454.09106 548.41842,391.04284 596.33081,315.78088 676.32622,226.52834 739.54546,177.79844 861.67766,83.657965 990.8326,29.657387 1146.9499,7.4598111 c 44.3598,-6.3073086 167.8063,-5.2626958 214.3373,1.8137379 178.8025,27.192243 341.903,108.703461 466.1759,232.976331 270.5214,270.52139 320.3513,686.14882 121.2512,1011.34682 -128.2643,209.4992 -339.4109,348.1389 -587.4271,385.7071 -33.4368,5.0648 -143.8456,9.0535 -173.4332,6.2656 z"
     id="path3647" />
  <path
     style="fill:#1f2229;stroke:#000000;stroke-width:0"
     d="M 1091.3204,3175.5118 C 677.71354,3155.2544 333.09232,3063.1077 150.71798,2924.0087 75.56094,2866.6855 23.244821,2792.46 7.905702,2721.3884 -0.90481031,2680.5661 2.3862387,2568.6276 14.894015,2483.6947 66.528165,2133.078 266.61868,1818.6553 561.3708,1624.9596 c 23.48901,-15.4357 48.01044,-30.8994 54.49206,-34.3637 l 11.78476,-6.2987 16.70299,13.9846 c 52.70198,44.1246 163.48932,107.5362 242.44948,138.7714 189.16471,74.8301 402.41401,88.3313 602.72781,38.1598 125.2463,-31.3697 249.1103,-91.2121 353.8925,-170.976 l 25.9034,-19.7186 10.222,5.8415 c 49.9661,28.5534 129.6591,86.1923 183.5291,132.7396 41.7405,36.0666 117.0455,113.4637 149.5107,153.6643 179.7698,222.6031 278.4869,494.1603 278.9215,767.2748 0.099,62.3827 -0.3201,66.8253 -8.9554,94.8975 -54.5667,177.3878 -281.5258,311.4634 -653.322,385.9486 -219.0604,43.8863 -492.4996,62.6467 -737.9093,50.6271 z"
     id="path3649" />
  <path
     style="fill:#1f2229;stroke:#000000;stroke-width:0"
     d="M 1106.2268,3175.6828 C 591.39258,3150.9463 200.6939,3022.9478 61.688154,2833.4769 c -19.306522,-26.3156 -39.696453,-66.0992 -48.454145,-94.5408 -18.95764,-61.5672 -9.2960201,-222.0805 21.31315,-354.0862 71.483161,-308.2795 254.717311,-574.9886 516.864061,-752.329 21.58389,-14.6014 47.62093,-31.2575 57.8601,-37.0136 l 18.61662,-10.4657 19.01512,15.5135 c 45.77426,37.3451 132.47923,88.9291 202.48578,120.4665 170.33546,76.7347 374.84636,102.1882 564.25556,70.2273 120.0068,-20.2499 239.3386,-64.7383 343.1608,-127.9347 28.0544,-17.0767 80.036,-52.7229 97.684,-66.9866 13.7577,-11.1194 13.8441,-11.1393 24.5424,-5.6659 20.7998,10.6415 106.7437,70.5207 143.602,100.0507 117.7798,94.3628 216.6371,207.3874 294.3145,336.493 28.6695,47.6509 77.8571,150.0055 97.4982,202.8841 48.9849,131.8799 71.4132,249.4303 74.7778,391.924 2.239,94.8228 0.7141,104.9485 -23.5221,156.1905 -33.5555,70.9454 -95.0394,133.3419 -184.8914,187.6354 -183.1063,110.643 -486.5631,185.3505 -839.3514,206.6385 -79.9763,4.826 -264.7318,6.5923 -335.2324,3.2049 z"
     id="path3651" />
</svg>
