<?xml version="1.0" encoding="utf-8"?>
<!-- Svg Vector Icons : http://www.onlinewebfonts.com/icon -->
<!DOCTYPE svg PUBLIC "-//W3C//DTD SVG 1.1//EN" "http://www.w3.org/Graphics/SVG/1.1/DTD/svg11.dtd">
<svg version="1.1" xmlns="http://www.w3.org/2000/svg" xmlns:xlink="http://www.w3.org/1999/xlink" x="0px" y="0px" viewBox="0 0 1000 1000" enable-background="new 0 0 1000 1000" xml:space="preserve">
<metadata> Svg Vector Icons : http://www.onlinewebfonts.com/icon </metadata>
<g><path d="M150,112.7H850c33.1,0,63,11.9,86.9,31.1L623,471.1c-1.7,2-43.4,48.1-122.2,48.1V519c-79,0-120.5-46.1-123-48.9l-314-327.2C87.8,124.2,117.4,112.7,150,112.7z M10,747.3V252.6c0-28.3,8.5-54.5,22.9-76.5l297.7,310.4L33.8,825.3C18.6,803,10,776.2,10,747.3z M850,887.3H150c-32.1,0-61.2-11.1-84.6-29.2l298-340.2c23.9,18.9,69.8,46.4,137.5,46.4v0.2c67.8,0,113.9-27.7,137.3-46.3l297.4,339.3C911.9,875.9,882.5,887.3,850,887.3z M990,747.3c0,28.5-8.5,55-23.3,77.1L670.9,486.7l296.9-309.5c14,21.8,22.3,47.6,22.3,75.4V747.3z"/></g>
</svg>