<?xml version="1.0" encoding="utf-8"?>
<!-- Svg Vector Icons : http://www.onlinewebfonts.com/icon -->
<!DOCTYPE svg PUBLIC "-//W3C//DTD SVG 1.1//EN" "http://www.w3.org/Graphics/SVG/1.1/DTD/svg11.dtd">
<svg version="1.1" xmlns="http://www.w3.org/2000/svg" xmlns:xlink="http://www.w3.org/1999/xlink" x="0px" y="0px" viewBox="0 0 1000 1000" enable-background="new 0 0 1000 1000" xml:space="preserve">
<metadata> Svg Vector Icons : http://www.onlinewebfonts.com/icon </metadata>
<g><g transform="translate(0.000000,511.000000) scale(0.100000,-0.100000)"><path d="M3640.1,4006.7c-30.8-3.9-140.4-17.3-240.5-28.9c-448.3-50-992.8-211.6-1418-421.4c-892.7-438.7-1514.2-1102.4-1772-1897C109.6,1351.6,100,1284.2,100,862.9c0-369.4,3.9-406,52-581C450.2-789.8,1275.6-1586.4,2530-2011.6c171.2-57.7,321.3-111.6,330.9-117.4c28.9-17.3-48.1-198.2-144.3-340.5c-134.7-196.3-209.7-257.8-596.4-496.4c-155.8-96.2-202-180.9-202-375.2c0-177,46.2-277.1,167.4-361.7c100-67.3,207.8-88.5,461.8-90.4c588.7,0,1146.7,180.9,1614.2,525.2c180.9,132.8,473.3,432.9,611.8,627.2c130.8,182.8,311.7,523.3,329,623.4c17.3,84.7-28.9,175.1-105.8,215.5c-130.8,67.3-209.7,15.4-344.4-232.8c-161.6-292.5-284.8-461.8-473.3-652.2c-463.7-465.6-985.1-683-1648.9-683c-102,0-190.5,7.7-198.2,17.3c-5.8,9.6,61.6,61.6,148.1,115.4c207.8,125.1,398.3,282.8,506,421.3c192.4,242.4,355.9,665.7,355.9,917.7v102l-250.1,59.7c-671.5,163.5-1229.4,431-1677.7,802.3C684.9-324.2,357.8,582,571.4,1403.5c259.7,1004.3,1287.1,1848.9,2558.9,2102.9c623.4,125.1,1316,121.2,1922.1-9.6c736.9-159.7,1527.6-596.4,1939.4-1069.8c298.2-344.4,448.3-623.4,590.7-1102.4c59.6-203.9,111.6-259.7,236.6-259.7c182.8,0,225.1,167.4,128.9,498.3C7592,2794.6,6385.7,3720,4813.8,3970.1C4631,3999,3778.7,4025.9,3640.1,4006.7z"/><path d="M1637.3,2228.9c-127-51.9-161.6-225.1-67.3-330.9l55.8-63.5l2099.1-5.8c2339.6-5.8,2187.6-13.5,2247.2,127c40.4,96.2,7.7,204-77,254c-59.7,36.6-113.5,38.5-2139.5,36.6C2612.7,2246.2,1658.4,2238.5,1637.3,2228.9z"/><path d="M1579.6,1124.6c-75-75-84.7-148.1-34.6-244.4c59.6-119.3-34.6-113.5,2212.6-113.5c2281.9,0,2147.2-7.7,2210.7,128.9c42.3,86.6,15.4,194.3-61.6,254c-50,40.4-59.6,40.4-2154.9,40.4H1645L1579.6,1124.6z"/><path d="M7395.8,612.8c-725.4-61.6-1427.6-473.3-1741.2-1021.6c-232.8-407.9-223.2-965.9,23.1-1383.4c255.9-438.7,754.2-785,1344.9-935c94.3-23.1,173.2-46.2,175.1-50c3.8-1.9,32.7-57.7,67.3-123.1c227-431,686.8-738.8,1187.1-794.6c234.7-25,340.5-1.9,373.3,84.7c28.9,77,0,119.3-155.8,221.3c-217.4,140.4-382.9,363.6-413.7,554.1l-11.6,78.9l82.7,21.2c781.2,198.2,1329.5,656.1,1516.1,1260.2c175.1,567.6-61.6,1198.7-604.1,1610.4C8746.4,510.8,8121.1,672.4,7395.8,612.8z M8180.8,164.5c987-217.4,1541.1-998.6,1194.8-1683.5c-230.9-454.1-735-750.4-1500.7-879.3l-75-11.5l11.5-217.4c7.7-119.3,17.3-246.3,25-282.8l9.6-65.4l-78.9,84.7c-44.2,48.1-125.1,177-178.9,288.6c-98.1,198.2-103.9,203.9-177,221.3c-579.1,125.1-848.5,244.3-1117.8,498.3c-238.6,225.1-361.7,450.2-382.9,708c-26.9,298.2,71.2,554.1,307.8,804.2C6510.7-62.5,6835.9,101,7315,181.8C7511.2,214.5,7996.1,204.9,8180.8,164.5z"/><path d="M1598.8,97.1c-53.9-42.3-84.7-103.9-84.7-167.4s30.8-125.1,84.7-167.4c36.6-30.8,152-34.6,1627.7-32.7c1217.9,0,1595,3.8,1616.2,23.1c115.4,88.5,127,217.4,30.8,313.6l-65.4,65.4H3224.6C1750.8,131.8,1635.3,127.9,1598.8,97.1z"/></g></g>
</svg>