<?xml version="1.0" encoding="UTF-8"?>
<svg id="Layer_2" data-name="Layer 2" xmlns="http://www.w3.org/2000/svg" viewBox="0 0 130.78 123.53">
  <defs>
    <style>
      .cls-1 {
        fill: #f9ba2d;
      }

      .cls-2 {
        fill: #7e9dac;
      }

      .cls-3 {
        fill: #1f2229;
      }

      .cls-4 {
        fill: #467480;
      }
    </style>
  </defs>
  <g id="Layer_1-2" data-name="Layer 1">
    <path id="path6" class="cls-4" d="m93.26,123.53H22.66c-5.03,0-9.12-4.08-9.12-9.12V45.68c0-.83.65-1.48,1.48-1.48s1.48.65,1.48,1.48v68.73c0,3.4,2.75,6.15,6.15,6.15h70.6c3.4,0,6.15-2.75,6.15-6.15V20.89c0-3.4-2.75-6.15-6.15-6.15h-48.49c-.83,0-1.48-.65-1.48-1.48s.65-1.48,1.48-1.48h48.5c5.03,0,9.12,4.08,9.12,9.12v93.53c.03,5.03-4.09,9.12-9.12,9.12h0Z"/>
    <path id="path8" class="cls-4" d="m94.18,26.09h-38.55c-.83,0-1.48-.65-1.48-1.48s.65-1.48,1.48-1.48h38.58c.83,0,1.48.65,1.48,1.48s-.68,1.48-1.51,1.48Z"/>
    <path id="path10" class="cls-4" d="m94.18,36.87h-39.8c-.83,0-1.48-.65-1.48-1.48s.65-1.48,1.48-1.48h39.83c.83,0,1.48.65,1.48,1.48s-.68,1.48-1.51,1.48h0Z"/>
    <path id="path12" class="cls-4" d="m94.18,47.61h-48.08c-.83,0-1.48-.65-1.48-1.48s.65-1.48,1.48-1.48h48.11c.83,0,1.48.65,1.48,1.48s-.68,1.48-1.51,1.48Z"/>
    <path id="path14" class="cls-4" d="m94.18,58.38H21.75c-.83,0-1.48-.65-1.48-1.48s.65-1.48,1.48-1.48h72.46c.83,0,1.48.65,1.48,1.48s-.68,1.48-1.51,1.48h0Z"/>
    <path id="path16" class="cls-4" d="m94.18,69.12H21.75c-.83,0-1.48-.65-1.48-1.48s.65-1.48,1.48-1.48h72.46c.83,0,1.48.65,1.48,1.48s-.68,1.48-1.51,1.48h0Z"/>
    <path id="path18" class="cls-4" d="m94.18,79.89H21.75c-.83,0-1.48-.65-1.48-1.48s.65-1.48,1.48-1.48h72.46c.83,0,1.48.65,1.48,1.48s-.68,1.48-1.51,1.48h0Z"/>
    <path id="path20" class="cls-4" d="m94.18,90.66H21.75c-.83,0-1.48-.65-1.48-1.48s.65-1.48,1.48-1.48h72.46c.83,0,1.48.65,1.48,1.48s-.68,1.48-1.51,1.48h0Z"/>
    <path id="path22" class="cls-4" d="m94.18,101.4H21.75c-.83,0-1.48-.65-1.48-1.48s.65-1.48,1.48-1.48h72.46c.83,0,1.48.65,1.48,1.48s-.68,1.48-1.51,1.48h0Z"/>
    <path id="path24" class="cls-4" d="m94.18,112.17H21.75c-.83,0-1.48-.65-1.48-1.48s.65-1.48,1.48-1.48h72.46c.83,0,1.48.65,1.48,1.48s-.68,1.48-1.51,1.48h0Z"/>
    <path id="path26" class="cls-4" d="m120.54,104.36c-.83,0-1.48-.65-1.48-1.48V32.43c0-.83.65-1.48,1.48-1.48s1.48.65,1.48,1.48v70.48c0,.8-.65,1.45-1.48,1.45h0Zm-12.96,0c-.83,0-1.48-.65-1.48-1.48V32.43c0-.83.65-1.48,1.48-1.48s1.48.65,1.48,1.48v70.48c0,.8-.65,1.45-1.48,1.45h0Z"/>
    <path id="path28" class="cls-4" d="m120.54,110.57h-12.96c-.83,0-1.48-.65-1.48-1.48v-6.21c0-.83.65-1.48,1.48-1.48h12.96c.83,0,1.48.65,1.48,1.48v6.21c0,.8-.65,1.48-1.48,1.48Zm-11.48-2.96h10v-3.26h-10v3.26Z"/>
    <path id="path30" class="cls-4" d="m120.54,33.91h-12.96c-.83,0-1.48-.65-1.48-1.48v-12.4c0-4.38,3.58-7.96,7.96-7.96s7.96,3.58,7.96,7.96v12.4c0,.8-.65,1.48-1.48,1.48h0Zm-11.48-2.96h10v-10.92c0-2.75-2.25-5-5-5s-5,2.25-5,5v10.92h0Z"/>
    <path id="path32" class="cls-4" d="m129.3,60.09c-.83,0-1.48-.65-1.48-1.48v-24.74h-7.25c-.83,0-1.48-.65-1.48-1.48s.65-1.48,1.48-1.48h8.73c.83,0,1.48.65,1.48,1.48v26.22c0,.83-.68,1.48-1.48,1.48Z"/>
    <path id="path34" class="cls-4" d="m114.06,123.24h0c-.56,0-1.06-.3-1.33-.8l-6.48-12.66c-.38-.74-.09-1.63.65-1.98s1.63-.09,1.98.65l5.18,10.12,5.18-10.12c.38-.74,1.27-1.01,1.98-.65.74.38,1.01,1.27.65,1.98l-6.48,12.69c-.27.47-.77.77-1.33.77h0Z"/>
    <path id="path36" class="cls-2" d="m24.62,49.23C11.04,49.23,0,38.2,0,24.62S11.04,0,24.62,0s24.62,11.04,24.62,24.62-11.04,24.62-24.62,24.62Zm0-46.3C12.66,2.93,2.96,12.66,2.96,24.59s9.74,21.66,21.66,21.66,21.66-9.74,21.66-21.66S36.57,2.93,24.62,2.93h0Z"/>
    <path id="path38" class="cls-2" d="m24.62,39.2c-.15,0-.3-.03-.44-.06-7.99-2.57-13.34-10.24-13.34-19.08,0-3.23.74-6.42,2.13-9.23.35-.71,1.21-1.01,1.92-.68,6.81,3.05,12.63,3.05,19.44,0,.71-.33,1.57-.03,1.92.68,1.39,2.84,2.13,6.01,2.13,9.23,0,8.85-5.36,16.51-13.34,19.08-.12.06-.27.06-.42.06h0ZM15.06,13.43c-.83,2.1-1.27,4.38-1.27,6.66,0,7.28,4.44,13.82,10.83,16.1,6.39-2.28,10.83-8.85,10.83-16.1,0-2.28-.44-4.56-1.27-6.66-6.63,2.66-12.49,2.66-19.12,0h0Z"/>
    <path id="path948" class="cls-3" d="m21.16,48.92c-6.08-.93-11.41-3.89-15.29-8.51C-2.34,30.66-1.74,16.31,7.26,7.32,11.69,2.88,17.38.38,23.64.1c6.24-.28,12.47,1.96,17.27,6.19,3.86,3.41,6.72,8.34,7.76,13.4,1.08,5.28.33,10.99-2.09,15.8-1.38,2.74-2.8,4.67-5.04,6.83-3.7,3.58-8.41,5.87-13.55,6.58-1.75.24-5.22.24-6.82,0h0Zm5.55-2.73c10.55-1.08,18.81-9.53,19.54-19.99.78-11.15-6.78-20.93-17.75-22.98-1.91-.36-5.54-.39-7.4-.07-7.28,1.27-13.42,6.03-16.35,12.69-1.3,2.95-1.75,5.2-1.75,8.75,0,2.89.21,4.34.95,6.62,3.18,9.74,12.71,16.01,22.76,14.98Z"/>
    <path id="path950" class="cls-1" d="m23.29,38.76c-6.1-2.35-10.51-7.69-12-14.55-.25-1.17-.29-1.69-.29-4.13,0-2.42.04-2.98.29-4.13.59-2.72,1.63-5.31,2.29-5.65.57-.29.86-.25,2.25.31,6.05,2.46,11.39,2.48,17.4.05,2.07-.83,2.43-.76,3.12.6,1.2,2.37,1.9,5.63,1.9,8.81,0,3.42-.7,6.43-2.17,9.36-2.19,4.36-5.83,7.67-10.26,9.34-.99.37-1.53.37-2.54-.02Zm3.31-3.39c2.89-1.51,5.68-4.45,7.16-7.56.56-1.19,1.12-2.85,1.41-4.23.33-1.53.33-5.46,0-6.97-.2-.94-.82-3.06-.92-3.17-.02-.02-.8.22-1.74.53s-2.44.73-3.35.93c-1.51.32-1.87.35-4.5.35-3.36,0-4.54-.18-7.68-1.22-1.04-.35-1.94-.58-1.99-.53s-.24.56-.42,1.13c-1.5,4.79-.93,10.11,1.52,14.35,1.76,3.04,4.43,5.5,7.36,6.8q1.27.56,3.13-.4h0Z"/>
    <path id="path952" class="cls-3" d="m20.78,123.26c-1.13-.24-2.99-1.14-3.81-1.84-1.43-1.22-2.34-2.56-2.95-4.37l-.35-1.02-.03-34.65-.03-34.65,1.4.59,1.4.59.03,33.81.03,33.81.27.79c.68,1.97,2.21,3.46,4.18,4.06.73.22,2.26.23,37.11.23s36.37,0,37.05-.24c1.94-.66,3.36-2.03,4.1-3.97l.29-.75.03-47.41c.02-32.25,0-47.69-.1-48.29-.27-1.85-1.61-3.76-3.18-4.54-1.57-.78,0-.73-25.6-.74h-23.39s-.72-1.4-.72-1.4l-.72-1.4h24.37c23.67,0,24.4,0,25.33.25,2.99.76,5.4,3.04,6.42,6.04l.35,1.02v96.97l-.36,1.02c-.9,2.54-2.44,4.27-4.85,5.41-1.99.95,1.12.88-39.17.87-31.36,0-36.31-.04-37.08-.2h0Z"/>
    <path id="path954" class="cls-3" d="m54.97,25.84c-.79-.44-.95-1.47-.33-2.17l.37-.42h39.82l.37.42c.54.61.52,1.3-.06,1.89l-.43.43h-19.74c-14.11,0-19.82-.05-20-.15h0Z"/>
    <path id="path956" class="cls-3" d="m53.81,36.67c-.46-.19-.81-.75-.81-1.3,0-.4.09-.59.43-.94l.43-.43h40.85l.43.43c.58.58.6,1.28.06,1.89l-.37.42-20.38.02c-11.21.01-20.5-.02-20.65-.08h0Z"/>
    <path id="path958" class="cls-1" d="m53.59,36.4c-.65-.51-.65-1.36.01-2.06l.33-.35h40.7l.34.35c.69.72.71,1.31.05,2.03l-.26.29h-40.84l-.33-.26Z"/>
    <path id="path960" class="cls-3" d="m64.88,25.86c-5.45-.04-9.98-.11-10.06-.16s-.24-.3-.36-.55c-.25-.52-.14-1.04.34-1.55l.27-.29h39.69l.26.29c.66.72.64,1.31-.05,2.03l-.34.35-9.92-.03c-5.46-.02-14.38-.06-19.83-.1h0Z"/>
    <path id="path962" class="cls-1" d="m64.87,25.86c-8-.05-9.96-.1-10.13-.23-.55-.46-.52-1.39.07-2.02l.27-.29h39.69l.26.29c.67.73.67,1.2.02,1.94l-.39.45-9.93-.03c-5.46-.02-14.4-.06-19.86-.1h0Z"/>
    <path id="path964" class="cls-1" d="m45.67,47.46c-.57-.17-.93-.67-.93-1.31s.27-1.06.84-1.3c.63-.27,48.52-.27,49.16,0,.57.24.84.66.84,1.3,0,.42-.08.61-.37.91-.21.21-.56.41-.78.45-.65.13-48.3.07-48.76-.06Z"/>
    <path id="path966" class="cls-1" d="m20.86,57.95c-.74-.62-.62-1.84.23-2.27.34-.18,4.14-.19,37.06-.16l36.68.03.37.42c.54.61.52,1.3-.06,1.89l-.43.43H21.24l-.39-.33Z"/>
    <path id="path968" class="cls-1" d="m21.14,68.89c-1.18-.51-.96-2.25.33-2.61.6-.17,72.31-.17,73.02,0,.69.16,1.08.63,1.08,1.32,0,.62-.24,1.02-.76,1.29-.32.17-4.72.19-36.82.18-30.77,0-36.51-.03-36.85-.18h0Z"/>
    <path id="path970" class="cls-1" d="m21.39,79.79c-.43-.08-1.05-.87-1.05-1.33,0-.53.35-1.08.84-1.32.36-.17,4.54-.19,36.77-.19,39.27,0,36.94-.04,37.42.65.29.42.27,1.27-.05,1.68-.14.18-.47.39-.73.46-.46.13-72.54.17-73.19.04h0Z"/>
    <path id="path972" class="cls-3" d="m39.81,87.66c9.98-.02,26.31-.02,36.28,0,9.98.02,1.81.03-18.14.03s-28.12-.01-18.14-.03Z"/>
    <path id="path976" class="cls-1" d="m20.86,90.23c-.74-.62-.62-1.84.23-2.27.34-.18,4.14-.19,37.06-.16l36.68.03.37.42c.54.61.52,1.3-.06,1.89l-.43.43H21.24l-.39-.33Z"/>
    <path id="path978" class="cls-1" d="m21.14,101.17c-1.18-.51-.96-2.25.33-2.61.6-.17,72.31-.17,73.02,0,.69.16,1.08.63,1.08,1.32,0,.62-.24,1.02-.76,1.29-.32.17-4.72.19-36.82.18-30.77,0-36.51-.03-36.85-.18h0Z"/>
    <path id="path980" class="cls-1" d="m21.39,112.07c-.43-.08-1.05-.87-1.05-1.33,0-.53.35-1.08.84-1.32.36-.17,4.54-.19,36.77-.19,39.27,0,36.94-.04,37.42.65.29.42.27,1.27-.05,1.68-.14.18-.47.39-.73.46-.46.13-72.54.17-73.19.04h0Z"/>
    <path id="path982" class="cls-3" d="m113.56,123.04c-.21-.09-.47-.28-.58-.41-.11-.13-1.7-3.17-3.53-6.76l-3.32-6.52v-44.76c0-28.9.05-45.07.13-45.63.43-2.95,2.66-5.57,5.52-6.47,1.25-.39,3.32-.39,4.58,0,2.86.89,5.1,3.52,5.52,6.47.07.48.13,3.37.13,6.43v5.56h3.8c3.74,0,3.8,0,4.23.29.25.17.5.48.58.73.22.63.22,26.43,0,27.06-.09.26-.34.57-.6.74-.57.39-1.17.31-1.71-.23l-.39-.39-.03-12.64-.03-12.64h-5.84v75.47l-2.26,4.43c-4.1,8.04-4.53,8.85-4.86,9.08-.46.32-.9.38-1.33.19Zm2.6-8.39c1.12-2.2,2.04-4.03,2.04-4.07s-1.86-.07-4.13-.07-4.13.03-4.13.07c0,.1,4.08,8.06,4.13,8.06.02,0,.96-1.8,2.09-3.99h0Zm2.93-8.65v-1.72h-10.04v3.43h10.04v-1.72Zm0-38.32v-33.81h-10.04v67.61h10.04v-33.81Zm-.03-42.86l-.04-6.13-.34-.73c-.97-2.06-3.33-3.32-5.46-2.9-1.64.32-3.08,1.43-3.77,2.9l-.34.73-.04,6.13-.04,6.13h10.06l-.04-6.13Z"/>
  </g>
</svg>