<?xml version="1.0" encoding="utf-8"?>
<!-- Svg Vector Icons : http://www.onlinewebfonts.com/icon -->
<!DOCTYPE svg PUBLIC "-//W3C//DTD SVG 1.1//EN" "http://www.w3.org/Graphics/SVG/1.1/DTD/svg11.dtd">
<svg version="1.1" xmlns="http://www.w3.org/2000/svg" xmlns:xlink="http://www.w3.org/1999/xlink" x="0px" y="0px" viewBox="0 0 1000 1000" enable-background="new 0 0 1000 1000" xml:space="preserve">
<metadata> Svg Vector Icons : http://www.onlinewebfonts.com/icon </metadata>
<g><g><g><path d="M945.3,372.2c-28.1-28.1-54.2,0-54.2,0L437.9,827.5c-70.2,70.2-148.4,100.3-214.6,82.2c-48.1-14-86.2-52.1-100.3-104.3c-18.1-70.2,8-148.4,76.2-216.6l477.4-475.4c44.1-44.1,104.3-28.1,140.4,8c40.1,40.1,46.1,92.3,4,134.4L339.6,737.3c-58.2,58.2-100.3,16-42.1-42.1l310.9-310.9c14-14,14-40.1,0-54.2c-14-14-40.1-14-54.2,0L243.3,641c-130.4,130.4,22.1,278.8,150.4,150.4L875.1,310c72.2-72.2,64.2-174.5-4-242.7c-62.2-62.2-170.5-86.2-248.7-8L145,534.7C58.8,620.9,24.7,727.2,50.7,825.5C70.8,903.8,129,963.9,205.2,984c18.1,6,36.1,6,56.2,6c76.2,0,158.5-36.1,230.7-108.3l453.3-455.3C945.3,426.4,973.4,400.3,945.3,372.2z"/></g></g><g></g><g></g><g></g><g></g><g></g><g></g><g></g><g></g><g></g><g></g><g></g><g></g><g></g><g></g><g></g></g>
</svg>