<?xml version="1.0" encoding="UTF-8"?>
<svg id="Layer_2" data-name="Layer 2" xmlns="http://www.w3.org/2000/svg" viewBox="0 0 2405.06 2943">
  <defs>
    <style>
      .cls-1 {
        fill: #1f2229;
      }
    </style>
  </defs>
  <g id="Layer_1-2" data-name="Layer 1">
    <g>
      <path class="cls-1" d="m124.12,1081.84c-248.82,431.74-90.64,1086.96,184.49,1484.22,137.34,198.65,276.39,376.94,466.83,376.94,3.57,0,7.18-.07,10.86-.24,89.49-3.54,154.16-31.11,216.65-57.73,70.19-29.92,142.82-60.83,256.68-60.83s177.44,29.92,244.25,58.82c65.93,28.52,133.77,58.03,234.04,56.13,214.51-3.98,346.23-196.36,462.44-366.11,121.28-177.2,182.1-349.23,202.63-414.99l.82-2.62c3.91-11.67-1.63-24.41-12.83-29.58,0,0-1.43-.61-1.74-.75-37.78-15.45-369.17-162.46-372.65-563.12-3.23-325.54,248.58-497.91,299.09-529.15l2.35-1.5c5.48-3.51,9.29-9.09,10.59-15.45,1.29-6.4-.03-13.04-3.74-18.42-173.8-254.36-440.21-292.69-547.5-297.29-15.52-1.57-31.59-2.35-47.72-2.35-125.97,0-246.67,47.55-343.65,85.81-66.92,26.41-124.75,49.18-164.57,49.18-44.83,0-102.96-23.08-170.26-49.76-90.06-35.74-192.11-76.25-300.11-76.25-2.59,0-5.11.03-7.59.1-251.2,3.68-488.55,147.38-619.35,374.93Z"/>
      <path class="cls-1" d="m1777.61.02c-152.08,6.2-334.56,99.83-443.58,227.58-92.72,107.32-183.23,286.36-159.4,466.79,1.5,11.3,10.72,19.98,22.06,20.9,10.28.78,20.73,1.19,31.18,1.19,148.71,0,309.17-82.3,418.73-214.78,115.32-139.86,173.63-319.41,156-480.21-1.4-12.63-12.49-21.99-24.98-21.48Z"/>
    </g>
  </g>
</svg>