<?xml version="1.0" encoding="UTF-8"?>
<svg id="Layer_2" data-name="Layer 2" xmlns="http://www.w3.org/2000/svg" viewBox="0 0 82.85 74.5">
  <defs>
    <style>
      .cls-1 {
        fill: #f9ba2d;
      }
    </style>
  </defs>
  <g id="Layer_1-2" data-name="Layer 1">
    <g>
      <path d="m8.62.72c-3.98,1.42-6.6,3.94-7.88,7.66-1.02,2.83-.97,55.06.04,58.03.93,2.83,3.32,5.4,6.29,6.86l2.52,1.24h17.48c19.52,0,18.99.09,22.57-3.19,1.06-.93,2.39-2.7,2.92-3.9.97-1.99,1.06-2.83,1.06-8.76,0-6.37-.04-6.6-1.11-7.61-1.64-1.68-4.2-1.55-5.71.27-1.11,1.28-1.15,1.59-1.15,6.9s0,5.53-1.28,6.82l-1.28,1.28h-16.02c-10.62,0-16.29-.18-16.91-.49-2.08-1.11-2.12-1.81-2.12-28.5s.04-27.4,2.12-28.5c.62-.31,6.29-.49,16.91-.49h16.02l1.28,1.28c1.28,1.28,1.28,1.33,1.28,6.82s.04,5.62,1.15,6.9c1.5,1.81,4.07,1.95,5.71.27,1.06-1.02,1.11-1.24,1.11-7.61,0-5.93-.09-6.77-1.06-8.76-.53-1.24-1.86-2.97-2.92-3.9C46.11.1,46.51.14,27.74.05,12.47-.08,10.7,0,8.62.72Z"/>
      <path class="cls-1" d="m63.81,21.92c-1.11,1.02-1.42,1.59-1.42,2.97,0,1.5.35,2.04,3.23,4.96l3.23,3.28H19.55l-1.42,1.28c-1.99,1.77-1.99,4.07,0,5.84l1.42,1.28h49.31l-3.23,3.28c-2.88,2.92-3.23,3.45-3.23,4.96,0,1.37.31,1.95,1.42,2.97,1.24,1.11,1.73,1.24,3.05,1.02s2.74-1.42,8.81-7.48c6.82-6.86,7.17-7.3,7.17-8.94s-.35-2.08-7.17-8.94c-6.06-6.06-7.48-7.26-8.81-7.48s-1.81-.09-3.05,1.02Z"/>
    </g>
  </g>
</svg>