<?xml version="1.0" encoding="UTF-8"?>
<svg id="Layer_2" data-name="Layer 2" xmlns="http://www.w3.org/2000/svg" viewBox="0 0 155.82 133.07">
  <defs>
    <style>
      .cls-1 {
        fill: #f9ba2d;
      }

      .cls-2 {
        fill: #1f2229;
      }
    </style>
  </defs>
  <g id="Layer_2-2" data-name="Layer 2">
    <g id="_Layer_" data-name=" Layer ">
      <path id="path2" d="m69.37,69.92c-10.77,0-19.54-8.77-19.54-19.54s8.77-19.54,19.54-19.54,19.54,8.76,19.54,19.54-8.77,19.54-19.54,19.54Zm0-34.96c-8.5,0-15.42,6.92-15.42,15.42s6.92,15.42,15.42,15.42,15.42-6.92,15.42-15.42-6.92-15.42-15.42-15.42h0Z"/>
      <path id="path4" d="m69.37,59.94c-5.27,0-9.56-4.29-9.56-9.56s4.29-9.55,9.56-9.55,9.56,4.29,9.56,9.55-4.29,9.56-9.56,9.56h0Zm0-14.99c-3,0-5.43,2.44-5.43,5.43s2.44,5.44,5.43,5.44,5.43-2.44,5.43-5.44-2.44-5.43-5.43-5.43Z"/>
      <path id="path6" d="m69.37,70.03c-14.45,0-27.94-6.7-37.01-18.38-.58-.74-.58-1.78,0-2.53,9.08-11.68,22.57-18.38,37.01-18.38s27.93,6.7,37.01,18.38c.58.74.58,1.78,0,2.53-9.08,11.68-22.57,18.38-37.01,18.38Zm-32.74-19.65c8.26,9.89,20.1,15.53,32.74,15.53s24.48-5.64,32.74-15.53c-8.26-9.89-20.11-15.53-32.74-15.53s-24.47,5.64-32.74,15.53Z"/>
      <path id="path8" d="m100.92,82.13h-63.09c-1.14,0-2.06-.92-2.06-2.06s.92-2.06,2.06-2.06h63.09c1.14,0,2.06.92,2.06,2.06s-.92,2.06-2.06,2.06Z"/>
      <path id="path10" d="m100.92,94.16h-63.09c-1.14,0-2.06-.92-2.06-2.06s.92-2.06,2.06-2.06h63.09c1.14,0,2.06.92,2.06,2.06s-.92,2.06-2.06,2.06Z"/>
      <path id="path12" d="m100.92,106.19h-63.09c-1.14,0-2.06-.92-2.06-2.06s.92-2.06,2.06-2.06h63.09c1.14,0,2.06.92,2.06,2.06s-.92,2.06-2.06,2.06Z"/>
      <path id="path14" d="m95.42,118.23h-29.64c-1.14,0-2.06-.92-2.06-2.06s.92-2.06,2.06-2.06h29.64c1.14,0,2.06.92,2.06,2.06s-.92,2.06-2.06,2.06Z"/>
      <path id="path16" d="m114.75,133.07H23.99c-1.14,0-2.06-.92-2.06-2.06V20.9c0-1.14.92-2.06,2.06-2.06h90.76c1.14,0,2.06.92,2.06,2.06v110.1c0,1.14-.92,2.06-2.06,2.06h0Zm-88.7-4.12h86.64V22.96H26.05v105.98h0Z"/>
      <path id="path18" d="m23.99,115.87c-.21-.01-22.14-2.22-22.14-2.22-1.13-.11-1.96-1.12-1.84-2.25L11.02,1.85C11.13.74,12.09-.08,13.24,0l90.31,7.24c.55.04,1.05.3,1.41.72.35.42.53.96.48,1.51l-.98,11.6c-.09,1.07-.98,1.89-2.05,1.89H26.05v90.85c0,.58-.25,1.14-.68,1.53-.38.34-.87.53-1.38.53h0Zm-19.67-6.11l17.61,1.77V20.9c0-1.14.92-2.06,2.06-2.06h76.51l.65-7.65L14.92,4.27S4.32,109.76,4.32,109.76Z"/>
      <path id="path20" d="m145.16,112.36h-17.88c-1.14,0-2.06-.92-2.06-2.06V22.6c0-3.37,2.74-6.11,6.11-6.11h9.79c3.37,0,6.11,2.74,6.11,6.11v11.03c0,1.14-.92,2.06-2.06,2.06s-2.06-.92-2.06-2.06v-11.03c0-1.1-.89-1.98-1.98-1.98h-9.79c-1.09,0-1.98.89-1.98,1.98v85.63h13.75V43.48c0-1.14.92-2.06,2.06-2.06s2.06.92,2.06,2.06v66.82c0,1.14-.92,2.06-2.06,2.06h0Z"/>
      <path id="path22" d="m153.75,59c-1.14,0-2.06-.92-2.06-2.06v-21.25h-12.38c-1.14,0-2.06-.92-2.06-2.06s.92-2.06,2.06-2.06h14.44c1.14,0,2.06.92,2.06,2.06v23.31c0,1.14-.92,2.06-2.06,2.06h0Z"/>
      <path id="path24" d="m136.22,126.22c-.7,0-1.35-.35-1.73-.95l-8.94-13.86c-.62-.95-.34-2.23.62-2.85.95-.62,2.23-.35,2.85.62l7.21,11.17,7.2-11.17c.62-.96,1.89-1.24,2.85-.62.96.62,1.23,1.89.62,2.85l-8.94,13.86c-.38.59-1.03.95-1.73.95h0Z"/>
      <path id="path26" d="m136.22,130.61c-1.14,0-2.06-.92-2.06-2.06v-4.38c0-1.14.92-2.06,2.06-2.06s2.06.92,2.06,2.06v4.38c0,1.14-.92,2.06-2.06,2.06Z"/>
    </g>
    <path id="path884" class="cls-2" d="m23.14,132.76c-.26-.13-.62-.45-.79-.7l-.31-.47v-15.95l-.65-.08c-.36-.05-4.94-.51-10.18-1.04-5.24-.52-9.68-1.01-9.87-1.08-.18-.07-.53-.35-.77-.62-.38-.43-.44-.6-.44-1.24C.14,110.77,11.05,2,11.18,1.46c.12-.48.94-1.23,1.45-1.33.25-.05,3.53.17,7.29.47,6.52.53,16.53,1.33,63.25,5.07,11.29.91,20.66,1.68,20.81,1.73.44.13,1.16.89,1.29,1.37.08.3,0,1.92-.27,5-.22,2.51-.39,4.7-.4,4.87v.31s5.34,0,5.34,0c5.89,0,5.84,0,6.45.85l.32.45.03,55.5c.03,55.3.03,55.5-.24,56.07-.18.36-.47.68-.81.87l-.53.3h-45.77c-43.31,0-45.8-.01-46.25-.24h0Zm89.67-56.78V22.93H26.01v106.1h86.79v-53.05Zm-90.76-10.03c0-44.53,0-45.7.26-46.08.14-.22.43-.51.65-.65.38-.25,1.41-.26,38.97-.26,30.74,0,38.59-.04,38.63-.17.12-.36.66-7.5.57-7.59-.05-.05-10.33-.91-22.85-1.92-12.52-1-31.91-2.56-43.09-3.46-11.18-.9-20.33-1.62-20.34-1.61-.04.1-10.59,105.56-10.57,105.58.02.02,15.63,1.64,17.59,1.82.14.01.17-9.2.17-45.67h0Z"/>
    <path id="path886" class="cls-2" d="m67.08,69.88c-12.73-.58-24.97-6.71-33.37-16.71-1.43-1.7-1.68-2.12-1.68-2.79s.25-1.09,1.68-2.79c8.42-10.02,20.51-16.07,33.39-16.7,11.4-.56,22.04,2.92,31.33,10.24,1.61,1.27,5.93,5.57,7.17,7.13,1.51,1.91,1.51,2.33,0,4.25-1.25,1.57-5.41,5.73-7.11,7.08-2.48,1.99-5.77,4.11-8.39,5.43-7.12,3.58-14.94,5.23-23.01,4.86h0Zm3.73-4.1c10.69-1.04,17.12-12.29,12.57-22-3.65-7.8-13.17-11.11-20.88-7.26-3.96,1.98-6.95,5.63-8.1,9.89-.34,1.26-.37,1.57-.37,3.97s.03,2.71.37,3.97c.73,2.7,2.31,5.33,4.37,7.28,2.64,2.5,5.69,3.84,9.55,4.21.91.09,1.17.08,2.49-.05h0Zm-16.05-2.52s-.23-.32-.5-.65c-1.95-2.32-3.53-5.8-4.07-9-.29-1.69-.29-4.77,0-6.45.54-3.2,2.12-6.69,4.08-9.01.28-.33.48-.63.45-.66-.03-.03-.52.13-1.09.36-5.84,2.32-11.49,6.29-15.92,11.19-.93,1.03-1.13,1.33-1.03,1.52.25.45,3.42,3.69,4.76,4.85,3.54,3.07,7.92,5.8,11.89,7.41,1.22.49,1.44.56,1.44.46Zm30.75-.5c4.44-1.84,8.75-4.6,12.58-8.05,1.34-1.21,4.04-4.1,4.04-4.33s-2.7-3.12-4.04-4.33c-2.93-2.64-6.15-4.89-9.31-6.51-1.82-.93-4.47-2.1-4.75-2.1-.07,0,.11.29.41.65,2.71,3.24,4.41,7.97,4.41,12.29s-1.7,9.04-4.41,12.29c-.3.36-.48.65-.41.65s.74-.25,1.48-.56h0Z"/>
    <path id="path888" class="cls-1" d="m67.63,59.7c-1.34-.28-2.37-.72-3.49-1.46-5.63-3.77-5.63-11.95,0-15.71,4.07-2.72,9.34-1.94,12.52,1.86.81.96,1.28,1.81,1.73,3.12.34.98.38,1.28.38,2.87s-.04,1.9-.38,2.87c-.63,1.81-1.57,3.19-3.01,4.41-.88.75-2.52,1.59-3.64,1.88-1.21.31-3.03.38-4.11.15h0Zm3.76-4.2c1.55-.58,2.84-2.06,3.28-3.75.27-1.03.27-1.72,0-2.75-.41-1.59-1.57-2.99-3.01-3.63-2.73-1.22-6.03.01-7.3,2.72-.33.7-.37.94-.37,2.29s.04,1.59.37,2.29c.72,1.53,2.29,2.77,3.95,3.11.82.17,2.23.04,3.08-.28h0Z"/>
    <path id="path890" class="cls-1" d="m36.96,81.82c-1.4-.74-1.45-2.62-.1-3.44.44-.27.76-.27,32.48-.27,31.02,0,32.05,0,32.51.26.65.35,1.16,1.33,1.04,1.99-.11.6-.68,1.29-1.27,1.53-.37.16-5.71.19-32.32.19-30.76,0-31.89,0-32.35-.25Z"/>
    <path id="path892" class="cls-1" d="m37.02,93.86c-1.44-.65-1.53-2.6-.16-3.44.44-.27.76-.27,32.55-.27s32.1,0,32.56.28c.6.36,1.03,1.32.9,1.99-.11.61-.66,1.27-1.24,1.52-.37.16-5.69.19-32.25.18-30.71,0-31.82-.01-32.36-.26h0Z"/>
    <path id="path894" class="cls-1" d="m36.96,105.85c-1.34-.71-1.47-2.29-.27-3.3l.43-.36h32.2c32.08,0,32.2,0,32.65.28.6.37,1.03,1.32.9,2-.12.65-.78,1.38-1.4,1.55-.33.09-11.1.14-32.21.14h-31.71s-.59-.31-.59-.31Z"/>
    <path id="path896" class="cls-1" d="m65.25,118.07c-.47-.14-1-.61-1.26-1.12-.42-.81-.09-1.82.81-2.49l.39-.29h15.36c15.2,0,15.36,0,15.83.28,1.32.78,1.32,2.64,0,3.41-.47.28-.65.28-15.6.3-8.32.01-15.3-.03-15.52-.1h0Z"/>
    <path id="path898" class="cls-2" d="m135.46,130.35c-.59-.27-1.03-.8-1.17-1.41-.07-.29-.12-1.38-.13-2.43v-1.9s-4.14-6.41-4.14-6.41c-2.28-3.52-4.28-6.64-4.45-6.93l-.31-.52v-44.23c0-29.07.04-44.49.13-44.97.48-2.56,2.62-4.57,5.23-4.91,1.3-.17,9.88-.17,11.18,0,1.94.25,3.78,1.5,4.6,3.12.72,1.41.77,1.88.77,7.1v4.83h3.59c4.13,0,4.27.04,4.77,1.16.26.59.27.96.23,12.65-.04,11.92-.04,12.05-.32,12.42-.95,1.27-2.48,1.3-3.31.07l-.31-.47v-21.86l-6.56-.04c-6.38-.04-6.57-.05-6.94-.32-1.27-.95-1.3-2.48-.07-3.31.44-.29.6-.31,2.71-.31h2.25l-.04-4.89c-.04-4.87-.04-4.9-.36-5.34-.61-.86-.55-.85-6.59-.85s-5.98,0-6.59.85l-.32.45-.04,43.23-.04,43.23h13.97v-32.66c0-35.88-.07-33.04.83-33.79.86-.73,2.36-.35,2.9.74.23.45.24,2.37.24,34.27,0,24.94-.04,33.87-.16,34.09-.09.16-2.08,3.29-4.44,6.94l-4.28,6.64-.05,2.28c-.04,2.05-.08,2.32-.33,2.66-.65.87-1.64,1.2-2.46.82h0Zm3.41-13.96c1.4-2.17,2.54-3.97,2.54-4s-2.35-.06-5.21-.06-5.19.05-5.17.12c.14.37,5.13,7.95,5.21,7.93.05-.02,1.24-1.81,2.64-3.98h0Z"/>
  </g>
</svg>