<?xml version="1.0" encoding="UTF-8" standalone="no"?>
<svg
   id="Layer_2"
   data-name="Layer 2"
   viewBox="0 0 4000 4000"
   version="1.1"
   sodipodi:docname="empty_box.svg"
   inkscape:version="1.2.2 (b0a84865, 2022-12-01)"
   xmlns:inkscape="http://www.inkscape.org/namespaces/inkscape"
   xmlns:sodipodi="http://sodipodi.sourceforge.net/DTD/sodipodi-0.dtd"
   xmlns="http://www.w3.org/2000/svg"
   xmlns:svg="http://www.w3.org/2000/svg">
  <sodipodi:namedview
     id="namedview45"
     pagecolor="#ffffff"
     bordercolor="#000000"
     borderopacity="0.25"
     inkscape:showpageshadow="2"
     inkscape:pageopacity="0.0"
     inkscape:pagecheckerboard="0"
     inkscape:deskcolor="#d1d1d1"
     showgrid="false"
     inkscape:zoom="0.243"
     inkscape:cx="1923.8683"
     inkscape:cy="2000"
     inkscape:window-width="2240"
     inkscape:window-height="1122"
     inkscape:window-x="0"
     inkscape:window-y="25"
     inkscape:window-maximized="1"
     inkscape:current-layer="Layer_2" />
  <defs
     id="defs4">
    <style
       id="style2">
      .cls-1 {
        fill: #fff;
      }

      .cls-2 {
        fill: #2d74ff;
      }

      .cls-2, .cls-3 {
        fill-rule: evenodd;
      }

      .cls-3 {
        fill: #738bab;
      }
    </style>
  </defs>
  <g
     id="Layer_1-2"
     data-name="Layer 1"
     style="stroke:#1f2229;stroke-opacity:1">
    <rect
       class="cls-1"
       width="4000"
       height="4000"
       id="rect6"
       style="stroke:#1f2229;stroke-opacity:1" />
    <g
       id="Exp-1.-O"
       style="stroke:#1f2229;stroke-opacity:1">
      <path
         class="cls-3"
         d="m1738.44,1290.19c50.19-19.94,107.31-33.69,170.69-40.06,17.19-1.69,29.69-17,28-34.19-1.75-17.12-17.06-29.69-34.19-28-69.69,7-132.44,22.25-187.56,44.19-16.06,6.31-23.88,24.5-17.5,40.56,6.38,16,24.56,23.87,40.56,17.5Z"
         id="path8"
         style="stroke:#1f2229;stroke-opacity:1" />
      <path
         class="cls-3"
         d="m2062.25,1248.94c73.88,5.56,141.5,6.75,203.25,4.12,17.25-.69,30.69-15.25,29.94-32.5-.69-17.25-15.31-30.62-32.5-29.94-59.56,2.5-124.75,1.31-196-4.06-17.19-1.25-32.19,11.62-33.5,28.81-1.31,17.25,11.63,32.25,28.81,33.56Z"
         id="path10"
         style="stroke:#1f2229;stroke-opacity:1" />
      <path
         class="cls-3"
         d="m2434.25,1234.56c72.87-13.69,134.69-33.94,186.62-58.87,15.56-7.5,22.12-26.19,14.63-41.69-7.44-15.56-26.12-22.12-41.69-14.69-47.63,22.87-104.31,41.31-171.12,53.87-16.94,3.19-28.12,19.5-24.94,36.5,3.19,16.94,19.56,28.06,36.5,24.87Z"
         id="path12"
         style="stroke:#1f2229;stroke-opacity:1" />
      <path
         class="cls-3"
         d="m2748.25,1088.88c56-54.06,88.88-116.31,103.69-179.63,3.94-16.81-6.56-33.62-23.31-37.56-16.81-3.94-33.62,6.56-37.56,23.31-12.25,52.56-39.75,104.06-86.19,148.88-12.44,12-12.81,31.81-.81,44.19,12,12.44,31.75,12.81,44.19.81Z"
         id="path14"
         style="stroke:#1f2229;stroke-opacity:1" />
      <path
         class="cls-3"
         d="m2837.06,694.06c-24.81-65.88-66.87-121.81-118.13-157.19-14.19-9.75-33.62-6.19-43.44,8-9.81,14.19-6.25,33.69,8,43.5,41.44,28.56,75,74.31,95.06,127.69,6.06,16.12,24.06,24.31,40.25,18.25,16.12-6.06,24.31-24.12,18.25-40.25Z"
         id="path16"
         style="stroke:#1f2229;stroke-opacity:1" />
      <path
         class="cls-3"
         d="m2022.81,536.75c34.31-161,171.06-239.31,269.69-239.88,32.38-.19,60.44,7.44,75,26.94,8.62,11.56,11.25,27.06,7.94,46.06-2.94,17,8.5,33.19,25.5,36.12,17,2.94,33.19-8.5,36.12-25.5,6.75-39.06-1.75-70.38-19.5-94.06-24.81-33.31-70.31-52.38-125.38-52.06-120.06.69-288.75,93.38-330.5,289.38-3.62,16.88,7.13,33.44,24,37.06s33.5-7.19,37.13-24.06Z"
         id="path18"
         style="stroke:#1f2229;stroke-opacity:1" />
      <path
         class="cls-3"
         d="m1961.94,536.88c42.31,195,210.37,287.25,330.12,288,59.31.31,107.37-21.75,130.87-59.94,14.19-23,20.38-52.31,13.75-88.12-8.13-44.06-37.12-100.5-97.81-167.5-11.56-12.81-31.38-13.81-44.13-2.25-12.81,11.62-13.81,31.38-2.19,44.19,42.25,46.69,67.31,86.5,78.31,119.94,8.31,25.5,8.12,45.94-1.12,61-8.37,13.56-23.38,21.75-41.44,26.25-22.69,5.62-49.87,5.19-78.56-.88-91.69-19.38-196.81-96.06-226.69-233.94-3.69-16.88-20.31-27.56-37.19-23.94-16.88,3.69-27.56,20.31-23.94,37.19Z"
         id="path20"
         style="stroke:#1f2229;stroke-opacity:1" />
      <path
         class="cls-2"
         d="m1984,592.75h418.44c34.5,0,62.5-28,62.5-62.5s-28-62.5-62.5-62.5h-418.44c-34.5,0-62.5,28-62.5,62.5s28,62.5,62.5,62.5Z"
         id="path22"
         style="stroke:#1f2229;stroke-opacity:1" />
      <path
         class="cls-3"
         d="m718.75,3032.5v350.56c0,69,45.25,129.81,111.38,149.62,251.12,75.38,957.5,287.31,1125,337.5,29.25,8.81,60.5,8.81,89.75,0,167.5-50.19,873.88-262.12,1125-337.5,66.13-19.81,111.38-80.62,111.38-149.62v-499.81c0-17.25-14-31.25-31.25-31.25s-31.25,14-31.25,31.25v499.81c0,41.37-27.19,77.87-66.81,89.81-251.13,75.31-957.56,287.25-1125,337.5-17.56,5.25-36.31,5.25-53.87,0l-1125-337.5c-39.62-11.94-66.81-48.44-66.81-89.81v-350.56c0-17.25-14-31.25-31.25-31.25s-31.25,14-31.25,31.25Z"
         id="path24"
         style="stroke:#1f2229;stroke-opacity:1" />
      <path
         class="cls-3"
         d="m646,2324.37s-158.25,234.63-239.12,354.5c-16.44,24.37-20.5,55.12-10.88,82.94,9.56,27.81,31.62,49.56,59.62,58.62l1124.69,365.44c39.75,12.88,83.19-2,106.62-36.56,83.81-123.75,338.94-500.12,338.94-500.12,5.5-8.13,6.87-18.38,3.69-27.69-3.19-9.31-10.56-16.56-19.94-19.56l-1250-405.63c-16.38-5.31-34,3.69-39.38,20.13-5.31,16.37,3.69,34,20.12,39.37l1210.44,392.75-315.62,465.69c-7.81,11.5-22.31,16.5-35.56,12.19l-1124.69-365.44c-9.31-3.06-16.69-10.25-19.88-19.56-3.19-9.25-1.81-19.5,3.62-27.62l239.12-354.5c9.69-14.31,5.88-33.75-8.44-43.38-14.25-9.69-33.69-5.88-43.38,8.44Z"
         id="path26"
         style="stroke:#1f2229;stroke-opacity:1" />
      <path
         class="cls-3"
         d="m3062.56,2254l-1072.19,347.94c-16.44,5.31-25.44,22.94-20.13,39.38,5.38,16.37,23,25.37,39.37,20.06l1072.19-347.88c16.44-5.31,25.44-23,20.13-39.37-5.38-16.44-23-25.44-39.38-20.13Z"
         id="path28"
         style="stroke:#1f2229;stroke-opacity:1" />
      <path
         class="cls-3"
         d="m2062.62,2779.75s181.31,267.5,250.44,369.56c23.44,34.56,66.87,49.44,106.63,36.56,184.31-59.88,887.25-288.31,1124.69-365.44,28-9.06,50.06-30.81,59.63-58.62,9.62-27.81,5.56-58.56-10.88-82.94-98-145.31-317.19-470.31-317.19-470.31-9.69-14.25-29.12-18.06-43.44-8.44-14.25,9.69-18.06,29.12-8.44,43.44,0,0,219.25,324.94,317.25,470.25,5.44,8.12,6.81,18.37,3.63,27.62-3.19,9.31-10.56,16.5-19.88,19.56l-1124.69,365.44c-13.25,4.31-27.75-.69-35.56-12.19l-250.44-369.56c-9.69-14.31-29.13-18-43.44-8.31-14.25,9.62-18,29.12-8.31,43.38Z"
         id="path30"
         style="stroke:#1f2229;stroke-opacity:1" />
      <path
         class="cls-3"
         d="m949.5,2194l1060.19-345.12c9.31-3.06,16.69-10.31,19.88-19.63,3.19-9.31,1.81-19.56-3.75-27.69,0,0-224.5-330.19-302.56-445-23.44-34.44-66.81-49.31-106.5-36.44l-1124.75,365.44c-28,9.12-50.06,30.81-59.69,58.69-9.56,27.81-5.5,58.5,10.94,82.94,90.25,133.81,280.81,416.37,280.81,416.37,9.69,14.25,29.12,18.06,43.44,8.38,14.25-9.62,18.06-29.06,8.44-43.37,0,0-190.62-282.5-280.88-416.31-5.5-8.19-6.81-18.38-3.62-27.69,3.19-9.25,10.56-16.5,19.88-19.56l1124.75-365.44c13.25-4.31,27.69.69,35.5,12.12l279.19,410.62-1020.56,332.25c-16.44,5.31-25.38,23-20.06,39.38,5.38,16.37,23,25.37,39.38,20.06Z"
         id="path32"
         style="stroke:#1f2229;stroke-opacity:1" />
      <path
         class="cls-3"
         d="m1990.31,1848.88l1250,406.87c13.25,4.31,27.81-.62,35.62-12.19,0,0,190.56-282.56,280.81-416.37,16.44-24.44,20.5-55.12,10.94-82.94-9.62-27.88-31.69-49.56-59.69-58.69l-1124.75-365.44c-39.69-12.88-83.06,2-106.5,36.44l-218.63,321.5c-9.69,14.31-6,33.75,8.25,43.44,14.31,9.69,33.75,6,43.44-8.25l218.63-321.56c7.81-11.44,22.25-16.44,35.5-12.12l1124.75,365.44c9.31,3.06,16.69,10.31,19.88,19.56,3.19,9.31,1.87,19.5-3.63,27.69l-267.69,396.81-1227.56-399.63c-16.44-5.37-34.06,3.62-39.37,20.06-5.38,16.38,3.63,34,20,39.38Z"
         id="path34"
         style="stroke:#1f2229;stroke-opacity:1" />
      <path
         class="cls-2"
         d="m2946.69,2225.94l-946.69,307.12-946.69-307.12,946.69-308.19,946.69,308.19Z"
         id="path36"
         style="stroke:#1f2229;stroke-opacity:1" />
      <path
         class="cls-3"
         d="m1687.37,1816.25c-16.81-23.69-31.25-47.5-43.37-71.31-7.81-15.38-26.63-21.5-42-13.63-15.38,7.81-21.5,26.63-13.69,42,13.44,26.44,29.44,52.88,48.13,79.19,10,14.06,29.5,17.31,43.56,7.37,14.06-10,17.38-29.56,7.38-43.62Z"
         id="path38"
         style="stroke:#1f2229;stroke-opacity:1" />
      <path
         class="cls-3"
         d="m1600.69,1614.94c-5.62-35.63-5.88-70.44-.94-103.81,2.5-17.06-9.31-32.94-26.38-35.44-17.06-2.5-32.94,9.31-35.5,26.38-5.75,39.37-5.56,80.5,1.06,122.56,2.69,17.06,18.69,28.69,35.75,26,17-2.69,28.69-18.69,26-35.69Z"
         id="path40"
         style="stroke:#1f2229;stroke-opacity:1" />
    </g>
  </g>
  <path
     style="fill:#1f2229;stroke:#1f2229;stroke-width:0;stroke-opacity:1"
     d="m 1958.9298,583.32694 c -20.8416,-10.47115 -33.0039,-30.84555 -33.0039,-55.28828 0,-17.73464 1.9212,-22.18679 16.1635,-37.45727 l 16.1635,-17.33036 227.591,-1.13201 c 158.3002,-0.78737 230.9114,0.24333 238.4971,3.38542 33.291,13.78959 47.1718,57.1703 27.5896,86.22396 -19.9514,29.60147 -12.7,28.79379 -258.515,28.79379 -201.4019,0 -221.385,-0.61319 -234.4858,-7.19525 z"
     id="path1815" />
  <path
     style="fill:#1f2229;stroke:#1f2229;stroke-width:0;stroke-opacity:1"
     d="m 1537.9092,2380.7804 c -248.4915,-80.9431 -457.5424,-148.8155 -464.5576,-150.8274 -11.1537,-3.1988 46.2283,-22.8504 457.0711,-156.5328 l 469.8261,-152.8748 469.364,152.7785 c 352.2985,114.6735 466.9667,153.5381 459.7522,155.8242 -5.2866,1.6752 -215.4253,69.7836 -466.975,151.3521 -251.5496,81.5685 -460.8089,148.1136 -465.0205,147.878 -4.2117,-0.2358 -210.9688,-66.6546 -459.4603,-147.5978 z"
     id="path1817" />
  <path
     style="fill:#1f2229;stroke:#1f2229;stroke-width:0;stroke-opacity:1"
     d="m 1944.4444,2509.7996 c -504.9698,-162.8925 -860.8159,-278.8694 -863.6029,-281.4642 -3.6346,-3.384 217.5625,-77.4947 663.3176,-222.2405 l 256.5047,-83.2924 237.3224,77.1411 c 426.1955,138.5337 684.5763,225.2341 681.0813,228.5388 -1.8863,1.7835 -150.6519,50.7422 -330.5901,108.797 -179.9383,58.0548 -352.1605,113.7005 -382.7161,123.6573 -108.3122,35.2941 -201.7507,63.7527 -208.8516,63.61 -3.9588,-0.079 -27.5681,-6.7158 -52.4653,-14.7471 z"
     id="path1819" />
  <path
     style="fill:#1f2229;stroke:#1f2229;stroke-width:0;stroke-opacity:1"
     d="M 1950.6173,2512.2728 C 1931.3786,2505.8 1728.6008,2440.0179 1500,2366.0904 c -228.6008,-73.9275 -417.2272,-135.908 -419.1696,-137.7344 -3.5859,-3.3716 233.8124,-82.9245 675.6793,-226.4223 l 244.164,-79.2932 231.1447,75.1946 c 430.0411,139.8985 690.7188,227.3653 687.2614,230.6013 -2.9669,2.777 -220.9797,73.9245 -655.7053,213.9866 -192.2754,61.9483 -258.9045,82.2811 -268.5224,81.9435 -5.0905,-0.1787 -24.9961,-5.6209 -44.2348,-12.0937 z"
     id="path1821" />
  <path
     style="fill:#1f2229;stroke:#1f2229;stroke-width:0;stroke-opacity:1"
     d="m 2045.0673,586.73444 c -67.1562,-1.98037 -82.2695,-3.56851 -91.4781,-9.6127 -17.4587,-11.45927 -25.4038,-31.1934 -24.0036,-59.62017 0.2506,-5.08608 7.1525,-16.66015 15.3377,-25.72017 l 14.8822,-16.47276 h 231.8882 231.8882 l 14.2574,12.51816 c 32.6774,28.69109 22.5806,83.9509 -17.1687,93.96499 -19.1967,4.83625 -268.128,8.11199 -375.6033,4.94265 z"
     id="path1823" />
  <path
     style="fill:#1f2229;stroke:#1f2229;stroke-width:0;stroke-opacity:1"
     d="m 2045.0673,586.73444 c -67.1562,-1.98037 -82.2695,-3.56851 -91.4781,-9.6127 -17.4587,-11.45927 -25.4038,-31.1934 -24.0036,-59.62017 0.2506,-5.08608 7.1525,-16.66015 15.3377,-25.72017 l 14.8822,-16.47276 h 231.8882 231.8882 l 14.0416,12.3287 c 33.5507,29.45791 23.3655,84.03971 -17.6024,94.32934 -18.6952,4.69555 -269.3295,7.88252 -374.9538,4.76776 z"
     id="path1825" />
  <path
     style="fill:#1f2229;stroke:#1f2229;stroke-width:0;stroke-opacity:1"
     d="m 2045.0673,586.73444 c -67.1562,-1.98037 -82.2695,-3.56851 -91.4781,-9.6127 -17.4587,-11.45927 -25.4038,-31.1934 -24.0036,-59.62017 0.2506,-5.08608 7.1525,-16.66015 15.3377,-25.72017 l 14.8822,-16.47276 h 231.8882 231.8882 l 14.0416,12.3287 c 33.5507,29.45791 23.3655,84.03971 -17.6024,94.32934 -18.6952,4.69555 -269.3295,7.88252 -374.9538,4.76776 z"
     id="path1827" />
  <path
     style="fill:#1f2229;stroke:#1f2229;stroke-width:0;stroke-opacity:1"
     d="m 2045.0673,586.73444 c -67.1562,-1.98037 -82.2695,-3.56851 -91.4781,-9.6127 -17.4587,-11.45927 -25.4038,-31.1934 -24.0036,-59.62017 0.2506,-5.08608 7.1525,-16.66015 15.3377,-25.72017 l 14.8822,-16.47276 h 232.0918 232.0919 l 14.6656,13.44002 c 32.7059,29.97269 22.109,82.98493 -18.6337,93.21802 -18.6952,4.69555 -269.3295,7.88252 -374.9538,4.76776 z"
     id="path1829" />
  <path
     style="fill:#1f2229;stroke:#1f2229;stroke-width:0;stroke-opacity:1"
     d="m 2024.4838,586.77529 c -47.319,-1.90699 -62.1906,-3.93182 -70.902,-9.65355 -17.4528,-11.46311 -25.3962,-31.19891 -23.9962,-59.62017 0.2506,-5.08608 7.1525,-16.66015 15.3377,-25.72017 l 14.8822,-16.47276 h 233.2817 233.2818 l 13.4729,13.90055 c 31.0747,32.06095 20.3111,82.49108 -19.8208,92.8651 -17.7402,4.58581 -311.7031,8.07958 -395.5373,4.701 z"
     id="path1831" />
  <path
     style="fill:#1f2229;stroke:#1f2229;stroke-width:0;stroke-opacity:1"
     d="m 2022.4253,586.89813 c -63.6741,-2.79267 -74.4168,-6.47683 -86.3878,-29.62623 -7.1701,-13.8654 -8.9757,-40.51174 -3.3883,-50.00275 1.9606,-3.33042 8.5378,-11.88398 14.616,-19.00791 l 11.0512,-12.9526 h 234.0263 234.0263 l 13.4729,13.90055 c 31.0764,32.06264 20.3,82.53853 -19.8208,92.8394 -18.1223,4.65284 -318.5356,8.31703 -397.5958,4.84954 z"
     id="path1833" />
  <path
     style="fill:#1f2229;stroke:#1f2229;stroke-width:0;stroke-opacity:1"
     d="m 1808.642,2466.6267 c -97.3251,-31.6297 -300.1029,-97.4457 -450.6173,-146.2577 -150.5144,-48.812 -275.2458,-90.2246 -277.1808,-92.0279 -3.5716,-3.3286 250.7184,-88.5707 681.7503,-228.5336 l 237.9028,-77.2508 206.5416,67.0135 c 397.7575,129.0544 715.4827,235.6434 712.0562,238.8774 -3.2774,3.0932 -216.4137,72.7804 -614.5681,200.9396 -241.1034,77.6071 -298.9568,95.3544 -309.7704,95.0261 -5.0378,-0.1529 -88.7892,-26.1569 -186.1143,-57.7866 z"
     id="path1835" />
</svg>
