<?xml version="1.0" encoding="UTF-8"?>
<svg id="Layer_2" data-name="Layer 2" xmlns="http://www.w3.org/2000/svg" viewBox="0 0 88.58 88.58">
  <defs>
    <style>
      .cls-1 {
        fill: #f9ba2d;
      }

      .cls-2 {
        fill: #212121;
      }
    </style>
  </defs>
  <g id="Layer_1-2" data-name="Layer 1">
    <g>
      <path class="cls-2" d="m53.07,14.03c1.12.32,2.21.71,3.27,1.15,1.07.44,2.12.95,3.13,1.51l9.26-7.53c.46-.37,1.02-.58,1.57-.58h0c.56,0,1.12.2,1.55.64l7.5,7.5h0c.44.44.64.99.64,1.55h0c0,.55-.2,1.11-.58,1.57l-7.53,9.26c.56,1.01,1.06,2.06,1.51,3.13.44,1.06.83,2.15,1.15,3.27l11.87,1.23c.59.06,1.13.31,1.52.7h0c.4.4.65.93.65,1.55v10.61c0,.62-.25,1.15-.65,1.55h0c-.39.39-.93.65-1.52.71l-11.86,1.23c-.32,1.12-.71,2.21-1.15,3.27-.44,1.07-.95,2.12-1.51,3.13l7.53,9.26c.37.46.58,1.02.58,1.57s-.2,1.11-.64,1.55l-7.5,7.5c-.44.44-.99.64-1.55.64h0c-.55,0-1.11-.2-1.57-.58l-9.26-7.53c-1.01.56-2.06,1.06-3.13,1.51-1.06.44-2.15.82-3.27,1.15l-1.23,11.87c-.06.59-.31,1.13-.7,1.52h0s0,0,0,0c-.4.4-.93.64-1.54.64h-10.61c-.62,0-1.15-.25-1.55-.64-.39-.39-.64-.93-.7-1.52l-1.23-11.87c-1.12-.32-2.21-.71-3.27-1.15-1.07-.44-2.12-.95-3.13-1.51l-9.26,7.53c-.46.37-1.02.58-1.57.58s-1.11-.2-1.55-.64h0l-7.5-7.5h0c-.44-.44-.64-.99-.64-1.55h0c0-.55.2-1.11.58-1.57l7.53-9.26c-.56-1.01-1.06-2.06-1.51-3.13-.44-1.06-.83-2.15-1.15-3.27l-11.87-1.23c-.59-.06-1.13-.31-1.52-.7-.4-.4-.64-.93-.64-1.55v-10.61c0-.61.25-1.15.64-1.54h0s0,0,0,0c.39-.39.93-.64,1.52-.7l11.86-1.23c.32-1.12.71-2.21,1.15-3.27.44-1.07.95-2.12,1.51-3.13l-7.53-9.26c-.37-.46-.58-1.02-.58-1.57s.2-1.11.64-1.55h0s7.5-7.51,7.5-7.51c.44-.44.99-.64,1.55-.64s1.11.2,1.57.58l9.26,7.53c1.01-.56,2.06-1.06,3.13-1.51,1.06-.44,2.15-.82,3.27-1.15l1.23-11.87c.06-.59.31-1.13.71-1.52h0c.4-.4.93-.65,1.55-.65h10.61c.62,0,1.15.25,1.55.65h0c.39.39.64.93.7,1.52l1.23,11.87h0Zm2.56,2.85c-1.18-.49-2.4-.9-3.65-1.24l-.61-.16-.07-.63-1.29-12.49c-.02-.16-.08-.31-.18-.41h0c-.06-.07-.15-.1-.24-.1h-10.61c-.1,0-.18.04-.24.1h0c-.09.09-.16.24-.17.41l-1.29,12.49-.07.63-.61.16c-1.25.34-2.47.75-3.65,1.24-1.2.5-2.36,1.07-3.47,1.71l-.55.32-.49-.4-9.75-7.92c-.13-.1-.27-.16-.41-.16-.09,0-.18.03-.25.1l-7.5,7.5h0c-.07.07-.1.15-.1.25,0,.14.06.29.16.41l7.92,9.75.4.49-.32.55c-.64,1.11-1.21,2.27-1.71,3.47-.49,1.18-.9,2.4-1.24,3.65l-.16.61-.63.07-12.49,1.29c-.17.02-.31.08-.41.17h0c-.06.07-.1.15-.1.25v10.61c0,.1.04.18.1.24.1.1.24.16.41.18l12.49,1.29.63.07.16.61c.34,1.25.75,2.47,1.24,3.65.5,1.2,1.07,2.36,1.71,3.47l.32.55-.4.49-7.92,9.75c-.1.13-.16.27-.16.41h0c0,.09.03.18.1.25h0s7.5,7.5,7.5,7.5h0c.07.07.16.1.25.1.14,0,.29-.06.41-.16l9.75-7.92.49-.4.55.32c1.11.64,2.27,1.21,3.47,1.71,1.18.49,2.4.9,3.65,1.24l.61.16.07.63,1.29,12.49c.02.16.08.31.18.41.06.06.15.1.24.1h10.61c.1,0,.18-.04.24-.1h0c.1-.1.16-.24.17-.41l1.29-12.49.07-.63.61-.16c1.25-.34,2.47-.75,3.65-1.24,1.2-.5,2.36-1.07,3.47-1.71l.55-.32.49.4,9.75,7.92c.13.1.28.16.41.16h0c.09,0,.18-.03.25-.1l7.5-7.5c.07-.07.1-.16.1-.25,0-.14-.06-.29-.16-.41l-7.92-9.75-.4-.49.32-.55c.64-1.11,1.21-2.27,1.71-3.47.49-1.18.9-2.4,1.24-3.65l.16-.61.63-.07,12.49-1.29c.16-.02.31-.08.41-.18h0c.06-.06.1-.15.1-.24v-10.61c0-.1-.04-.18-.1-.24h0c-.1-.1-.24-.16-.41-.18l-12.49-1.29-.63-.07-.16-.61c-.34-1.25-.75-2.47-1.24-3.65-.5-1.2-1.07-2.36-1.71-3.47l-.32-.55.4-.49,7.92-9.75c.1-.13.16-.27.16-.41h0c0-.09-.03-.18-.1-.25h0s-7.5-7.5-7.5-7.5c-.07-.07-.16-.1-.25-.1h0c-.14,0-.29.06-.41.16l-9.75,7.92-.49.4-.55-.32c-1.11-.64-2.27-1.21-3.47-1.71Z"/>
      <path class="cls-1" d="m44.29,29.25c4.15,0,7.91,1.68,10.63,4.4,2.72,2.72,4.4,6.48,4.4,10.63s-1.68,7.91-4.4,10.63c-2.72,2.72-6.48,4.4-10.63,4.4s-7.91-1.68-10.63-4.4c-2.72-2.72-4.4-6.48-4.4-10.63s1.68-7.91,4.4-10.63c2.72-2.72,6.48-4.4,10.63-4.4h0Zm9.33,5.71c-2.39-2.39-5.68-3.86-9.33-3.86s-6.94,1.48-9.33,3.86c-2.39,2.39-3.86,5.68-3.86,9.33s1.48,6.94,3.86,9.33c2.39,2.39,5.68,3.86,9.33,3.86s6.94-1.48,9.33-3.86c2.39-2.39,3.86-5.68,3.86-9.33s-1.48-6.94-3.86-9.33Z"/>
    </g>
  </g>
</svg>