<?xml version="1.0" encoding="UTF-8" standalone="no"?>
<!-- Created with Inkscape (http://www.inkscape.org/) -->

<svg
   version="1.1"
   id="svg132"
   width="24"
   height="22.007999"
   viewBox="0 0 24 22.007999"
   xmlns="http://www.w3.org/2000/svg"
   xmlns:svg="http://www.w3.org/2000/svg">
  <defs
     id="defs136" />
  <g
     id="g140"
     transform="matrix(1.3333333,0,0,-1.3333333,-496.06125,1844.2092)">
    <g
       id="g142"
       transform="matrix(0.0018,0,0,0.0018,363.04595,1356.9039)">
      <path
         d="m 6258,13272.9 c 0,295.7 -204.06,543.6 -479,610.9 v 551.2 c 0,82.8 -67.15,150 -150,150 -82.84,0 -150,-67.2 -150,-150 v -551.2 c -274.94,-67.3 -479,-315.2 -479,-610.9 0,-295.6 204.06,-543.5 479,-610.8 v -2051.2 c -274.94,-67.3 -479,-315.2 -479,-610.9 0,-295.7 204.06,-543.6 479,-610.9 V 7337.9 c -274.94,-67.3 -479,-315.1 -479,-610.8 0,-295.7 204.06,-543.6 479,-610.9 V 5565 c 0,-82.8 67.16,-150 150,-150 82.85,0 150,67.2 150,150 v 551.2 c 274.94,67.3 479,315.2 479,610.9 0,295.7 -204.06,543.5 -479,610.8 v 2051.2 c 274.94,67.3 479,315.2 479,610.9 0,295.7 -204.06,543.6 -479,610.9 v 2051.2 c 274.94,67.3 479,315.2 479,610.8"
         style="fill:#1b1918;fill-opacity:1;fill-rule:nonzero;stroke:none"
         id="path144" />
      <path
         d="M 14784.1,14093.8 H 8294.24 l -831.55,-842.2 831.55,-842.2 h 6489.86 c 119.3,0 215.9,96.6 215.9,215.8 V 13878 c 0,119.2 -96.6,215.8 -215.9,215.8"
         style="fill:#1b1918;fill-opacity:1;fill-rule:nonzero;stroke:none"
         id="path146" />
      <path
         d="M 14784.1,10842.2 H 8294.24 l -831.55,-842.2 831.55,-842.2 h 6489.86 c 119.3,0 215.9,96.6 215.9,215.8 v 1252.8 c 0,119.2 -96.6,215.8 -215.9,215.8"
         style="fill:#1b1918;fill-opacity:1;fill-rule:nonzero;stroke:none"
         id="path148" />
      <path
         d="M 14784.1,7590.6 H 8294.24 l -831.55,-842.2 831.55,-842.2 h 6489.86 c 119.3,0 215.9,96.6 215.9,215.8 v 1252.8 c 0,119.2 -96.6,215.8 -215.9,215.8"
         style="fill:#1b1918;fill-opacity:1;fill-rule:nonzero;stroke:none"
         id="path150" />
    </g>
  </g>
</svg>
