<?xml version="1.0" encoding="UTF-8"?>
<svg id="Layer_2" data-name="Layer 2" xmlns="http://www.w3.org/2000/svg" viewBox="0 0 92.19 60.69">
  <defs>
    <style>
      .cls-1 {
        fill: #f9ba2d;
      }

      .cls-2 {
        fill: #1f2229;
      }

      .cls-3, .cls-4 {
        fill: #1a1a1a;
      }

      .cls-4 {
        fill-rule: evenodd;
      }
    </style>
  </defs>
  <g id="Layer_2-2" data-name="Layer 2">
    <g id="Layer_1-2" data-name="Layer 1-2">
      <g id="g1320">
        <path id="path1310" class="cls-4" d="m7.66,0h76.87c2.04,0,3.97.81,5.41,2.25,1.44,1.44,2.25,3.37,2.25,5.41v45.38c0,2.04-.81,3.97-2.25,5.41s-3.37,2.25-5.41,2.25H7.66c-2.04,0-3.97-.81-5.41-2.25-1.44-1.44-2.25-3.37-2.25-5.41V7.65c0-2.04.81-3.97,2.25-5.41C3.69.81,5.62,0,7.66,0h0Zm76.87,4.25H7.66c-.91,0-1.76.36-2.4,1-.64.64-1,1.5-1,2.4v45.38c0,.91.36,1.76,1,2.4.64.64,1.5,1,2.4,1h76.87c.91,0,1.76-.36,2.4-1,.64-.64,1-1.5,1-2.4V7.65c0-.91-.36-1.76-1-2.4-.64-.64-1.5-1-2.4-1Z"/>
        <polygon id="polygon1312" class="cls-3" points="91.48 13.32 91.48 23.1 91.48 24.52 90.06 24.52 2.13 24.52 .71 24.52 .71 23.1 .71 13.32 .71 11.91 2.13 11.91 90.06 11.91 91.48 11.91 91.48 13.32"/>
        <path id="path1314" class="cls-3" d="m15.88,33.18c1.03,0,2.02.19,2.94.52.08.03.16.06.24.09-.35.27-.68.56-1,.87-1.87,1.87-2.91,4.38-2.91,7.02s1.04,5.15,2.91,7.02c.32.32.65.61,1,.87-.08.03-.16.06-.24.09-.92.34-1.91.53-2.94.53-2.35,0-4.48-.95-6.02-2.49-1.54-1.54-2.49-3.67-2.49-6.02s.95-4.48,2.49-6.02,3.67-2.49,6.02-2.49h0Z"/>
        <path id="path1316" class="cls-3" d="m19.07,35.67c1.54-1.54,3.67-2.49,6.02-2.49s4.48.95,6.02,2.49,2.49,3.67,2.49,6.02-.95,4.48-2.49,6.02-3.67,2.49-6.02,2.49-4.48-.95-6.02-2.49c-1.54-1.54-2.49-3.67-2.49-6.02s.95-4.48,2.49-6.02Z"/>
        <path id="path1318" class="cls-4" d="m41.4,39.56h9.09c1.11,0,2,.95,2,2.13s-.9,2.13-2,2.13h-9.09c-1.11,0-2-.95-2-2.13s.9-2.13,2-2.13h0Zm15.83,0h9.09c1.11,0,2,.95,2,2.13s-.9,2.13-2,2.13h-9.09c-1.11,0-2-.95-2-2.13s.9-2.13,2-2.13h0Zm15.83,0h9.09c1.11,0,2,.95,2,2.13s-.9,2.13-2,2.13h-9.09c-1.11,0-2-.95-2-2.13s.9-2.13,2-2.13Z"/>
      </g>
    </g>
    <path id="path1806" class="cls-2" d="m6.14,60.49c-1.52-.33-2.81-1.03-3.91-2.15-1.27-1.29-1.99-2.88-2.16-4.77-.1-1.09-.1-45.26,0-46.43.08-.96.33-1.91.7-2.71C1.82,2.21,3.97.58,6.43.15,7.37-.02,84.82-.02,85.76.15c2.75.48,5.06,2.43,5.96,5.03.46,1.32.42-.67.45,24.53.02,14.77,0,23.28-.05,23.82-.09,1.03-.29,1.83-.67,2.65-1.07,2.29-3.09,3.87-5.54,4.34-.55.1-4.5.12-39.87.11-37.66,0-39.29-.01-39.89-.14h0Zm79.11-4.11c1.27-.27,2.27-1.24,2.61-2.53.1-.37.11-2.31.11-14.91v-14.49H4.22v14.49c0,15.8-.03,14.85.41,15.72.24.48.91,1.14,1.42,1.41.82.44-2.04.41,40.01.41,33.37,0,38.76-.01,39.2-.1h0Zm2.72-46.78c0-1.87-.02-2.44-.11-2.79-.3-1.15-1.11-2.02-2.24-2.4l-.46-.15H7.02l-.46.15c-1.17.4-2.06,1.39-2.28,2.58-.04.22-.07,1.43-.07,2.68v2.28h83.75v-2.35Z"/>
    <path id="path1808" class="cls-2" d="m24.34,50.11c-1.97-.15-3.72-.97-5.21-2.47s-2.32-3.23-2.47-5.23c-.2-2.61.63-4.83,2.47-6.67,1.49-1.49,3.15-2.28,5.22-2.48,3.11-.29,6.24,1.27,7.9,3.95,2.02,3.25,1.63,7.42-.97,10.2-1.84,1.97-4.22,2.89-6.94,2.69Z"/>
    <path id="path1810" class="cls-1" d="m72.38,43.64c-.37-.13-.84-.57-1.07-1-.14-.26-.17-.44-.17-.95,0-.56.02-.67.22-1.02.12-.22.34-.49.49-.61.57-.46.34-.44,5.74-.44h4.94s.37.18.37.18c1.58.75,1.58,3.04,0,3.79l-.37.18h-4.92c-4.16,0-4.97-.03-5.23-.12h0Z"/>
    <path id="path1812" class="cls-1" d="m56.63,43.66c-.62-.24-1.03-.66-1.25-1.3-.25-.71-.05-1.6.48-2.15.59-.6.17-.56,5.79-.58,4.98-.02,5.02-.02,5.38.14.41.18.9.66,1.08,1.08.08.18.13.48.13.84,0,.46-.03.62-.19.92-.24.46-.59.8-1.02.99-.32.15-.46.15-5.25.15-3.58,0-4.98-.03-5.15-.09Z"/>
    <path id="path1814" class="cls-1" d="m40.77,43.67c-.14-.05-.45-.27-.68-.49-.34-.33-.44-.49-.55-.85-.23-.78-.03-1.59.52-2.13.58-.57.23-.54,5.74-.56,3.72-.02,5,0,5.25.07.49.13,1.13.79,1.29,1.32.06.22.12.52.12.67,0,.75-.53,1.57-1.22,1.89l-.37.17h-4.92c-3.39-.01-5-.04-5.18-.1h0Z"/>
    <path id="path1816" class="cls-1" d="m14.21,49.98c-2.59-.55-4.7-2.17-5.88-4.52-1.11-2.2-1.2-4.71-.26-6.99,1.68-4.08,6.26-6.2,10.42-4.84l.46.15-.67.63c-1.57,1.48-2.59,3.35-3.01,5.53-.17.89-.17,2.58,0,3.48.4,2.11,1.31,3.83,2.83,5.34l.83.83-.47.15c-1.29.4-3.03.49-4.25.23h0Z"/>
  </g>
</svg>