<?xml version="1.0" encoding="UTF-8"?>
<svg id="Layer_2" data-name="Layer 2" xmlns="http://www.w3.org/2000/svg" viewBox="0 0 116.2 111.53">
  <defs>
    <style>
      .cls-1 {
        fill: #f9ba2d;
      }

      .cls-2 {
        fill: #1f2229;
      }

      .cls-3 {
        fill: #414042;
      }
    </style>
  </defs>
  <g id="Layer_2-2" data-name="Layer 2">
    <g id="Layer_1-2" data-name="Layer 1-2">
      <g id="g28">
        <path id="path6" class="cls-3" d="m105.83,11.92h-13.8V3.32c0-1.83-1.49-3.32-3.32-3.32s-3.32,1.49-3.32,3.32v8.6H30.81V3.32c0-1.83-1.49-3.32-3.32-3.32s-3.32,1.49-3.32,3.32v8.6h-13.8C4.65,11.92,0,16.57,0,22.3v83c0,3.44,2.78,6.23,6.22,6.23h103.76c3.44,0,6.22-2.79,6.22-6.23V22.3c0-5.73-4.64-10.38-10.37-10.38h0Zm-20.44,9.53v4.28c0,1.83,1.49,3.32,3.32,3.32s3.32-1.49,3.32-3.32v-4.28c2.34,1.21,3.94,3.64,3.94,6.45,0,4.01-3.25,7.27-7.26,7.27s-7.26-3.25-7.26-7.27c0-2.81,1.6-5.25,3.94-6.45h0Zm-61.21,0v4.28c0,1.83,1.49,3.32,3.32,3.32s3.32-1.49,3.32-3.32v-4.28c2.34,1.2,3.94,3.64,3.94,6.45,0,4.01-3.25,7.27-7.26,7.27s-7.26-3.25-7.26-7.27c0-2.82,1.6-5.25,3.94-6.45h0Zm85.81,83.59H6.22v-62.11h103.76v62.11h0,0Z"/>
        <rect id="rect8" class="cls-3" x="38.01" y="50.63" width="16.17" height="11.21"/>
        <rect id="rect10" class="cls-3" x="62.02" y="50.63" width="16.18" height="11.21"/>
        <rect id="rect12" class="cls-3" x="86.02" y="50.63" width="16.18" height="11.21"/>
        <rect id="rect14" class="cls-3" x="14.01" y="68.37" width="16.18" height="11.21"/>
        <rect id="rect16" class="cls-3" x="38.01" y="68.37" width="16.17" height="11.21"/>
        <rect id="rect18" class="cls-3" x="62.02" y="68.37" width="16.18" height="11.21"/>
        <rect id="rect20" class="cls-3" x="86.02" y="68.37" width="16.18" height="11.21"/>
        <rect id="rect22" class="cls-3" x="14.01" y="86.12" width="16.18" height="11.2"/>
        <rect id="rect24" class="cls-3" x="38.01" y="86.12" width="16.17" height="11.2"/>
        <rect id="rect26" class="cls-3" x="62.02" y="86.12" width="16.18" height="11.2"/>
      </g>
    </g>
    <path id="path938" class="cls-2" d="m4.79,111.29c-2.19-.53-4.02-2.39-4.58-4.64-.13-.53-.16-7.57-.16-43.14V21l.26-1.02c.29-1.12.95-2.63,1.52-3.46,1.48-2.15,3.93-3.79,6.47-4.31.96-.2,1.66-.22,8.47-.22h7.42s.03-4.73.03-4.73c.04-5.35,0-5.15.96-6.16,1.52-1.62,4.07-1.28,5.16.7l.34.61.03,4.79.03,4.79h54.72v-4.63c0-5.13.02-5.28.74-6.12,1.56-1.82,4.48-1.4,5.47.79.27.6.27.64.31,5.28l.04,4.67,7.77.04c8.49.04,8.04,0,9.88.74,1.24.49,2.29,1.18,3.29,2.16,1.38,1.34,2.23,2.76,2.84,4.7l.25.8.03,42.83c.03,38.88.01,42.9-.15,43.54-.58,2.25-2.58,4.14-4.8,4.54-.48.09-16.18.12-53.18.11-44.34,0-52.6-.03-53.16-.17h0Zm105.24-37.34v-31.09H6.2v62.19h103.84v-31.09ZM29.32,34.99c2.53-.64,4.67-2.81,5.27-5.33.22-.96.23-2.63,0-3.5-.29-1.13-1.01-2.47-1.75-3.23-.59-.61-1.79-1.53-2-1.53-.04,0-.1,1.17-.12,2.61l-.04,2.61-.34.61c-.4.73-.82,1.1-1.65,1.49-1.5.69-3.45-.09-4.19-1.69-.22-.48-.25-.76-.28-3.08-.02-1.4-.06-2.55-.09-2.55-.19,0-1.37.88-1.89,1.41-1.26,1.29-1.94,2.86-2.03,4.68-.18,3.5,1.94,6.48,5.31,7.46.89.26,2.85.28,3.79.04Zm61.18,0c2.41-.57,4.44-2.51,5.21-4.99.34-1.1.37-3.01.05-4.07-.49-1.65-1.64-3.22-3-4.1l-.69-.45-.06,2.5c-.06,2.28-.08,2.55-.32,3.08-1.14,2.52-4.44,2.69-5.84.31l-.31-.54-.04-2.67c-.02-1.47-.07-2.67-.12-2.67-.17,0-1.17.69-1.7,1.17-.77.7-1.59,2.03-1.95,3.11-.25.76-.3,1.16-.31,2.14,0,2.19.61,3.69,2.15,5.23,1,.99,2.03,1.6,3.27,1.93.83.22,2.74.22,3.64,0h0Z"/>
    <path id="path940" class="cls-1" d="m38.09,56.22v-5.56h16.06v11.13h-16.06v-5.56Z"/>
    <path id="path942" class="cls-1" d="m62.07,56.22v-5.56h16.06v11.13h-16.06v-5.56Z"/>
    <path id="path944" class="cls-1" d="m86.06,56.22v-5.56h16.06v11.13h-16.06v-5.56Z"/>
    <path id="path946" class="cls-1" d="m86.06,74.01v-5.56h16.06v11.13h-16.06v-5.56Z"/>
    <path id="path948" class="cls-1" d="m62.07,74.01v-5.56h16.06v11.13h-16.06v-5.56Z"/>
    <path id="path950" class="cls-1" d="m38.09,74.01v-5.56h16.06v11.13h-16.06v-5.56Z"/>
    <path id="path952" class="cls-1" d="m14.11,74.01v-5.56h16.06v11.13H14.11v-5.56Z"/>
    <path id="path954" class="cls-1" d="m14.11,91.73v-5.51h16.06v11.02H14.11v-5.51Z"/>
    <path id="path956" class="cls-1" d="m38.09,91.73v-5.51h16.06v11.02h-16.06v-5.51Z"/>
    <path id="path958" class="cls-1" d="m62.07,91.73v-5.51h16.06v11.02h-16.06v-5.51Z"/>
  </g>
</svg>