<?xml version="1.0" encoding="UTF-8"?>
<svg id="Layer_2" data-name="Layer 2" xmlns="http://www.w3.org/2000/svg" viewBox="0 0 107.22 107.42">
  <defs>
    <style>
      .cls-1 {
        fill: #f9ba2d;
      }

      .cls-2 {
        fill: #1f2229;
      }
    </style>
  </defs>
  <g id="svg8">
    <g id="g6">
      <path id="path4" d="m69.21,62.18l29.01-.12c7.48,1.24,8.52,13.87,2.02,17.19l-32.91.14c-8.96-2.23-9.72-15.47,1.88-17.22h0ZM14.68,21.11L70.52,0l5.34,11.45L25.06,30.66l-5.91.02-4.47-9.57h0Zm55.87,45.97c-2.17.01-3.9,1.78-3.9,3.98.01,2.2,1.77,3.98,3.94,3.97,2.17-.01,3.9-1.8,3.89-4-.01-2.2-1.77-3.96-3.93-3.95h0Zm12.12-39.98l12.78-.05c1.97-1.07,1.8-4.6-.34-5.28l-14.34.07c.43,1.47,1.39,3.74,1.9,5.27h0Zm-35.1,3.46l34.87-.15c-2.1-5.53-2.89-7.66-4.62-11.88-2.96,1.24-25.18,10.04-30.25,12.03h0ZM0,34.39c.1,23.25.2,46.49.3,69.73l.34,1.32.33.67.33.32.33.33.33.34.66.33,96.13-.4c1.33-.69,1.8-1.2,2.28-2.66l.23-22.81c7.37-3.77,8.68-16.83-.42-21.14l-.1-25.12c.09-1.04-.5-2.49-1.97-2.64l-91.98.37c.73-2.82,1.82-5.05,6.63-5.59-.78-1.71-1.83-3.99-2.35-5.14-6.36.78-9.95,4.06-11.06,12.1Z"/>
    </g>
    <path id="path918" class="cls-2" d="m2.23,107.14c-.73-.47-1.38-1.32-1.63-2.12l-.24-.77-.16-34.94C.05,35.08.05,34.34.26,33.17c.91-5.03,3.14-8.3,6.69-9.78.93-.39,2.54-.83,3.49-.96l.57-.08,1.12,2.44c.61,1.34,1.14,2.48,1.16,2.54s-.11.1-.28.1c-.57,0-2.19.45-2.95.81-.99.47-2.1,1.58-2.57,2.57-.37.79-.78,2.1-.68,2.2.03.03,20.8-.02,46.15-.13l46.09-.19.51.3c.38.23.58.45.81.92l.31.63.05,12.98.05,12.98.34.14c.68.28,2.02,1.24,2.76,1.99,1.38,1.38,2.37,3.14,2.91,5.18.25.94.29,1.34.3,2.89.01,1.95-.15,2.99-.69,4.5-.88,2.46-2.54,4.66-4.39,5.8l-.79.49-.07,4.51c-.04,2.48-.1,7.62-.14,11.43-.08,7.6-.05,7.32-.79,8.35-.19.27-.62.64-.96.84l-.61.35-31.06.13c-70.21.29-65,.28-65.38.04h0Zm98.71-28.24c.33-.22.93-.75,1.33-1.19,2.65-2.86,3.06-8.31.92-12.11-.68-1.2-1.85-2.34-2.99-2.91-.5-.25-1.17-.51-1.5-.57-.42-.08-5.01-.09-15.39-.03l-14.8.09-1.01.3c-4.03,1.21-6.42,3.76-6.92,7.39-.39,2.82.81,5.87,3.01,7.7.78.65,1.88,1.28,2.87,1.64.57.21.98.22,17.24.15l16.65-.07.59-.39Z"/>
    <path id="path920" class="cls-1" d="m52.58,28.67c19.79-7.89,25.14-10,25.22-9.92.19.2,4.56,11.48,4.48,11.56-.02.02-7.74.07-17.15.11l-17.1.07,4.56-1.82Z"/>
    <path id="path922" class="cls-1" d="m82.69,26.98c-.03-.09-.46-1.25-.95-2.58l-.9-2.42,1.76-.07c.97-.04,4.19-.08,7.14-.08,4.42-.01,5.43.01,5.68.14,1.46.76,1.75,3.26.53,4.53l-.47.49h-5.52c-3.03,0-5.9.03-6.37.07-.68.06-.87.04-.91-.08h0Z"/>
    <path id="path924" class="cls-1" d="m69.32,74.77c-1.08-.41-2.04-1.4-2.4-2.45-.24-.7-.23-1.89.02-2.58.4-1.12,1.5-2.15,2.63-2.47.65-.18,1.63-.13,2.3.12.83.31,1.76,1.17,2.16,2,.27.55.31.78.31,1.65,0,.88-.04,1.09-.31,1.65-.38.78-1.07,1.48-1.82,1.87-.7.36-2.21.46-2.9.2h0Z"/>
    <path id="path926" class="cls-1" d="m18.9,29.96c-.58-1.17-3.99-8.53-4.03-8.68-.04-.17,55.5-21.22,55.63-21.09.09.1,5.27,11.2,5.24,11.23-.01.01-11.42,4.33-25.35,9.6l-25.33,9.58h-5.84l-.31-.63Z"/>
  </g>
</svg>