<?xml version="1.0" encoding="UTF-8"?>
<svg id="Layer_2" data-name="Layer 2" xmlns="http://www.w3.org/2000/svg" viewBox="0 0 1439.46 548.85">
  <defs>
    <style>
      .cls-1, .cls-2, .cls-3, .cls-4, .cls-5, .cls-6, .cls-7 {
        fill: #f7d247;
      }

      .cls-1, .cls-2, .cls-3, .cls-4, .cls-5, .cls-6, .cls-7, .cls-8, .cls-9, .cls-10, .cls-11, .cls-12, .cls-13, .cls-14, .cls-15, .cls-16, .cls-17, .cls-18, .cls-19, .cls-20, .cls-21, .cls-22, .cls-23, .cls-24 {
        fill-rule: evenodd;
        isolation: isolate;
      }

      .cls-1, .cls-16 {
        opacity: .98;
      }

      .cls-2 {
        opacity: .97;
      }

      .cls-3, .cls-13 {
        opacity: .99;
      }

      .cls-4 {
        opacity: .97;
      }

      .cls-5 {
        opacity: .98;
      }

      .cls-6 {
        opacity: .97;
      }

      .cls-7 {
        opacity: .97;
      }

      .cls-8 {
        opacity: .94;
      }

      .cls-8, .cls-9, .cls-10, .cls-11, .cls-12, .cls-13, .cls-14, .cls-15, .cls-16, .cls-17, .cls-18, .cls-19, .cls-20, .cls-21, .cls-22, .cls-23, .cls-24 {
        fill: #1a0d0d;
      }

      .cls-9 {
        opacity: .96;
      }

      .cls-10 {
        opacity: .97;
      }

      .cls-11 {
        opacity: .97;
      }

      .cls-12 {
        opacity: .96;
      }

      .cls-14 {
        opacity: .98;
      }

      .cls-15 {
        opacity: .98;
      }

      .cls-17 {
        opacity: .98;
      }

      .cls-18 {
        opacity: .96;
      }

      .cls-19 {
        opacity: .96;
      }

      .cls-20 {
        opacity: .96;
      }

      .cls-21 {
        opacity: .98;
      }

      .cls-22 {
        opacity: .98;
      }

      .cls-23 {
        opacity: .96;
      }

      .cls-24 {
        opacity: .96;
      }
    </style>
  </defs>
  <g id="Layer_1-2" data-name="Layer 1">
    <path class="cls-6" d="m1191.24,0c6.11.43,9.96,3.76,11.54,9.99.57,2.75.89,5.52.95,8.32.08,3.25.2,6.5.36,9.75-.05,1.03-.13,2.06-.24,3.09.84,8.4.88,16.8.12,25.21-1.19,7.21-2.38,14.43-3.57,21.64-.76,3.64-1.95,7.13-3.57,10.47-.91,4.14-2.1,8.18-3.57,12.13-2.35,3.54-4.41,7.27-6.18,11.18-1.54,1.94-3.17,3.8-4.88,5.59-1.68,1.2-3.54,1.96-5.59,2.26-5.54-.6-9.43-3.54-11.65-8.8-2.35-7.9-3.98-15.94-4.88-24.14.25-2.38.25-4.75,0-7.14.08-2.03.28-4.06.59-6.07,2.25-13.96,4.55-27.91,6.9-41.86.83-3.38,2.34-6.39,4.52-9.04,2.28-5.13,5.14-9.88,8.56-14.27,2.54-2.75,5.28-5.25,8.21-7.49.71-.19,1.42-.35,2.14-.48.13-.09.21-.21.24-.36Z"/>
    <path class="cls-7" d="m1054.01,116.31c-3.17,2.83-6.82,3.67-10.94,2.5-1.93-.93-3.75-2.03-5.47-3.33-4.9-4.82-9.54-9.85-13.91-15.1-.43-1.49-1.22-2.76-2.38-3.81l-2.14-3.57c-3.82-9.62-7.71-19.22-11.65-28.78-2.72-4.72-4.43-9.8-5.11-15.22.15-.7.23-1.41.24-2.14-.57-5.56-.61-11.11-.12-16.65.63-2.37,1.19-4.75,1.66-7.14,1.37-3.36,3.86-5.18,7.49-5.47,3.58.31,6.64,1.74,9.16,4.28,2.15,2.71,4.21,5.48,6.18,8.32,3.71,5.85,7.51,11.63,11.42,17.36,1.41,2.68,2.92,5.29,4.52,7.85,2.65,6.75,5.34,13.49,8.09,20.22,1.3,5.84,2.81,11.63,4.52,17.36.23,5.46.51,10.89.83,16.29-.2,2.56-1,4.9-2.38,7.02Z"/>
    <path class="cls-6" d="m1350.83,101.32c2.85.16,5.71.36,8.56.59,4.45,1.97,6.08,5.34,4.88,10.11-.87,2.53-2.21,4.74-4.04,6.66-5.87,5.4-11.62,10.99-17.24,16.77-1.87,1.16-3.54,2.59-4.99,4.28-5.75,3.86-11.54,7.67-17.36,11.42-2.7,1.66-5.52,2.89-8.44,3.69-2.52,1.28-5.01,2.59-7.49,3.92-3.98.94-7.95,1.97-11.89,3.09-2.85.58-5.67.46-8.44-.36-.91-.29-1.7-.77-2.38-1.43-2.81-3.47-3.37-7.28-1.66-11.42.57-1.23,1.21-2.42,1.9-3.57,2.53-3.56,5.14-7.04,7.85-10.47,2.55-2.52,5.13-5.02,7.73-7.49,10.78-6.98,21.57-13.95,32.35-20.93,1.43-.56,2.86-1.11,4.28-1.66,3.21-.56,6.38-1.27,9.51-2.14,2.33-.38,4.63-.74,6.9-1.07Z"/>
    <path class="cls-7" d="m911.54,111.79c1.48.09,2.87.09,4.16,0,1.47.32,2.93.68,4.4,1.07.71.31,1.38.67,2.02,1.07,1.85.33,3.63,1,5.35,2.02,8.9,3.02,17.62,6.51,26.16,10.47,5.74,3.78,11.53,7.51,17.36,11.18,2.25,1.74,4.47,3.52,6.66,5.35,2.04,2.24,4.34,4.18,6.9,5.83,1.15,1.15,2.3,2.3,3.45,3.45,2.12,3.03,4.38,5.97,6.78,8.8,2.11,2.77,3.22,5.91,3.33,9.39-1.92,5.52-5.8,8.34-11.65,8.44-.7-.23-1.45-.23-2.26,0-2.9-.58-5.87-1.09-8.92-1.55-3.28-.68-6.53-1.47-9.75-2.38-1.27-.64-2.54-1.27-3.81-1.9-2.03-.39-3.94-1.1-5.71-2.14-11.22-7.32-22.56-14.45-34.01-21.41-2.61-1.98-4.71-4.4-6.3-7.25-2.68-2.6-4.9-5.53-6.66-8.8l-1.43-1.43c-1.83-3.71-3.3-7.55-4.4-11.54.11-2.08.78-3.95,2.02-5.59,1.91-1.47,4.01-2.49,6.3-3.09Z"/>
    <path class="cls-3" d="m1097.53,124.15c12.01-.78,20.77,4.13,26.28,14.75,3.77,10.3,2.11,19.58-4.99,27.83-6.38,6.58-13.55,12.08-21.52,16.53-1.39,1.07-2.78,2.14-4.16,3.21-1.69,2.35-3.43,4.65-5.23,6.9-3.67,6.44-7.99,12.43-12.96,17.96-3.36,2.64-6.49,5.54-9.39,8.68-2.62,4.14-5.48,8.11-8.56,11.89-1.76,3.12-3.58,6.21-5.47,9.28-.4.88-.79,1.75-1.19,2.62-.93,4.1-1.72,8.22-2.38,12.37-.16,7.61-.16,15.22,0,22.83.52,3.18,1.08,6.35,1.66,9.51.28,2.77.52,5.55.71,8.32,1.04,2.49,1.59,5.11,1.66,7.85,1.46,5.48,2.57,11.03,3.33,16.65,2.99,7.28,7.32,13.66,12.96,19.15,3.28,2.53,6.61,5.03,9.99,7.49,1.04.53,2.11,1,3.21,1.43,5.27,3.09,10.54,6.14,15.82,9.16,1.41.21,2.75.61,4.04,1.19,4.28-.02,8.48.49,12.61,1.55,14.26.98,28.29-.41,42.1-4.16,6.56-.98,13.06-2.25,19.5-3.81,6.25-.52,12.35-1.71,18.31-3.57,3.1-1.16,5.88-2.86,8.32-5.11,1.24-.82,2.5-1.57,3.81-2.26,1.5-1.77,2.96-3.56,4.4-5.35,1.12-1.16,2.27-2.27,3.45-3.33,2.38-4.27,5.11-8.32,8.21-12.13.55-1.19,1.11-2.38,1.66-3.57,1.95-3.46,4.01-6.87,6.18-10.23,2.54-7.14,5.08-14.28,7.61-21.41,1.51-7.01,3.18-13.99,4.99-20.93.13-2.49.45-4.94.95-7.37.82-11.71,1.06-23.45.71-35.2-.39-2.13-.71-4.27-.95-6.42-.3-2.09-.94-4.07-1.9-5.95-1.06-.91-2.06-1.9-2.97-2.97-3.43-1.9-6.88-3.76-10.35-5.59-2.04-.8-4.14-1.4-6.3-1.78-5.88-.15-11.75-.47-17.6-.95-5.95-.16-11.89-.16-17.84,0-.88.34-1.79.61-2.74.83-3.45,1.73-6.98,3.28-10.58,4.64-4.33,2.23-8.61,4.53-12.84,6.9-3.44,2.51-7.09,4.65-10.94,6.42-2.27,1.86-4.45,3.81-6.54,5.83-1.85,3.47-3.52,7.04-4.99,10.7-1.33,3.74-2.52,7.55-3.57,11.42-.16,2.58-.56,5.12-1.19,7.61-.16,2.22-.16,4.44,0,6.66,1.48,4.86,3.98,9.1,7.49,12.72,1.04.76,2.15,1.39,3.33,1.9,3.76.94,7.56,1.65,11.42,2.14,2.85.16,5.71.16,8.56,0,1.08-.03,2.11-.26,3.09-.71-5.11-3.61-9.51-7.93-13.2-12.96-5.48-9.53-5.17-18.8.95-27.83,7.29-8.98,16.6-12,27.95-9.04,3.4,1.3,6.49,3.08,9.28,5.35,3.71,3.36,7.51,6.61,11.42,9.75,1.64,1.56,3.18,3.18,4.64,4.88,2.26,2.77,4.4,5.62,6.42,8.56,3.18,6.59,4.57,13.56,4.16,20.93.32,6.26-.67,12.28-2.97,18.08-1.12,2.42-2.15,4.88-3.09,7.37-1.21,2.33-2.47,4.63-3.81,6.9-2.02,2.5-4.28,4.76-6.78,6.78-3.3,2.09-6.71,3.99-10.23,5.71-4.63,1.51-9.23,3.1-13.79,4.76-3.58.91-7.23,1.39-10.94,1.43-6.35.21-12.69.13-19.03-.24-2.4-.62-4.86-1.02-7.37-1.19-4.06-1.15-8.18-2.1-12.37-2.85-1.56-.55-3.11-1.14-4.64-1.78-4-2.26-8.01-4.52-12.01-6.78-2.7-2.07-5.28-4.33-7.73-6.78-3.27-4.21-6.52-8.42-9.75-12.61-2.93-5.23-5.55-10.62-7.85-16.17-1.05-3.62-2-7.27-2.85-10.94-.79-7.53-.79-15.07,0-22.6,1.08-6.24,2.42-12.43,4.04-18.55,2.35-6.57,4.89-13.07,7.61-19.5,2.96-6.29,6.69-12.08,11.18-17.36,4.8-4.89,10-9.37,15.58-13.44,7.12-4.03,14.17-8.15,21.17-12.37,3.44-1.44,6.77-3.1,9.99-4.99,3.74-1.4,7.38-2.99,10.94-4.76,2.8-.92,5.58-1.87,8.32-2.85,3.28-.9,6.61-1.53,9.99-1.9,8.56-.16,17.12-.16,25.69,0,6.32.41,12.67.73,19.03.95,3.67.59,7.32,1.22,10.94,1.9,4.15,1.44,8.27,3.03,12.37,4.76,5.32,2.9,10.63,5.79,15.94,8.68,1.96,1.58,3.94,3.13,5.95,4.64,2.66,2.74,5.32,5.48,7.97,8.21,1.59,2.22,3.17,4.44,4.76,6.66,3.78,6.69,6.39,13.83,7.85,21.41.32,3.14.8,6.23,1.43,9.28.2,14.75.16,29.49-.12,44.24-.85,5.53-1.6,11.08-2.26,16.65-2.05,6.81-3.71,13.7-4.99,20.69-1.19,3.97-2.46,7.94-3.81,11.89-.5.91-.94,1.86-1.31,2.85-1.98,6.67-4.4,13.17-7.25,19.5-3.54,5.36-6.75,10.95-9.63,16.77-1.44,2.47-3.14,4.73-5.11,6.78-2.08,3.92-4.46,7.65-7.14,11.18-1.44,1.62-2.99,3.13-4.64,4.52-4.41,6.28-9.96,11.23-16.65,14.87-1.98,1.5-3.96,3.01-5.95,4.52-5.37,2.92-10.92,5.46-16.65,7.61-3.65.9-7.3,1.78-10.94,2.62-1.19.4-2.38.79-3.57,1.19-3.18.4-6.35.79-9.51,1.19-9.28,1.87-18.55,3.77-27.83,5.71-5.63.82-11.26,1.65-16.89,2.5-10.94.28-21.88.32-32.82.12-1.17-.34-2.36-.66-3.57-.95-4.85.02-9.61-.62-14.27-1.9-3.22-1.04-6.47-1.99-9.75-2.85-2.09-.85-4.15-1.76-6.18-2.74-7.12-4.5-14.41-8.66-21.88-12.49-5.15-3.8-10.23-7.64-15.22-11.54-2.05-1.87-4.07-3.78-6.07-5.71-2.69-3.64-5.54-7.13-8.56-10.47-7.17-9.6-12.24-20.14-15.22-31.63-.24-1.9-.48-3.81-.71-5.71-1.56-5.82-2.91-11.68-4.04-17.6-.76-6.11-1.56-12.22-2.38-18.31-.41-1.14-.65-2.33-.71-3.57-.08.08-.16.16-.24.24-.16-11.97-.16-23.94,0-35.91,1.32-6.98,2.75-13.95,4.28-20.93,1.32-3.74,2.9-7.39,4.76-10.94,2.54-4.29,5.08-8.57,7.61-12.84,1.67-2.72,3.58-5.25,5.71-7.61,1.03-1.74,2.06-3.48,3.09-5.23,1.92-2.16,3.74-4.38,5.47-6.66,3.78-3.58,7.55-7.23,11.3-10.94.94-1.38,1.94-2.73,2.97-4.04.7-1.47,1.5-2.9,2.38-4.28,3.41-4.52,6.82-9.04,10.23-13.56,2.3-2.26,4.64-4.48,7.02-6.66,2.81-1.9,5.58-3.84,8.32-5.83,5-2.34,9.29-5.59,12.84-9.75,3.98-3.34,8.5-5.52,13.56-6.54Z"/>
    <path class="cls-17" d="m149.48,214.3c1.91-.04,3.81,0,5.71.12l1.55,1.55c.16,4.04.16,8.09,0,12.13l-1.78,1.78c-12.84-.7-18.47,5.37-16.89,18.2,5.63-.04,11.26,0,16.89.12l1.78,1.78c.16,3.81.16,7.61,0,11.42l-1.55,1.55c-5.71.12-11.42.16-17.12.12.04,22.99,0,45.98-.12,68.97l-1.78,1.78c-4.2.16-8.4.16-12.61,0l-1.78-1.78c-.12-22.99-.16-45.98-.12-68.97-4.04.04-8.09,0-12.13-.12l-1.78-1.78c-.16-3.73-.16-7.45,0-11.18l1.78-1.78c4.04-.12,8.09-.16,12.13-.12-1.61-20.34,7.66-31.6,27.83-33.77Z"/>
    <path class="cls-16" d="m224.41,218.58c4.6-.04,9.2,0,13.79.12l1.78,1.78c.16,5.39.16,10.78,0,16.17l-1.78,1.78c-4.52.16-9.04.16-13.56,0l-1.78-1.78c-.16-5.47-.16-10.94,0-16.41.56-.52,1.08-1.08,1.55-1.66Z"/>
    <path class="cls-4" d="m1399.83,220.24c3.19-.2,6.24.12,9.16.95,9.24.02,18.08,2.12,26.52,6.3,3.78,3.04,4.85,6.89,3.21,11.54-1.17,2.74-2.95,4.96-5.35,6.66-1.03.67-2.06,1.35-3.09,2.02-5.56,2.74-11.19,5.28-16.89,7.61-5.2,3.04-10.67,5.5-16.41,7.37-1.53.84-3.12,1.56-4.76,2.14-8.17,1.98-16.34,3.96-24.5,5.95-4.55.87-9.15,1.26-13.79,1.19-2.79.24-5.6.68-8.44,1.31-1.54-.11-3.13-.27-4.76-.48-.08.08-.16.16-.24.24-.8-.21-1.59-.44-2.38-.71-4.88.07-9.68-.6-14.39-2.02-5.77-2.45-8.03-6.77-6.78-12.96,1.02-3.16,2.73-5.9,5.11-8.21,6.22-4.87,12.88-9.31,19.98-13.32,3.84-1.68,7.73-3.23,11.65-4.64.14.05.26.13.36.24,8.16-2.22,16.28-4.32,24.38-6.3,7.16-1.71,14.29-3.34,21.41-4.88Z"/>
    <path class="cls-21" d="m606.38,220.48c8.13-.47,16.14.29,24.02,2.26,9.6,2.71,17.09,8.22,22.48,16.53,2.42,4.37,3.69,9.05,3.81,14.03-.51.74-1.1,1.42-1.78,2.02-4.84.12-9.67.16-14.51.12-.41-6.87-3.59-11.98-9.51-15.34-4.86-2.43-10.02-3.77-15.46-4.04-6.23-.52-12.34.11-18.31,1.9-4.25,1.23-7.62,3.65-10.11,7.25-1.6,3.37-2,6.85-1.19,10.47,1.05,1.84,2.44,3.39,4.16,4.64,4.21,2.59,8.73,4.5,13.56,5.71,11.06,2.49,22.01,5.42,32.82,8.8,6.85,2.34,12.75,6.1,17.72,11.3,4.9,6.51,6.57,13.81,4.99,21.88-1.3,7.96-5.23,14.26-11.77,18.91-8.43,5.2-17.63,7.9-27.59,8.09-8.77.52-17.41-.27-25.92-2.38-16.62-4.77-25.89-15.75-27.83-32.94.59-.71,1.22-1.38,1.9-2.02,4.99-.12,9.99-.16,14.98-.12-.07,7.51,3.1,13.18,9.51,17.01,5.5,2.92,11.37,4.51,17.6,4.76,6.91.55,13.73,0,20.45-1.66,9.34-2.43,13.5-8.42,12.49-17.96-.8-2.74-2.42-4.84-4.88-6.3-3.46-2.05-7.11-3.71-10.94-4.99-8.57-2.48-17.22-4.7-25.92-6.66-6.78-1.78-13.2-4.4-19.27-7.85-10.39-6.4-14.39-15.63-12.01-27.71,2.28-10.15,8.19-17.32,17.72-21.52,6.07-2.41,12.33-3.8,18.79-4.16Z"/>
    <path class="cls-22" d="m46.26,221.67c6.08-.08,12.15,0,18.2.24,15.33,36.25,30.71,72.48,46.14,108.69.16.24.16.48,0,.71-.47.83-.98,1.62-1.55,2.38-5.07.32-10.15.32-15.22,0-4.36-10.31-8.72-20.61-13.08-30.92-16.97-.32-33.93-.32-50.9,0-4.36,10.31-8.72,20.61-13.08,30.92-4.99.28-9.99.32-14.98.12-.62-.81-1.22-1.64-1.78-2.5,15.28-36.58,30.7-73.13,46.26-109.65Zm8.8,20.45c.3.02.5.18.59.48,6.12,14.76,12.27,29.5,18.43,44.24-12.53.32-25.05.32-37.58,0,6.32-14.86,12.5-29.76,18.55-44.71Z"/>
    <path class="cls-5" d="m910.35,235.23c9.35-.04,18.71,0,28.07.12,3.58.15,7.07.78,10.47,1.9,3.41.43,6.81.83,10.23,1.19,1.68.4,3.35.88,4.99,1.43,4.13,1.84,8.33,3.51,12.61,4.99,4.12,1.82,7.25,4.72,9.39,8.68,1.95,7.48-.39,13.15-7.02,17.01-6.34,3.09-12.84,5.79-19.5,8.09-1.42.24-2.84.39-4.28.48-1.31.51-2.66.9-4.04,1.19-16.17.39-32.34.47-48.52.24-4.26-.23-8.23-1.42-11.89-3.57-9.35-2.61-17.75-6.97-25.21-13.08-4.49-4.7-5.01-9.82-1.55-15.34,2.21-2.39,4.86-4.1,7.97-5.11,6-1.46,12.03-2.73,18.08-3.81,5.64-1.86,11.43-3.05,17.36-3.57.98-.28,1.93-.56,2.85-.83Z"/>
    <path class="cls-17" d="m207.52,246.88c1.51-.04,3.02,0,4.52.12l1.55,1.55c.16,4.28.16,8.56,0,12.84l-1.55,1.55c-11.94.13-20.46,5.56-25.57,16.29-1.79,3.94-2.9,8.06-3.33,12.37-.08,13.48-.16,26.95-.24,40.43l-1.78,1.78c-4.2.16-8.4.16-12.61,0l-1.78-1.78c-.16-27.35-.16-54.7,0-82.06l1.78-1.78c4.2-.16,8.4-.16,12.61,0l1.78,1.78c.08,3.65.16,7.29.24,10.94,6.08-8.21,14.2-12.89,24.38-14.03Z"/>
    <path class="cls-22" d="m290.29,246.88c12.72-.98,23.9,2.63,33.54,10.82,5.05,4.9,8.62,10.73,10.7,17.48-.46.88-1.02,1.72-1.66,2.5-5,.2-9.99.16-14.98-.12-3.84-9.89-11.05-15.04-21.64-15.46-13.18.15-22.02,6.41-26.52,18.79-2.49,8.69-1.77,17.09,2.14,25.21,4.64,8.17,11.66,12.73,21.05,13.68,9.8,1.12,17.37-2.4,22.71-10.58.91-1.51,1.66-3.09,2.26-4.76,4.99-.28,9.99-.32,14.98-.12.52.67,1.03,1.35,1.55,2.02-2.74,10.12-8.65,17.85-17.72,23.19-10.47,5.42-21.49,6.93-33.06,4.52-15.24-4.14-25.19-13.78-29.85-28.9-2.09-8.43-2.33-16.91-.71-25.45,2.77-12.28,9.55-21.59,20.34-27.95,5.33-2.77,10.96-4.4,16.89-4.88Z"/>
    <path class="cls-15" d="m379.72,246.88c10.21-.92,19.33,1.74,27.35,7.97.91.91,1.82,1.82,2.74,2.74.08-2.54.16-5.07.24-7.61l1.78-1.78c4.12-.16,8.25-.16,12.37,0l1.78,1.78c.16,27.35.16,54.7,0,82.06l-1.78,1.78c-4.12.16-8.25.16-12.37,0l-1.78-1.78c-.08-2.46-.16-4.92-.24-7.37-7.53,7.25-16.57,10.74-27.11,10.47-18.3-.39-31.07-8.95-38.29-25.69-3.73-10.71-4.21-21.57-1.43-32.58,5.69-18.08,17.94-28.07,36.75-29.97Zm1.19,15.22c16.35-.69,26.06,7,29.14,23.07,1.18,7.66.07,14.95-3.33,21.88-6.29,10.29-15.44,14.46-27.47,12.49-7.24-1.3-12.91-4.99-17.01-11.06-4.34-7.39-5.77-15.31-4.28-23.78,2.54-12.81,10.19-20.34,22.95-22.6Z"/>
    <path class="cls-14" d="m480.09,246.88c16.85-1.24,28.94,5.66,36.27,20.69,1.91,4.73,2.94,9.64,3.09,14.75.16,16.57.16,33.14,0,49.71l-1.78,1.78c-4.2.16-8.4.16-12.61,0l-1.78-1.78c-.08-16.81-.16-33.61-.24-50.42-1.05-10.95-6.95-17.41-17.72-19.38-11.1-.98-19.07,3.51-23.9,13.44-.7,1.85-1.17,3.75-1.43,5.71-.08,16.89-.16,33.77-.24,50.66l-1.78,1.78c-4.2.16-8.4.16-12.61,0l-1.78-1.78c-.16-27.35-.16-54.7,0-82.06l1.78-1.78c4.2-.16,8.4-.16,12.61,0l1.78,1.78c.08,2.38.16,4.76.24,7.14,5.5-5.78,12.2-9.19,20.1-10.23Z"/>
    <path class="cls-14" d="m801.41,246.88c16.85-1.24,28.94,5.66,36.27,20.69,1.91,4.73,2.94,9.64,3.09,14.75.16,16.57.16,33.14,0,49.71l-1.78,1.78c-4.2.16-8.4.16-12.61,0l-1.78-1.78c-.08-16.81-.16-33.61-.24-50.42-1.05-10.95-6.95-17.41-17.72-19.38-11.1-.98-19.07,3.51-23.9,13.44-.7,1.85-1.17,3.75-1.43,5.71-.08,16.89-.16,33.77-.24,50.66l-1.78,1.78c-4.2.16-8.4.16-12.61,0l-1.78-1.78c-.16-27.35-.16-54.7,0-82.06l1.78-1.78c4.2-.16,8.4-.16,12.61,0l1.78,1.78c.08,2.38.16,4.76.24,7.14,5.5-5.78,12.2-9.19,20.1-10.23Z"/>
    <path class="cls-16" d="m225.12,248.07c4.2-.04,8.41,0,12.61.12l1.78,1.78c.16,27.35.16,54.7,0,82.06l-1.78,1.78c-4.2.16-8.4.16-12.61,0l-1.78-1.78c-.16-27.35-.16-54.7,0-82.06.64-.6,1.24-1.24,1.78-1.9Z"/>
    <path class="cls-13" d="m673.22,248.07c4.12-.04,8.25,0,12.37.12l1.78,1.78c.08,16.57.16,33.14.24,49.71.54,9.57,5.25,16.03,14.15,19.38,10.5,2.55,19.03-.42,25.57-8.92,2.19-3.48,3.38-7.29,3.57-11.42.08-16.25.16-32.51.24-48.76l1.78-1.78c4.12-.16,8.25-.16,12.37,0l1.78,1.78c.16,27.35.16,54.7,0,82.06l-1.78,1.78c-4.12.16-8.25.16-12.37,0l-1.78-1.78c-.08-2.46-.16-4.92-.24-7.37-8.58,8.96-19.01,12.26-31.28,9.87-12.22-2.38-20.74-9.32-25.57-20.81-1.4-3.69-2.27-7.49-2.62-11.42-.16-17.44-.16-34.88,0-52.33.64-.6,1.24-1.24,1.78-1.9Z"/>
    <path class="cls-2" d="m1304.93,325.37c7.03.23,14,.9,20.93,2.02,1.25.34,2.44.81,3.57,1.43,1.8.28,3.54.76,5.23,1.43,12.84,7.05,25.68,14.11,38.53,21.17,3.07,2.28,5.65,5.01,7.73,8.21,6.57,6.52,11.37,14.17,14.39,22.95.35,5.49-2.03,9.29-7.14,11.42-2.93.75-5.86.75-8.8,0-4.87-1.44-9.7-2.95-14.51-4.52-2.88-.64-5.73-1.35-8.56-2.14-3.55-1.34-7.12-2.61-10.7-3.81-6.81-3.72-13.63-7.45-20.45-11.18-3.92-2.59-7.56-5.53-10.94-8.8-4.9-2.63-8.82-6.32-11.77-11.06-3-2.84-5.46-6.09-7.37-9.75-2.39-6.46-.77-11.66,4.88-15.58,1.65-.71,3.32-1.3,4.99-1.78Z"/>
    <path class="cls-1" d="m984.08,352.96c6.83-1.21,11.39,1.41,13.68,7.85.3,2.21.06,4.35-.71,6.42-2.81,4.99-5.99,9.75-9.51,14.27-.72.82-1.56,1.49-2.5,2.02-.86,1.1-1.81,2.13-2.85,3.09-9.55,6.32-19.15,12.59-28.78,18.79-1.53.92-3.11,1.71-4.76,2.38-3.93.65-7.82,1.52-11.65,2.62-5.38.94-10.76,1.02-16.17.24-4.96-1.94-6.98-5.55-6.07-10.82.77-1.77,1.72-3.44,2.85-4.99,3.19-3.27,6.44-6.44,9.75-9.51,1.65-2.09,3.43-4.07,5.35-5.95,2.36-1.81,4.58-3.79,6.66-5.95,5.11-3.24,10.18-6.53,15.22-9.87,2.79-1.61,5.73-2.88,8.8-3.81,2.44-1.06,4.82-2.25,7.14-3.57.98-.24,1.93-.56,2.85-.95,3.66-.5,7.23-1.25,10.7-2.26Z"/>
    <path class="cls-8" d="m391.37,353.91c2.22-.04,4.44,0,6.66.12l.59.59c.16,2.46.16,4.92,0,7.37l-.83.83c-2.06.16-4.12.16-6.18,0l-.59-.59c-.16-2.62-.16-5.23,0-7.85.17-.13.29-.29.36-.48Z"/>
    <path class="cls-8" d="m716.03,353.91c2.22-.04,4.44,0,6.66.12l.59.59c.16,2.46.16,4.92,0,7.37l-.83.83c-2.06.16-4.12.16-6.18,0l-.59-.59c-.16-2.62-.16-5.23,0-7.85.17-.13.29-.29.36-.48Z"/>
    <path class="cls-23" d="m239.63,354.63c8.39-.55,15.33,2.3,20.81,8.56,1.6,2.09,2.83,4.39,3.69,6.9-.08.52-.32.96-.71,1.31-2.22.2-4.44.16-6.66-.12-2.74-6.23-7.54-9.32-14.39-9.28-9.26.03-14.97,4.55-17.12,13.56-1.1,5.77-.15,11.16,2.85,16.17,2.56,3.52,6.01,5.62,10.35,6.3,6.66,1.4,12.17-.46,16.53-5.59.65-1.07,1.25-2.18,1.78-3.33,2.22-.28,4.44-.32,6.66-.12.82.63.94,1.38.36,2.26-3.52,8.11-9.66,12.83-18.43,14.15-13.36,1.37-22.28-4.22-26.76-16.77-2.15-8.05-1.27-15.74,2.62-23.07,4.38-6.61,10.52-10.26,18.43-10.94Z"/>
    <path class="cls-20" d="m585.69,354.63c5.27-.34,10.27.65,14.98,2.97,4.58,2.7,6.92,6.71,7.02,12.01l-.59.59c-2.22.12-4.44.16-6.66.12-.33-3.7-2.23-6.2-5.71-7.49-4.68-1.43-9.35-1.43-14.03,0-3.96,1.68-5.19,4.5-3.69,8.44,1.13,1.1,2.44,1.93,3.92,2.5,5.94,1.7,11.88,3.37,17.84,4.99,9.52,3.38,12.42,9.77,8.68,19.15-2,3.04-4.74,5.14-8.21,6.3-1.78.58-3.61.98-5.47,1.19-4.31.29-8.59.1-12.84-.59-8.23-1.8-12.63-6.88-13.2-15.22l.59-.59c2.22-.12,4.44-.16,6.66-.12.18,3.95,2.08,6.68,5.71,8.21,5,1.74,10.07,1.98,15.22.71,4.85-1.33,6.55-4.39,5.11-9.16-2.26-2.1-4.92-3.49-7.97-4.16-5.16-1.13-10.23-2.56-15.22-4.28-3.38-1.32-6.04-3.51-7.97-6.54-2.3-9.94,1.55-16.09,11.54-18.43,1.47-.18,2.89-.38,4.28-.59Z"/>
    <path class="cls-18" d="m282.68,366.52c9-1.22,15.78,2.03,20.34,9.75,2.76,6.7,2.68,13.35-.24,19.98-4.63,7.45-11.33,10.5-20.1,9.16-7.97-1.55-12.93-6.27-14.87-14.15-1.73-7.95.21-14.8,5.83-20.57,2.7-2.1,5.72-3.49,9.04-4.16Zm2.38,6.66c8.19.34,12.39,4.62,12.61,12.84-.07,7.72-3.91,12-11.54,12.84-6.09-.39-9.81-3.56-11.18-9.51-.98-4.79.05-9.07,3.09-12.84,1.98-1.92,4.32-3.03,7.02-3.33Z"/>
    <path class="cls-12" d="m325.25,366.52c8.19-1.12,14.09,1.97,17.72,9.28.58,1.62.98,3.28,1.19,4.99.16,7.85.16,15.7,0,23.55-.2.2-.4.4-.59.59-1.98.16-3.96.16-5.95,0-.2-.2-.4-.4-.59-.59,0-8.09-.17-16.18-.48-24.26-1.35-4.38-4.32-6.68-8.92-6.9-4.61.3-7.74,2.6-9.39,6.9-.31,8.07-.47,16.16-.48,24.26-.2.2-.4.4-.59.59-1.98.16-3.96.16-5.95,0-.2-.2-.4-.4-.59-.59-.16-12.21-.16-24.42,0-36.63.2-.2.4-.4.59-.59,1.98-.16,3.96-.16,5.95,0,.2.2.4.4.59.59.08,1.03.16,2.06.24,3.09,2.02-2.14,4.43-3.56,7.25-4.28Z"/>
    <path class="cls-24" d="m364.73,366.52c7.37-1.05,13.51,1.17,18.43,6.66,1.33,1.76,2.33,3.7,2.97,5.83-.19.39-.43.74-.71,1.07-2.3.32-4.6.32-6.9,0-2.33-5.49-6.46-7.67-12.37-6.54-5.61,1.57-8.74,5.25-9.39,11.06-.5,5.94,1.84,10.34,7.02,13.2,5.71,2.28,10.35.98,13.91-3.92.34-.61.62-1.24.83-1.9,2.3-.32,4.6-.32,6.9,0,.79.6.91,1.31.36,2.14-2.6,6.41-7.32,10.17-14.15,11.3-9.65,1.26-16.58-2.42-20.81-11.06-2.39-6.72-1.91-13.22,1.43-19.5,2.99-4.53,7.16-7.3,12.49-8.32Z"/>
    <path class="cls-10" d="m419.2,366.52c7.75-1.11,14.05,1.35,18.91,7.37,3.13,4.7,4.04,9.73,2.74,15.1-9.75.12-19.5.16-29.25.12,1.35,6.17,5.19,9.42,11.54,9.75,4.53-.06,7.82-2.09,9.87-6.07,2.22-.16,4.44-.16,6.66,0,.79.73.91,1.57.36,2.5-4.33,8.13-11.1,11.5-20.34,10.11-9.62-2.01-14.89-7.92-15.82-17.72-.52-6.68,1.58-12.34,6.3-17.01,2.7-2.1,5.72-3.49,9.04-4.16Zm2.38,6.66c6.45-.15,10.49,2.86,12.13,9.04-7.38.08-14.75,0-22.12-.24,1.43-5.14,4.76-8.08,9.99-8.8Z"/>
    <path class="cls-11" d="m463.2,366.52c1.27-.04,2.54,0,3.81.12l.36.36c.16,1.98.16,3.96,0,5.95l-.59.59c-7.38.64-11.62,4.64-12.72,12.01-.08,6.26-.16,12.53-.24,18.79l-.59.59c-1.98.16-3.96.16-5.95,0l-.59-.59c-.16-12.21-.16-24.42,0-36.63l.59-.59c1.98-.16,3.96-.16,5.95,0l.59.59c.08,1.51.16,3.01.24,4.52,2.4-2.96,5.45-4.86,9.16-5.71Z"/>
    <path class="cls-9" d="m483.89,366.52c2.22-.04,4.44,0,6.66.12,3.21.48,5.95,1.86,8.21,4.16.08-1.03.16-2.06.24-3.09l.59-.59c1.98-.16,3.96-.16,5.95,0l.59.59c.16,12.77.16,25.53,0,38.29-1.17,7.67-5.57,12.23-13.2,13.68-4.79.65-9.47.18-14.03-1.43-4.16-1.91-6.94-5.04-8.32-9.39.08-.52.32-.96.71-1.31,2.3-.2,4.6-.16,6.9.12,1.14,2.95,3.28,4.65,6.42,5.11,3.42.65,6.75.33,9.99-.95,2.5-1.54,3.89-3.8,4.16-6.78.16-1.51.16-3.01,0-4.52-3.25,3.21-7.17,4.72-11.77,4.52-8.29-.17-14.04-4.06-17.24-11.65-2.05-6.31-1.58-12.41,1.43-18.31,3.01-4.71,7.25-7.57,12.72-8.56Zm2.62,6.66c6.78-.07,10.95,3.18,12.49,9.75.93,5.11-.45,9.43-4.16,12.96-3.18,2.22-6.67,2.86-10.47,1.9-5.1-1.68-7.92-5.21-8.44-10.58-.48-7.79,3.05-12.47,10.58-14.03Z"/>
    <path class="cls-10" d="m527.18,366.52c7.75-1.11,14.05,1.35,18.91,7.37,3.13,4.7,4.04,9.73,2.74,15.1-9.75.12-19.5.16-29.25.12,1.35,6.17,5.19,9.42,11.54,9.75,4.53-.06,7.82-2.09,9.87-6.07,2.22-.16,4.44-.16,6.66,0,.79.73.91,1.57.36,2.5-4.33,8.13-11.1,11.5-20.34,10.11-9.62-2.01-14.89-7.92-15.82-17.72-.52-6.68,1.58-12.34,6.3-17.01,2.7-2.1,5.72-3.49,9.04-4.16Zm2.38,6.66c6.45-.15,10.49,2.86,12.13,9.04-7.38.08-14.75,0-22.12-.24,1.43-5.15,4.76-8.08,9.99-8.8Z"/>
    <path class="cls-10" d="m627.79,366.52c7.75-1.11,14.05,1.35,18.91,7.37,3.13,4.7,4.04,9.73,2.74,15.1-9.75.12-19.5.16-29.25.12,1.35,6.17,5.19,9.42,11.54,9.75,4.53-.06,7.82-2.09,9.87-6.07,2.22-.16,4.44-.16,6.66,0,.79.73.91,1.57.36,2.5-4.33,8.13-11.1,11.5-20.34,10.11-9.62-2.01-14.89-7.92-15.82-17.72-.52-6.68,1.58-12.34,6.3-17.01,2.7-2.1,5.72-3.49,9.04-4.16Zm2.38,6.66c6.45-.15,10.49,2.86,12.13,9.04-7.38.08-14.75,0-22.12-.24,1.43-5.14,4.76-8.08,9.99-8.8Z"/>
    <path class="cls-19" d="m671.79,366.52c1.27-.04,2.54,0,3.81.12.36.35.56.79.59,1.31.11-.34.31-.62.59-.83,2.3-.12,4.6-.16,6.9-.12,3.46,9.53,6.99,19.05,10.58,28.54,3.51-9.44,7.03-18.88,10.58-28.3,2.3-.28,4.6-.32,6.9-.12.77.65.89,1.41.36,2.26-4.64,11.81-9.28,23.63-13.91,35.44-2.62.32-5.23.32-7.85,0-4.72-11.97-9.44-23.94-14.15-35.91-.08,1.35-.16,2.69-.24,4.04l-.59.59c-7.38.64-11.62,4.64-12.72,12.01-.08,6.26-.16,12.53-.24,18.79l-.59.59c-1.98.16-3.96.16-5.95,0l-.59-.59c-.16-12.21-.16-24.42,0-36.63l.59-.59c1.98-.16,3.96-.16,5.95,0l.59.59c.08,1.51.16,3.01.24,4.52,2.4-2.96,5.45-4.86,9.16-5.71Z"/>
    <path class="cls-24" d="m743.86,366.52c7.37-1.05,13.51,1.17,18.43,6.66,1.33,1.76,2.33,3.7,2.97,5.83-.19.39-.43.74-.71,1.07-2.3.32-4.6.32-6.9,0-2.33-5.49-6.46-7.67-12.37-6.54-5.61,1.57-8.74,5.25-9.39,11.06-.5,5.94,1.84,10.34,7.02,13.2,5.71,2.28,10.35.98,13.91-3.92.34-.61.62-1.24.83-1.9,2.3-.32,4.6-.32,6.9,0,.79.6.91,1.31.36,2.14-2.6,6.41-7.32,10.17-14.15,11.3-9.65,1.26-16.58-2.42-20.81-11.06-2.39-6.72-1.91-13.22,1.43-19.5,2.99-4.53,7.16-7.3,12.49-8.32Z"/>
    <path class="cls-10" d="m783.58,366.52c7.75-1.11,14.05,1.35,18.91,7.37,3.13,4.7,4.04,9.73,2.74,15.1-9.75.12-19.5.16-29.25.12,1.35,6.17,5.19,9.42,11.54,9.75,4.53-.06,7.82-2.09,9.87-6.07,2.22-.16,4.44-.16,6.66,0,.79.73.91,1.57.36,2.5-4.33,8.13-11.1,11.5-20.34,10.11-9.62-2.01-14.89-7.92-15.82-17.72-.52-6.68,1.58-12.34,6.3-17.01,2.7-2.1,5.72-3.49,9.04-4.16Zm2.38,6.66c6.45-.15,10.49,2.86,12.13,9.04-7.38.08-14.75,0-22.12-.24,1.43-5.14,4.76-8.08,9.99-8.8Z"/>
    <path class="cls-24" d="m820.44,366.52c2.54-.04,5.08,0,7.61.12,4.84.57,8.37,2.99,10.58,7.25.58,1.3.82,2.64.71,4.04l-.59.59c-2.22.12-4.44.16-6.66.12-.18-3-1.77-4.78-4.76-5.35-3.2-.68-6.3-.36-9.28.95-1.87,1.85-1.87,3.67,0,5.47.64.32,1.27.64,1.9.95,4.7,1.18,9.38,2.45,14.03,3.81,5.17,2.13,7.35,5.98,6.54,11.54-.68,3.54-2.63,6.11-5.83,7.73-4.29,1.69-8.72,2.25-13.32,1.66-5.92-.69-10.08-3.75-12.49-9.16-.24-.98-.44-1.97-.59-2.97.05-.57.29-1.05.71-1.43,2.3-.12,4.6-.16,6.9-.12.07,3.82,1.97,6.16,5.71,7.02,3.46.66,6.79.26,9.99-1.19,2.12-1.92,2.2-3.9.24-5.95-1.21-.68-2.48-1.24-3.81-1.66-4.02-.82-7.98-1.85-11.89-3.09-5.22-1.88-7.48-5.57-6.78-11.06.95-4.68,3.77-7.58,8.44-8.68.92-.15,1.79-.35,2.62-.59Z"/>
    <path class="cls-18" d="m391.85,366.99c1.98-.04,3.96,0,5.95.12l.59.59c.16,12.21.16,24.42,0,36.63l-.59.59c-1.98.16-3.96.16-5.95,0l-.59-.59c-.16-12.21-.16-24.42,0-36.63.25-.21.45-.44.59-.71Z"/>
    <path class="cls-19" d="m716.5,366.99c1.98-.04,3.96,0,5.95.12l.59.59c.16,12.21.16,24.42,0,36.63l-.59.59c-1.98.16-3.96.16-5.95,0l-.59-.59c-.16-12.21-.16-24.42,0-36.63.25-.21.45-.44.59-.71Z"/>
    <path class="cls-1" d="m1237.38,395.77c3.71.11,7.12,1.18,10.23,3.21,4.73,3.15,9.33,6.48,13.79,9.99,3.22,3.14,6.35,6.35,9.39,9.63,9.13,14.69,18.09,29.52,26.88,44.48.85,1.84,1.57,3.74,2.14,5.71.66,4.95,1.53,9.87,2.62,14.75.25,2.3.49,4.6.71,6.9.08,2.62.11,5.15.12,7.61-.19,1.35-.42,2.7-.71,4.04.13,6.97-3.2,11.29-9.99,12.96-3.52.37-6.77-.43-9.75-2.38-3.27-2.79-6.4-5.77-9.39-8.92-1.18-1.49-2.52-2.84-4.04-4.04-.79-1.11-1.59-2.22-2.38-3.33-3.73-3.09-7.14-6.5-10.23-10.23-1.72-2.59-3.7-4.97-5.95-7.14-5.04-8.17-9.95-16.42-14.75-24.74-.84-1.79-1.63-3.62-2.38-5.47-1.31-4.95-3.21-9.63-5.71-14.03-.23-.99-.54-1.95-.95-2.85-.68-4.72-1.55-9.4-2.62-14.03-1.33-5.45-.78-10.69,1.66-15.7,2.87-3.79,6.64-5.93,11.3-6.42Z"/>
    <path class="cls-1" d="m1067.56,409.57c9.94.63,14.7,5.98,14.27,16.05.18.78.34,1.57.48,2.38-.19,4-.39,8-.59,12.01-.08,1.2-.24,2.39-.48,3.57-.89,3.41-1.76,6.81-2.62,10.23-6.35,14.05-12.77,28.08-19.27,42.1-1.92,3.03-4.34,5.61-7.25,7.73-6.19,7.22-13.56,12.92-22.12,17.12-7.49,1.76-12.49-1.01-14.98-8.32.03-.18.11-.34.24-.48-.59-2.24-.63-4.5-.12-6.78,1.89-8.77,3.71-17.57,5.47-26.4,1.37-4.26,2.64-8.54,3.81-12.84,2.92-6.23,5.77-12.5,8.56-18.79,1.17-1.94,2.28-3.93,3.33-5.95,2.15-2.71,4.21-5.48,6.18-8.32,1.02-2.04,2.12-4.02,3.33-5.95,3.83-3.75,7.6-7.6,11.3-11.54,1-.54,1.87-1.26,2.62-2.14,2.4-1.71,5.02-2.94,7.85-3.69Z"/>
    <path class="cls-1" d="m1156.28,427.17c4.04.06,7.41,1.57,10.11,4.52,1.57,1.92,2.91,3.98,4.04,6.18,2.44,4.5,4.66,9.1,6.66,13.79.55,1.71.94,3.46,1.19,5.23.96,2.02,1.52,4.16,1.66,6.42.94,13.59,1.9,27.15,2.85,40.67.68,5.58-.19,10.89-2.62,15.94-1.91,8.92-5.48,17.09-10.7,24.5-5.12,5.42-10.63,5.86-16.53,1.31-1.9-1.93-3.28-4.19-4.16-6.78-1.02-3.13-1.89-6.3-2.62-9.51-1.08-2.17-1.72-4.47-1.9-6.9-1.3-3.1-2.41-6.27-3.33-9.51-.59-3.13-1.3-6.22-2.14-9.28-.34-1.57-.58-3.16-.71-4.76-.4-5.92-.8-11.79-1.19-17.6-.38-5.6-.06-11.15.95-16.65.2-3.29.35-6.46.48-9.51.21-1.19.45-2.38.71-3.57,1.54-4.03,2.81-8.16,3.81-12.37,1.12-3.44,2.91-6.45,5.35-9.04,2.39-1.88,5.09-2.91,8.09-3.09Z"/>
  </g>
</svg>