<?xml version="1.0" encoding="UTF-8"?>
<svg id="Layer_2" data-name="Layer 2" xmlns="http://www.w3.org/2000/svg" viewBox="0 0 1329.27 366.89">
  <defs>
    <style>
      .cls-1 {
        letter-spacing: .02em;
      }

      .cls-2 {
        fill: #1e2229;
        font-family: Modak, Modak;
        font-size: 68px;
      }

      .cls-3 {
        letter-spacing: -.05em;
      }

      .cls-4 {
        fill: #1f2229;
        font-family: Poppins-Medium, Poppins;
        font-size: 164px;
        font-weight: 500;
      }

      .cls-5 {
        letter-spacing: .02em;
      }

      .cls-6 {
        letter-spacing: 0em;
      }

      .cls-7 {
        fill: #f2d710;
      }

      .cls-7, .cls-8, .cls-9, .cls-10 {
        fill-rule: evenodd;
      }

      .cls-8 {
        fill: #f2d717;
      }

      .cls-9 {
        fill: #f2d715;
      }

      .cls-10 {
        fill: #f2d713;
      }

      .cls-11 {
        letter-spacing: 0em;
      }

      .cls-12 {
        letter-spacing: 0em;
      }

      .cls-13 {
        letter-spacing: 0em;
      }
    </style>
  </defs>
  <g id="Layer_1-2" data-name="Layer 1">
    <g id="g8">
      <path id="path6" class="cls-10" d="m1129.26.06c5.01-.17,10.01,0,15,.5,4.92,2.65,7.75,6.81,8.5,12.5,2.37,20.58,3.04,41.24,2,62-1.38,13.1-8.54,18.6-21.5,16.5-2.72-1.6-4.89-3.76-6.5-6.5.21-20.6-.96-41.1-3.5-61.5-.25-8.56,1.75-16.4,6-23.5Z"/>
    </g>
    <g id="g12">
      <path id="path10" class="cls-8" d="m1254.26,49.06c4.34-.65,8.17.35,11.5,3,.91,5.68-.09,11.02-3,16-5.01,8.31-11.35,15.31-19,21-3.86,5.85-7.7,11.69-11.5,17.5-9.22,7.37-15.89,5.7-20-5,.31-4.73,1.47-9.23,3.5-13.5,8.32-13.33,18.49-25.16,30.5-35.5,2.66-1.48,5.32-2.65,8-3.5Z"/>
    </g>
    <g id="g32">
      <path id="path30" class="cls-10" d="m1014.26,67.06c6.39-.07,12.39,1.43,18,4.5,3.97,4.97,8.3,9.63,13,14,8.36,5.85,17.03,11.18,26,16,3.2,2.87,6.04,6.03,8.5,9.5.53,6.64-2.63,9.97-9.5,10-5.06-.51-10.06-1.34-15-2.5-19.15-8.82-34.98-21.65-47.5-38.5-.67-2.67-.67-5.33,0-8,2.35-1.53,4.52-3.2,6.5-5Z"/>
    </g>
    <g id="g88">
      <path id="path86" class="cls-7" d="m1133.26,120.06c11.05.63,22.05,1.79,33,3.5,4.64,2.61,9.64,4.28,15,5,9.49,11.82,17.32,24.65,23.5,38.5,4.3,12.99,5.97,26.32,5,40-3.4,7.68-6.9,15.35-10.5,23-4.52,4.68-8.85,9.52-13,14.5-3.53-.13-5.53,1.53-6,5-8.53,3.31-17.36,4.81-26.5,4.5-9.84-.7-19.67-1.53-29.5-2.5-6-1.5-11.67-3.83-17-7-4.19-5.19-8.69-10.02-13.5-14.5-7.23-12.02-10.56-25.02-10-39,2.62-16.78,7.62-32.78,15-48,9.62-10.84,21.12-18.51,34.5-23Z"/>
    </g>
    <g id="g100">
      <path id="path98" class="cls-8" d="m1310.26,182.06c5.07.35,10.07,1.18,15,2.5,3.63,3.05,4.8,6.88,3.5,11.5-.73,3.64-2.56,6.47-5.5,8.5-22.6,2.4-45.27,3.4-68,3-5.15-1.92-10.48-2.92-16-3-5.76-6.09-5.1-11.42,2-16,23.17-1.7,46.17-3.87,69-6.5Z"/>
    </g>
    <g id="g104">
      <path id="path102" class="cls-8" d="m1044.26,184.06c6.34-.17,12.68,0,19,.5,8.9,4.9,9.23,10.57,1,17-4.21,2.27-8.55,4.27-13,6-16.31,1.4-32.65,2.07-49,2-4.6-1.06-9.27-1.73-14-2-8.31-6.39-7.98-12.05,1-17,16.02-1.13,32.02-2.46,48-4,2.69-.16,5.02-.99,7-2.5Z"/>
    </g>
    <g id="g108">
      <path id="path106" class="cls-10" d="m1217.26,258.06c2.43.02,4.76.52,7,1.5,8.88,4.11,16.22,10.11,22,18,11.97,7.65,23.97,15.32,36,23,3.97,4.15,7.8,8.32,11.5,12.5,1.37,10.27-3.13,14.11-13.5,11.5-5.77-1.39-11.43-3.05-17-5-9.33-6.67-18.67-13.33-28-20-5.17-6.5-11-12.33-17.5-17.5-2-3.33-4-6.67-6-10-.67-2.33-.67-4.67,0-7,1.67-2.5,3.5-4.83,5.5-7Z"/>
    </g>
    <g id="g128">
      <path id="path126" class="cls-8" d="m1067.26,268.06c9.32-.19,12.82,4.14,10.5,13-8.74,12.74-18.24,24.91-28.5,36.5-3.85,3.38-8.18,4.22-13,2.5-2.39-2.7-3.39-5.86-3-9.5.88-7.98,3.71-15.15,8.5-21.5,4.83-5.5,9.67-11,14.5-16.5,3.56-1.96,7.23-3.46,11-4.5Z"/>
    </g>
    <g id="g188">
      <path id="path186" class="cls-9" d="m1140.26,278.06c10.83-1.5,17,3.16,18.5,14,.33,9,.67,18,1,27,2.48,10.85,4.31,21.85,5.5,33-1.14,5.12-3.48,9.62-7,13.5-4.94,1.33-9.94,1.66-15,1-3.54-1.91-6.04-4.74-7.5-8.5-.57-9.11-1.91-18.11-4-27-1.88-14.66-1.88-29.33,0-44,1.31-2.64,2.98-4.97,5-7,1.3-.59,2.47-1.25,3.5-2Z"/>
    </g>
    <text class="cls-4" transform="translate(0 193.15)"><tspan x="0" y="0">African Sun</tspan></text>
    <text class="cls-2" transform="translate(245.48 279.14)"><tspan class="cls-6" x="0" y="0">M</tspan><tspan class="cls-13" x="48.94" y="0">a</tspan><tspan x="86.13" y="0">ke </tspan><tspan class="cls-5" x="177.3" y="0">e</tspan><tspan class="cls-6" x="216.05" y="0">v</tspan><tspan class="cls-13" x="251.28" y="0">e</tspan><tspan class="cls-1" x="289.2" y="0">r</tspan><tspan x="322.37" y="0">y </tspan><tspan class="cls-12" x="374.63" y="0">d</tspan><tspan x="413.38" y="0">ay </tspan><tspan class="cls-11" x="502.5" y="0">e</tspan><tspan class="cls-6" x="539.92" y="0">a</tspan><tspan class="cls-12" x="577.27" y="0">s</tspan><tspan x="612.56" y="0">i</tspan><tspan class="cls-13" x="632.85" y="0">e</tspan><tspan class="cls-3" x="670.77" y="0">r</tspan></text>
  </g>
</svg>