<?xml version="1.0" encoding="UTF-8"?>
<svg id="Layer_2" data-name="Layer 2" xmlns="http://www.w3.org/2000/svg" viewBox="0 0 68.17 80">
  <defs>
    <style>
      .cls-1 {
        fill: #f9ba2d;
      }

      .cls-2 {
        fill: #1f2229;
      }
    </style>
  </defs>
  <g id="Layer_1-2" data-name="Layer 1">
    <g>
      <path class="cls-2" d="m26.41,65.14c1.34,0,2.59.36,3.68.98-.11-.71-.18-1.44-.18-2.18,0-.55.04-1.08.1-1.61H4.44c-.3,0-.54-.24-.54-.54v-2.81c0-.3.24-.54.54-.54h26.64c.64-1.45,1.52-2.76,2.6-3.9H4.44c-.3,0-.54-.24-.54-.54v-2.81c0-.3.24-.54.54-.54h36.03c1-.23,2.04-.36,3.11-.36,2.73,0,5.28.81,7.41,2.2V15.58L35.4,0H2.86C1.28,0,0,1.28,0,2.86v60.5c0,1.58,1.28,2.86,2.86,2.86h19.71c1.12-.68,2.43-1.08,3.84-1.08ZM3.9,4.44c0-.3.24-.54.54-.54h26.53c.3,0,.54.24.54.54v2.81c0,.3-.24.54-.54.54H4.44c-.3,0-.54-.24-.54-.54v-2.81Zm0,7.79c0-.3.24-.54.54-.54h26.53c.3,0,.54.24.54.54v2.81c0,.3-.24.54-.54.54H4.44c-.3,0-.54-.24-.54-.54v-2.81Zm0,7.79c0-.3.24-.54.54-.54h42.11c.3,0,.54.24.54.54v2.81c0,.3-.24.54-.54.54H4.44c-.3,0-.54-.24-.54-.54v-2.81Zm0,7.79c0-.3.24-.54.54-.54h42.11c.3,0,.54.24.54.54v2.81c0,.3-.24.54-.54.54H4.44c-.3,0-.54-.24-.54-.54v-2.81Zm0,7.79c0-.3.24-.54.54-.54h42.11c.3,0,.54.24.54.54v2.81c0,.3-.24.54-.54.54H4.44c-.3,0-.54-.24-.54-.54v-2.81Zm0,7.79c0-.3.24-.54.54-.54h42.11c.3,0,.54.24.54.54v2.81c0,.3-.24.54-.54.54H4.44c-.3,0-.54-.24-.54-.54v-2.81Z"/>
      <g>
        <path class="cls-1" d="m38.26,15.58h12.72L35.4,0v12.72c0,1.58,1.28,2.86,2.86,2.86Z"/>
        <path class="cls-1" d="m60.73,65.14c-1.34,0-2.59.36-3.68.98.11-.71.18-1.44.18-2.18,0-7.53-6.13-13.66-13.66-13.66s-13.66,6.13-13.66,13.66c0,.74.06,1.47.18,2.18-1.09-.62-2.34-.98-3.68-.98-4.1,0-7.43,3.33-7.43,7.43s3.33,7.43,7.43,7.43c.05,0,.1,0,.15,0h0s34.02,0,34.02,0h0c.05,0,.1,0,.15,0,4.1,0,7.43-3.33,7.43-7.43s-3.33-7.43-7.43-7.43Z"/>
      </g>
    </g>
  </g>
</svg>