<?xml version="1.0" encoding="UTF-8"?>
<svg id="Layer_2" data-name="Layer 2" xmlns="http://www.w3.org/2000/svg" viewBox="0 0 114.72 114.72">
  <defs>
    <style>
      .cls-1 {
        fill: #f9ba2d;
      }

      .cls-2 {
        fill: #2e3369;
      }
    </style>
  </defs>
  <g id="_Layer_" data-name="&amp;lt;Layer&amp;gt;">
    <g>
      <g>
        <path class="cls-2" d="m74.51,47.54h-4.39v-9.31c0-7.02-5.73-12.74-12.76-12.74s-12.76,5.71-12.76,12.74v9.31h-4.39v-9.31c0-9.44,7.69-17.12,17.15-17.12s17.15,7.68,17.15,17.12v9.31Z"/>
        <g>
          <polygon class="cls-2" points="55.71 74.41 46.62 65.32 49.72 62.21 55.71 68.21 65.18 58.72 68.28 61.82 55.71 74.41"/>
          <path class="cls-2" d="m75.51,86.22h-36.3c-3.76,0-6.81-3.06-6.81-6.81v-27.05c0-3.76,3.06-6.81,6.81-6.81h36.3c3.76,0,6.81,3.06,6.81,6.81v27.05c0,3.76-3.06,6.81-6.81,6.81Zm-36.3-36.29c-1.34,0-2.43,1.09-2.43,2.43v27.05c0,1.34,1.09,2.43,2.43,2.43h36.3c1.34,0,2.43-1.09,2.43-2.43v-27.05c0-1.34-1.09-2.43-2.43-2.43h-36.3Z"/>
        </g>
      </g>
      <g>
        <path class="cls-1" d="m57.26,114.72c-9.66,0-19.37-2.42-28.17-7.4-.72-.41-1.44-.84-2.15-1.28-3.69-2.32-7.1-5.05-10.16-8.11-.67-.67-1.31-1.35-1.95-2.05l3.24-2.96c.59.65,1.19,1.28,1.81,1.9,2.83,2.83,5.99,5.35,9.39,7.49.65.4,1.32.81,1.99,1.19,20.64,11.68,46.79,8.11,63.58-8.68,16.79-16.79,20.35-42.93,8.67-63.58l3.82-2.16c12.65,22.36,8.79,50.67-9.39,68.84-11.03,11.03-25.78,16.78-40.68,16.78Z"/>
        <path class="cls-1" d="m7.4,85.63C-5.25,63.27-1.39,34.96,16.78,16.78,34.96-1.4,63.27-5.25,85.62,7.41c.71.39,1.44.83,2.17,1.29,3.68,2.32,7.09,5.04,10.14,8.09.67.67,1.32,1.36,1.95,2.05l-3.25,2.95c-.58-.64-1.19-1.28-1.8-1.9-2.82-2.82-5.98-5.34-9.38-7.48-.65-.41-1.31-.8-1.97-1.17C62.82-.47,36.68,3.09,19.89,19.88,3.1,36.67-.47,62.82,11.21,83.47l-3.82,2.16Z"/>
        <polygon class="cls-1" points="18.51 105.75 14.12 105.75 14.12 92.18 27.69 92.18 27.69 96.56 18.51 96.56 18.51 105.75"/>
        <polygon class="cls-1" points="100.6 22.56 87.03 22.56 87.03 18.17 96.21 18.17 96.21 8.99 100.6 8.99 100.6 22.56"/>
      </g>
    </g>
  </g>
</svg>