<?xml version="1.0" encoding="UTF-8"?>
<svg id="Layer_2" data-name="Layer 2" xmlns="http://www.w3.org/2000/svg" viewBox="0 0 97 97">
  <defs>
    <style>
      .cls-1 {
        fill: #f9ba2d;
      }

      .cls-2 {
        fill: #1f2229;
      }

      .cls-3 {
        fill-rule: evenodd;
      }
    </style>
  </defs>
  <g id="svg16">
    <g id="Master_Layer_7" data-name="Master Layer 7">
      <path id="path6" class="cls-3" d="m48.5,0h0c26.68,0,48.5,21.82,48.5,48.5h0c0,26.68-21.82,48.5-48.5,48.5h0C21.82,97,0,75.18,0,48.5h0C0,21.82,21.82,0,48.5,0h0Zm0,5.37C24.78,5.37,5.37,24.78,5.37,48.5h0c0,23.72,19.41,43.13,43.13,43.13h0c23.72,0,43.13-19.41,43.13-43.13h0c0-23.72-19.41-43.13-43.13-43.13h0Z"/>
    </g>
    <g id="Layer_1-2" data-name="Layer 1">
      <g id="g13">
        <path id="path9" d="m54.95,42.3v28.4c0,1.77-.72,3.39-1.89,4.55s-2.78,1.89-4.55,1.89h0c-1.77,0-3.39-.72-4.55-1.89-1.17-1.17-1.89-2.78-1.89-4.55v-28.4c0-1.77.72-3.39,1.89-4.55s2.78-1.89,4.55-1.89h0c1.77,0,3.39.72,4.55,1.89,1.17,1.17,1.89,2.78,1.89,4.55h0Z"/>
        <path id="path11" d="m48.5,19.85c1.83,0,3.49.74,4.68,1.94s1.94,2.85,1.94,4.68-.74,3.49-1.94,4.68c-1.2,1.2-2.85,1.94-4.68,1.94s-3.49-.74-4.68-1.94c-1.2-1.2-1.94-2.85-1.94-4.68s.74-3.49,1.94-4.68c1.2-1.2,2.85-1.94,4.68-1.94Z"/>
      </g>
    </g>
    <path id="path924" class="cls-2" d="m45.16,96.84c-10.07-.71-19.78-4.64-27.56-11.13-9-7.51-14.96-17.87-16.88-29.32C-.03,51.99-.12,46.88.45,42.34c.76-6.02,2.9-12.41,5.93-17.69,4.03-7.04,10.02-13.23,16.87-17.44,15.36-9.43,34.55-9.55,50-.3,14.08,8.43,23.08,23.52,23.63,39.64.19,5.58-.43,10.58-1.94,15.66-6.16,20.63-25.34,34.88-46.72,34.72-1.02,0-2.4-.05-3.06-.1Zm6.5-5.28c8.84-.69,16.96-3.9,23.83-9.42,13.19-10.58,18.99-27.82,14.88-44.17-3.57-14.16-14.25-25.7-28.14-30.39-4.2-1.42-8.15-2.1-12.72-2.21-3.62-.08-6.62.19-10.04.92-9.04,1.93-17.23,6.77-23.42,13.82C6.69,30.76,3.18,45.29,6.64,59.03c3.48,13.82,13.79,25.21,27.24,30.08,3.48,1.26,7.52,2.14,11.23,2.44,1.52.12,5.05.13,6.55.01h0Z"/>
    <path id="path926" class="cls-1" d="m46.94,76.9c-1.83-.5-3.31-1.7-4.17-3.43-.7-1.38-.66-.44-.63-17.29.03-13.99.04-15.21.2-15.65.41-1.16.82-1.81,1.67-2.67,1.35-1.36,2.67-1.92,4.49-1.92,1.68,0,3.09.56,4.32,1.72.85.8,1.39,1.63,1.75,2.66l.27.8v30.74l-.22.7c-.62,1.96-2.28,3.63-4.22,4.26-.95.3-2.52.35-3.46.09h0Z"/>
    <path id="path928" class="cls-1" d="m47.59,32.97c-3.66-.54-6.22-4.08-5.54-7.67.82-4.3,5.46-6.63,9.38-4.7,1.79.88,3.14,2.68,3.52,4.7.69,3.63-1.87,7.13-5.61,7.68-.78.11-.96.11-1.75,0h0Z"/>
  </g>
</svg>