<?xml version="1.0" encoding="UTF-8"?>
<svg id="Layer_2" data-name="Layer 2" xmlns="http://www.w3.org/2000/svg" viewBox="0 0 20.06 19.7">
  <defs>
    <style>
      .cls-1 {
        fill: #17262a;
        fill-rule: evenodd;
      }
    </style>
  </defs>
  <g id="Layer_2-2" data-name="Layer 2">
    <g id="Layer_2-2" data-name="Layer 2-2">
      <g id="Layer_1-2" data-name="Layer 1-2">
        <path class="cls-1" d="m2.23,7.67c.58.06,1.01-.03,1.51-.33.03.27.14.54.33.77.27.33.65.52,1.04.56.29.03.58-.02.84-.16.27.06,1.15.35,2.11,1.5l.96,1.18-3.03,3.72-1.41-1.16-.25-.2-.2.25-1.03,1.26-.41.5-1.03,1.26-.2.25.25.2,1.41,1.16-.03.03-.2.25.25.2.7.57.25.2.2-.25,5.73-7.03,5.73,7.03.2.25.25-.2.7-.57.25-.2-.2-.25-.03-.03,1.41-1.16.25-.2-.2-.25-1.03-1.26-.41-.5-1.03-1.26-.2-.25-.25.2-1.41,1.16-3.03-3.72.96-1.18c.97-1.14,1.84-1.43,2.11-1.5.27.13.56.18.84.16.39-.04.77-.23,1.04-.56.19-.23.3-.5.33-.77.5.29.93.39,1.51.33.63-.06,1.24-.37,1.67-.9.44-.53.61-1.19.54-1.82-.06-.63-.37-1.24-.9-1.67-.17-.14-.35-.25-.54-.34.09-.07.16-.14.24-.23.27-.33.38-.73.34-1.13s-.23-.77-.56-1.04c-.33-.27-.73-.38-1.13-.34s-.77.23-1.04.56c-.07.09-.13.18-.18.28-.12-.17-.27-.33-.44-.47C15.3.12,14.64-.05,14.01.01c-.63.06-1.24.37-1.67.9-.44.53-.61,1.19-.54,1.82.05.51.27,1.01.63,1.41-.26.09-.5.25-.69.48-.27.33-.38.73-.34,1.13.03.34.18.67.44.93-.02.33-.16,1.25-1.11,2.43l-.69.84-.69-.84c-.95-1.17-1.09-2.1-1.11-2.43.26-.26.41-.58.44-.93.04-.39-.07-.8-.34-1.13-.18-.23-.43-.39-.69-.48.36-.4.57-.9.63-1.41.06-.63-.11-1.29-.54-1.82C7.29.39,6.69.09,6.06.02c-.63-.06-1.29.11-1.82.54-.17.14-.32.29-.44.47-.05-.1-.11-.19-.18-.28-.27-.33-.65-.52-1.04-.56-.39-.04-.8.07-1.13.34-.33.27-.52.65-.56,1.04s.07.8.34,1.13c.07.09.15.16.24.23-.19.09-.37.2-.54.34C.38,3.71.07,4.32.01,4.94c-.06.63.11,1.29.54,1.82.44.53,1.04.84,1.67.9h0Zm3.93-.44c-.02.22-.13.45-.33.61-.19.16-.43.22-.66.2-.22-.02-.45-.13-.61-.33-.16-.19-.22-.43-.2-.66.02-.22.14-.45.33-.61s.43-.22.66-.2c.18.02.35.09.5.21.03.04.06.09.1.12.03.04.07.08.1.12.09.16.13.35.11.52h0Zm-1.22-2.41c.2.07.41.12.61.14.06,0,.12,0,.18.01-.07.16-.11.31-.13.48,0,.06,0,.12,0,.18-.06-.01-.12-.02-.18-.03-.16-.02-.33,0-.5.03.01-.06.02-.12.03-.18.02-.21.02-.42-.01-.63h0Zm-.52,9.64l1.16.95-.82,1.01-1.16-.95.82-1.01h0Zm-2.06,2.53l.82-1.01,1.16.95-.82,1.01-1.16-.95h0Zm1.64,1.8l-.2-.16.03-.03,2.47-3.03.2-.25,2.95-3.62.17.2-5.61,6.88h0Zm5.86-7.6l.17-.2.17.2-.17.2-.17-.2h0Zm7.83,5.8l-1.17.95-.82-1.01,1.17-.95.82,1.01h0Zm-2.06-2.53l.82,1.01-1.17.95-.82-1.01,1.17-.95h0Zm-2.07.86l.2.25,2.47,3.03.03.03-.2.16-5.61-6.88.17-.2,2.95,3.62h0Zm1.92-7.62c-.16.19-.37.3-.61.33-.22.02-.46-.04-.66-.2-.19-.16-.31-.37-.33-.61-.02-.18.02-.36.11-.52.03-.03.07-.07.1-.12.03-.04.06-.08.1-.12.14-.12.31-.2.5-.21.22-.02.46.04.66.2.19.16.3.37.33.61.02.22-.04.46-.2.66h0Zm-.38-2.25c0,.06.01.12.03.18-.16-.03-.33-.05-.5-.03-.06,0-.12.01-.18.03,0-.06,0-.12,0-.18-.02-.16-.06-.33-.13-.48.06,0,.12,0,.18-.01.21-.02.41-.07.61-.14-.03.21-.04.42-.01.63h0Zm1.84-4.28c.16-.19.37-.3.61-.33.22-.02.46.04.66.2.19.16.3.37.33.61.03.22-.04.46-.2.66-.16.19-.37.3-.61.33-.23.02-.46-.04-.66-.2-.19-.16-.31-.37-.33-.61s.04-.46.2-.66h0Zm.44,2.2c.34-.03.69.03,1,.18-.11.13-.69.69-1.97.22.29-.23.63-.37.98-.41h0Zm1.52.56c.29.31.46.69.5,1.08.05.47-.08.95-.4,1.35s-.77.62-1.24.67c-.67.07-1.26-.49-.89-1.01.07-.1.16-.18.23-.23.06-.05.1-.05.16-.1.39-.29-.05-.79-.54-.41-.11.08-.24.2-.36.36-.13.18-.24.41-.25.66-.2-.27-.32-.58-.35-.91-.04-.37.03-.75.22-1.09h0c1.89.78,2.79-.21,2.92-.37h0Zm-3.26-2.64c.25.29.4.65.44,1.01.03.36-.03.73-.22,1.07-.82-1.27-.3-1.99-.22-2.08h0Zm-2.82.04c.32-.39.77-.62,1.24-.67.37-.04.74.03,1.08.22-.16.2-.88,1.26.24,2.92.02.03.04.05.07.07-.29.25-.65.39-1.01.44-.29.03-.59,0-.87-.12.22-.07.41-.21.56-.37.13-.14.22-.3.28-.42.24-.5-.29-.93-.52-.45-.09.2-.02.2-.24.44-.44.48-1.16-.03-1.22-.72-.05-.47.08-.95.4-1.35h0Zm-.61,3.71c.16-.19.37-.3.61-.33.22-.02.46.04.66.2.19.16.3.37.33.61.02.18-.02.36-.11.52-.03.03-.07.07-.1.12-.03.04-.06.08-.1.12-.14.12-.31.2-.5.21-.22.02-.46-.04-.66-.2-.19-.16-.3-.37-.33-.61-.02-.22.04-.46.2-.66h0Zm-1.01,4.48l1.63-1.99.2.16-1.55,1.9s-.05.06-.07.09h0l-.8.99-.17-.2.77-.95h0Zm-2.37,0l.77.95-.17.2-.8-.99h0s-.05-.06-.07-.09l-1.55-1.9.2-.16,1.63,1.99h0Zm-1.01-4.48c.16.19.22.43.2.66-.02.22-.13.45-.33.61-.19.16-.43.22-.66.2-.18-.02-.35-.09-.5-.21-.03-.04-.06-.09-.1-.12-.03-.04-.07-.08-.1-.12-.09-.16-.13-.35-.11-.52.02-.22.13-.45.33-.61.19-.16.43-.22.65-.2s.45.13.61.33h0ZM4.91.88c.33-.19.71-.26,1.08-.22.47.05.92.27,1.24.67.32.39.45.88.4,1.35-.07.69-.79,1.2-1.22.72-.22-.24-.15-.24-.24-.44-.22-.49-.75-.05-.52.45.06.12.15.28.28.42.14.16.33.31.56.37-.28.11-.58.15-.87.12-.37-.04-.72-.18-1.01-.44.03-.02.05-.05.07-.07,1.12-1.66.39-2.73.24-2.92h0Zm-.94,1.42c.04-.37.18-.72.44-1.01.07.1.61.81-.22,2.08-.18-.33-.25-.71-.22-1.07h0Zm-.33,1.47c-1.29.46-1.86-.1-1.97-.22.31-.16.66-.21,1-.18.35.03.69.17.98.41h0ZM1.53,1.64c.02-.22.14-.45.33-.61.19-.16.43-.22.66-.2.22.02.45.14.61.33s.22.43.2.66c-.02.22-.13.45-.33.61-.19.16-.43.22-.66.2-.22-.02-.45-.13-.61-.33-.16-.19-.22-.43-.2-.66h0Zm-.88,3.37c.04-.39.21-.78.5-1.08.13.16,1.03,1.15,2.92.37h0c.19.34.27.72.22,1.09-.03.33-.16.64-.35.91-.01-.25-.12-.48-.25-.66-.12-.16-.25-.28-.36-.36-.49-.37-.94.12-.54.41.06.05.1.05.16.1.07.05.16.13.23.23.37.52-.22,1.07-.89,1.01-.47-.05-.92-.27-1.24-.67-.32-.39-.45-.88-.4-1.35h0Z"/>
      </g>
    </g>
  </g>
</svg>