<?xml version="1.0" encoding="UTF-8"?>
<svg id="Layer_2" data-name="Layer 2" xmlns="http://www.w3.org/2000/svg" viewBox="0 0 83 117.71">
  <defs>
    <style>
      .cls-1 {
        fill: #f9ba2d;
      }

      .cls-2 {
        fill: #1a1a1a;
      }
    </style>
  </defs>
  <g id="Layer_1-2" data-name="Layer 1">
    <g>
      <path class="cls-2" d="m83,11.35V0H0v11.35h7.02v7.58c-.09.98-.4,5.85,1.89,12.66,2.26,6.75,7.62,16.9,20.34,26.93.16.13.19.29.19.4s-.03.27-.19.4c-12.71,10.03-18.08,20.18-20.34,26.93-2.28,6.82-1.98,11.68-1.89,12.66v7.45H0v11.35h83v-11.35h-7.35v-7.45c.09-.98.4-5.85-1.89-12.66-2.26-6.75-7.62-16.9-20.34-26.93-.16-.13-.19-.29-.19-.4s.03-.27.19-.4c0,0,0,0,0,0,12.71-10.03,18.08-20.18,20.34-26.93,2.28-6.82,1.98-11.68,1.89-12.66v-7.58h7.35Zm-13.84,19.02c-2.09,6.06-7.02,15.23-18.68,24.43h0c-1.27,1-2,2.5-2,4.12s.73,3.12,2,4.12c11.66,9.2,16.6,18.36,18.68,24.43,2.25,6.54,1.76,10.99,1.76,11.02-.01.1-.02.2-.02.3v6.63H11.76v-6.63c0-.1,0-.19-.02-.29,0-.04-.49-4.49,1.76-11.03,2.09-6.06,7.02-15.23,18.68-24.43,1.27-1,2-2.5,2-4.12s-.73-3.12-2-4.12c-11.66-9.2-16.6-18.36-18.68-24.43-2.25-6.54-1.76-10.99-1.76-11.02.01-.1.02-.2.02-.3v-6.63h59.14v6.63c0,.1,0,.19.02.29,0,.04.49,4.49-1.76,11.03Z"/>
      <path class="cls-1" d="m18.27,101.14h46.2c0-12.76-10.34-23.1-23.1-23.1s-23.1,10.34-23.1,23.1Z"/>
      <path class="cls-1" d="m42.02,34.27c-3.29,1.04-6.73,1.54-10.17,1.36-4.14-.22-8.02-1.12-11.62-2.75,0,0,4.26,6.26,14.22,14.22,0,0,3.93,2.82,6.49,8.08.46.96,1.78,1.08,2.41.22,3.41-4.63,12.05-15.93,18.11-20.04-6.05-2.85-12.52-3.28-19.45-1.1Z"/>
    </g>
  </g>
</svg>