<?xml version="1.0" encoding="utf-8"?>
<!-- Generator: Adobe Illustrator 27.4.1, SVG Export Plug-In . SVG Version: 6.00 Build 0)  -->
<svg version="1.1" id="Layer_2_00000096036448264095650080000015487064962839051412_"
	 xmlns="http://www.w3.org/2000/svg" xmlns:xlink="http://www.w3.org/1999/xlink" x="0px" y="0px" viewBox="0 0 83 117.7"
	 style="enable-background:new 0 0 83 117.7;" xml:space="preserve">
<style type="text/css">
	.st0{fill:#1A1A1A;}
	.st1{fill:#1F2229;}
</style>
<g id="Layer_1-2">
	<g>
		<path class="st0" d="M83,11.4V0H0v11.4h7v7.6c-0.1,1-0.4,5.9,1.9,12.7c2.3,6.8,7.6,16.9,20.3,26.9c0.2,0.1,0.2,0.3,0.2,0.4
			s0,0.3-0.2,0.4c-12.7,10-18.1,20.2-20.3,26.9c-2.3,6.8-2,11.7-1.9,12.7v7.4H0v11.3h83v-11.3h-7.3v-7.4c0.1-1,0.4-5.8-1.9-12.7
			c-2.3-6.8-7.6-16.9-20.3-26.9c-0.2-0.1-0.2-0.3-0.2-0.4s0-0.3,0.2-0.4l0,0c12.7-10,18.1-20.2,20.3-26.9c2.3-6.8,2-11.7,1.9-12.7
			v-7.6C75.7,11.3,83,11.3,83,11.4z M69.2,30.4c-2.1,6.1-7,15.2-18.7,24.4l0,0c-1.3,1-2,2.5-2,4.1s0.7,3.1,2,4.1
			c11.7,9.2,16.6,18.4,18.7,24.4c2.2,6.5,1.8,11,1.8,11c0,0.1,0,0.2,0,0.3v6.6H11.8v-6.6c0-0.1,0-0.2,0-0.3c0,0-0.5-4.5,1.8-11
			c2.1-6.1,7-15.2,18.7-24.4c1.3-1,2-2.5,2-4.1s-0.7-3.1-2-4.1c-11.7-9.2-16.6-18.4-18.7-24.4c-2.2-6.5-1.8-11-1.8-11
			c0-0.1,0-0.2,0-0.3v-6.6h59.1v6.6c0,0.1,0,0.2,0,0.3C70.9,19.4,71.4,23.8,69.2,30.4z"/>
		<path class="st1" d="M18.3,101.1h46.2C64.5,88.4,54.1,78,41.4,78S18.3,88.4,18.3,101.1z"/>
		<path class="st1" d="M42,34.3c-3.3,1-6.7,1.5-10.2,1.4c-4.1-0.2-8-1.1-11.6-2.8c0,0,4.3,6.3,14.2,14.2c0,0,3.9,2.8,6.5,8.1
			c0.5,1,1.8,1.1,2.4,0.2c3.4-4.6,12-15.9,18.1-20C55.4,32.5,48.9,32.1,42,34.3L42,34.3z"/>
	</g>
</g>
</svg>
