<?xml version="1.0" encoding="UTF-8"?>
<svg id="Layer_2" data-name="Layer 2" xmlns="http://www.w3.org/2000/svg" viewBox="0 0 120.04 185.9">
  <defs>
    <style>
      .cls-1 {
        fill: #f9ba2d;
      }

      .cls-2 {
        fill: #1f2229;
      }
    </style>
  </defs>
  <g id="Layer_1-2" data-name="Layer 1">
    <g>
      <path class="cls-2" d="m80.36,185.9h-25.89c-2.24,0-4.05-1.81-4.05-4.05v-26.9c0-2.24,1.81-4.05,4.05-4.05h25.89c2.24,0,4.05,1.81,4.05,4.05v26.9c0,2.24-1.81,4.05-4.05,4.05Zm-21.84-8.09h17.8v-18.81h-17.8v18.81Z"/>
      <path class="cls-2" d="m109.99,185.9H24.83c-2.24,0-4.05-1.81-4.05-4.05s1.81-4.05,4.05-4.05h85.17c2.24,0,4.05,1.81,4.05,4.05s-1.81,4.05-4.05,4.05Z"/>
      <path class="cls-2" d="m18.35,39.92h-4.09c-7.87,0-14.27-6.4-14.27-14.27v-10.18C0,7.61,6.4,1.21,14.27,1.21h4.09c7.87,0,14.27,6.4,14.27,14.27v10.18c0,7.87-6.4,14.27-14.27,14.27Zm-4.09-30.62c-3.4,0-6.17,2.77-6.17,6.17v10.18c0,3.4,2.77,6.17,6.17,6.17h4.09c3.4,0,6.17-2.77,6.17-6.17v-10.18c0-3.4-2.77-6.17-6.17-6.17h-4.09Z"/>
      <path class="cls-2" d="m16.31,48.06c-2.24,0-4.05-1.81-4.05-4.05v-8.14c0-2.24,1.81-4.05,4.05-4.05s4.05,1.81,4.05,4.05v8.14c0,2.24-1.81,4.05-4.05,4.05Z"/>
      <path class="cls-1" d="m114.57,140.83l-.05-.29c-.85-4.77-4.99-8.25-9.84-8.25h-50.95c-4.88,0-9.04-3.52-9.86-8.33l-12.24-72.39c-.92-5.44-6.08-9.11-11.52-8.19l-5.14.87c-5.44.92-9.11,6.08-8.19,11.52l16.4,96.96.49-.08v.08c.86,4.77,5.01,8.25,9.86,8.25h64.15c10.68,0,18.76-9.64,16.9-20.15Z"/>
      <path class="cls-2" d="m81.25,117.59c-2.24,0-4.05-1.81-4.05-4.05s1.79-4.03,4.01-4.05l-53.52.26c0,2.24-1.73,3.96-3.96,3.96s-3.96-1.89-3.96-4.13c0-4.37,3.55-7.93,7.92-7.93h53.56c4.37,0,7.93,3.56,7.93,7.93s-3.56,8-7.93,8Z"/>
      <g>
        <path class="cls-2" d="m98.42,65.87h-.36c-11.92,0-21.62-9.69-21.62-21.62v-22.64c0-11.92,9.69-21.61,21.62-21.61s21.97,9.69,21.97,21.61v22.64c0,11.92-9.7,21.62-21.62,21.62Zm0-57.77c-7.81,0-13.88,6.07-13.88,13.52v22.64c0,7.45,6.07,13.52,13.52,13.52h.36c7.46,0,13.52-6.07,13.52-13.52v-22.64c0-7.45-6.07-13.52-13.52-13.52Z"/>
        <path class="cls-2" d="m115.96,28.84h-35.47c-2.24,0-4.05-1.81-4.05-4.05s1.81-4.05,4.05-4.05h35.47c2.24,0,4.05,1.81,4.05,4.05s-1.81,4.05-4.05,4.05Z"/>
        <path class="cls-2" d="m101.64,19.8h-6.83c-2.24,0-4.05-1.81-4.05-4.05s1.81-4.05,4.05-4.05h6.83c2.24,0,4.05,1.81,4.05,4.05s-1.81,4.05-4.05,4.05Z"/>
      </g>
    </g>
  </g>
</svg>