<?xml version="1.0" encoding="UTF-8"?>
<svg id="Layer_2" data-name="Layer 2" xmlns="http://www.w3.org/2000/svg" viewBox="0 0 385.93 597.68">
  <defs>
    <style>
      .cls-1 {
        fill: #f9ba2d;
      }

      .cls-2 {
        fill: #1f2229;
      }
    </style>
  </defs>
  <g id="Layer_1-2" data-name="Layer 1">
    <g>
      <path class="cls-2" d="m258.36,597.68h-83.24c-7.19,0-13.01-5.82-13.01-13.01v-86.5c0-7.19,5.82-13.01,13.01-13.01h83.24c7.19,0,13.01,5.82,13.01,13.01v86.5c0,7.19-5.82,13.01-13.01,13.01Zm-70.23-26.02h57.22v-60.47h-57.22v60.47Z"/>
      <path class="cls-2" d="m353.64,597.68H79.82c-7.19,0-13.01-5.82-13.01-13.01s5.82-13.01,13.01-13.01h273.82c7.19,0,13.01,5.82,13.01,13.01s-5.82,13.01-13.01,13.01Z"/>
      <path class="cls-2" d="m59.01,128.35h-13.14C20.57,128.35,0,107.78,0,82.48v-32.72C0,24.46,20.57,3.89,45.87,3.89h13.14c25.3,0,45.87,20.57,45.87,45.87v32.72c0,25.3-20.57,45.87-45.87,45.87Zm-13.14-98.44c-10.94,0-19.85,8.91-19.85,19.85v32.72c0,10.94,8.91,19.85,19.85,19.85h13.14c10.94,0,19.85-8.91,19.85-19.85v-32.72c0-10.94-8.91-19.85-19.85-19.85h-13.14Z"/>
      <path class="cls-2" d="m52.44,154.52c-7.19,0-13.01-5.82-13.01-13.01v-26.16c0-7.19,5.82-13.01,13.01-13.01s13.01,5.82,13.01,13.01v26.16c0,7.19-5.82,13.01-13.01,13.01Z"/>
      <path class="cls-1" d="m368.36,452.77l-.16-.92c-2.72-15.35-16.06-26.54-31.65-26.54h-163.81c-15.68,0-29.07-11.32-31.69-26.78l-39.36-232.75c-2.96-17.5-19.55-29.29-37.05-26.33l-16.54,2.8c-17.5,2.96-29.29,19.55-26.33,37.05l52.71,311.73,1.58-.27.05.27c2.72,15.35,16.06,26.54,31.65,26.54h206.26c34.32,0,60.32-31,54.34-64.79Z"/>
      <path class="cls-2" d="m261.21,378.08c-7.19,0-13.01-5.82-13.01-13.01s5.76-12.95,12.88-13.01l-172.08.83c0,7.19-5.55,12.75-12.73,12.75s-12.75-6.09-12.75-13.28c0-14.05,11.42-25.49,25.48-25.49h172.2c14.05,0,25.49,11.44,25.49,25.49s-11.44,25.73-25.49,25.73Z"/>
      <g>
        <path class="cls-2" d="m316.42,211.77h-1.14c-38.32,0-69.49-31.17-69.49-69.49v-72.78C245.79,31.17,276.96,0,315.28,0s70.65,31.17,70.65,69.49v72.78c0,38.32-31.18,69.49-69.51,69.49Zm0-185.75c-25.11,0-44.61,19.5-44.61,43.47v72.78c0,23.97,19.51,43.47,43.47,43.47h1.14c23.98,0,43.48-19.51,43.48-43.47v-72.78c0-23.97-19.5-43.47-43.48-43.47Z"/>
        <path class="cls-2" d="m372.83,92.72h-114.03c-7.19,0-13.01-5.82-13.01-13.01s5.82-13.01,13.01-13.01h114.03c7.19,0,13.01,5.82,13.01,13.01s-5.82,13.01-13.01,13.01Z"/>
        <path class="cls-2" d="m326.78,63.66h-21.94c-7.19,0-13.01-5.82-13.01-13.01s5.82-13.01,13.01-13.01h21.94c7.19,0,13.01,5.82,13.01,13.01s-5.82,13.01-13.01,13.01Z"/>
      </g>
    </g>
  </g>
</svg>