<?xml version="1.0" encoding="UTF-8" standalone="no"?>
<!-- Generator: Adobe Illustrator 16.0.0, SVG Export Plug-In . SVG Version: 6.00 Build 0)  -->

<svg
   version="1.1"
   id="Layer_1"
   x="0px"
   y="0px"
   width="1600"
   height="1600"
   viewBox="0 0 1600 1600"
   enable-background="new 0 0 1600 1600"
   xml:space="preserve"
   xmlns:xlink="http://www.w3.org/1999/xlink"
   xmlns="http://www.w3.org/2000/svg"
   xmlns:svg="http://www.w3.org/2000/svg"><defs
   id="defs280" />
<g
   id="g275">
	
	<g
   id="g273">
		<g
   id="g271">
			<g
   id="g269">
				<defs
   id="defs5"><rect
     id="XMLID_440_"
     x="105"
     y="-1127"
     width="1419.4"
     height="2483.8999" /></defs>
				<clipPath
   id="XMLID_2_">
					<use
   xlink:href="#XMLID_440_"
   overflow="visible"
   id="use7" />
				</clipPath>
				<g
   clip-path="url(#XMLID_2_)"
   id="g267">
					<path
   id="XMLID_439_"
   fill="#323233"
   d="M 195.5,1356.9 V 859.5 c 0,-10.2 -8.3,-18.5 -18.5,-18.5 -10.2,0 -18.5,8.3 -18.5,18.5 v 497.4 z" />
					<path
   fill="#414042"
   d="m -58,395 c 22.7,0 43.3,9.2 58.2,24 L 363.9,255.5 c -7.1,9.2 -13,19.2 -17.6,30 l -48.7,115.1 127.6,94.3 -55.5,260.7 c 81.3,186.7 306.2,434.1 444.9,561.7 V 1357 H -140.9 V 581.7 550.9 477.7 C -140.8,432 -103.7,395 -58,395 Z"
   id="path11" />
					<path
   fill="#414042"
   d="m 1687.4,395 c -22.7,0 -43.2,9.2 -58.2,24 L 1265.5,255.5 c 7.1,9.2 13,19.2 17.6,30 l 48.7,115.1 -127.6,94.3 55.5,260.7 c -81.3,186.7 -306.2,434.1 -444.9,561.7 v 39.7 h 955.5 V 581.7 550.9 477.7 C 1770.1,432 1733.1,395 1687.4,395 Z"
   id="path13" />
					<defs
   id="defs20"><filter
     id="Adobe_OpacityMaskFilter"
     filterUnits="userSpaceOnUse"
     x="-140.8"
     y="255.39999"
     width="955.5"
     height="1101.5">
							<feFlood
   result="back"
   id="feFlood15" />
							<feBlend
   in="SourceGraphic"
   in2="back"
   mode="normal"
   id="feBlend17" />
						</filter></defs>
					<mask
   maskUnits="userSpaceOnUse"
   x="-140.8"
   y="255.4"
   width="955.5"
   height="1101.5"
   id="mask41">
						<g
   filter="url(#Adobe_OpacityMaskFilter)"
   id="g39">
							<defs
   id="defs27"><filter
     id="Adobe_OpacityMaskFilter_1_"
     filterUnits="userSpaceOnUse"
     x="-140.8"
     y="255.39999"
     width="955.5"
     height="1101.5">
									<feFlood
   result="back"
   id="feFlood22" />
									<feBlend
   in="SourceGraphic"
   in2="back"
   mode="normal"
   id="feBlend24" />
								</filter></defs>
							<mask
   maskUnits="userSpaceOnUse"
   x="-140.8"
   y="255.4"
   width="955.5"
   height="1101.5"
   id="SVGID_1_">
								<g
   filter="url(#Adobe_OpacityMaskFilter_1_)"
   id="g29">
								</g>
							</mask>
							<linearGradient
   id="SVGID_2_"
   gradientUnits="userSpaceOnUse"
   x1="336.95169"
   y1="1393.458"
   x2="336.9516"
   y2="379.40991">
								<stop
   offset="0"
   style="stop-color:#FFFFFF"
   id="stop32" />
								<stop
   offset="1"
   style="stop-color:#000000"
   id="stop34" />
							</linearGradient>
							<path
   mask="url(#SVGID_1_)"
   fill="url(#SVGID_2_)"
   d="m -58,395 c 22.7,0 43.3,9.2 58.2,24 L 363.9,255.5 c -7.1,9.2 -13,19.2 -17.6,30 l -48.7,115.1 127.6,94.3 -55.5,260.7 c 81.3,186.7 306.2,434.1 444.9,561.7 V 1357 H -140.9 V 581.7 550.9 477.7 C -140.8,432 -103.7,395 -58,395 Z"
   id="path37" />
						</g>
					</mask>
					<linearGradient
   id="SVGID_3_"
   gradientUnits="userSpaceOnUse"
   x1="336.95169"
   y1="1393.458"
   x2="336.9516"
   y2="379.40991">
						<stop
   offset="0"
   style="stop-color:#231F20"
   id="stop43" />
						<stop
   offset="1"
   style="stop-color:#231F20"
   id="stop45" />
					</linearGradient>
					<path
   fill="url(#SVGID_3_)"
   d="m -58,395 c 22.7,0 43.3,9.2 58.2,24 L 363.9,255.5 c -7.1,9.2 -13,19.2 -17.6,30 l -48.7,115.1 127.6,94.3 -55.5,260.7 c 81.3,186.7 306.2,434.1 444.9,561.7 V 1357 H -140.9 V 581.7 550.9 477.7 C -140.8,432 -103.7,395 -58,395 Z"
   id="path48"
   style="fill:url(#SVGID_3_)" />
					<defs
   id="defs55"><filter
     id="Adobe_OpacityMaskFilter_2_"
     filterUnits="userSpaceOnUse"
     x="814.70001"
     y="255.39999"
     width="955.5"
     height="1101.5">
							<feFlood
   result="back"
   id="feFlood50" />
							<feBlend
   in="SourceGraphic"
   in2="back"
   mode="normal"
   id="feBlend52" />
						</filter></defs>
					<mask
   maskUnits="userSpaceOnUse"
   x="814.7"
   y="255.4"
   width="955.5"
   height="1101.5"
   id="mask76">
						<g
   filter="url(#Adobe_OpacityMaskFilter_2_)"
   id="g74">
							<defs
   id="defs62"><filter
     id="Adobe_OpacityMaskFilter_3_"
     filterUnits="userSpaceOnUse"
     x="814.70001"
     y="255.39999"
     width="955.5"
     height="1101.5">
									<feFlood
   result="back"
   id="feFlood57" />
									<feBlend
   in="SourceGraphic"
   in2="back"
   mode="normal"
   id="feBlend59" />
								</filter></defs>
							<mask
   maskUnits="userSpaceOnUse"
   x="814.7"
   y="255.4"
   width="955.5"
   height="1101.5"
   id="SVGID_4_">
								<g
   filter="url(#Adobe_OpacityMaskFilter_3_)"
   id="g64">
								</g>
							</mask>
							<linearGradient
   id="SVGID_5_"
   gradientUnits="userSpaceOnUse"
   x1="1292.4189"
   y1="1393.458"
   x2="1292.4189"
   y2="379.40991">
								<stop
   offset="0"
   style="stop-color:#FFFFFF"
   id="stop67" />
								<stop
   offset="1"
   style="stop-color:#000000"
   id="stop69" />
							</linearGradient>
							<path
   mask="url(#SVGID_4_)"
   fill="url(#SVGID_5_)"
   d="m 1687.4,395 c -22.7,0 -43.2,9.2 -58.2,24 L 1265.5,255.5 c 7.1,9.2 13,19.2 17.6,30 l 48.7,115.1 -127.6,94.3 55.5,260.7 c -81.3,186.7 -306.2,434.1 -444.9,561.7 v 39.7 h 955.5 V 581.7 550.9 477.7 C 1770.1,432 1733.1,395 1687.4,395 Z"
   id="path72" />
						</g>
					</mask>
					<linearGradient
   id="SVGID_6_"
   gradientUnits="userSpaceOnUse"
   x1="1292.4189"
   y1="1393.458"
   x2="1292.4189"
   y2="379.40991">
						<stop
   offset="0"
   style="stop-color:#231F20"
   id="stop78" />
						<stop
   offset="1"
   style="stop-color:#231F20"
   id="stop80" />
					</linearGradient>
					<path
   fill="url(#SVGID_6_)"
   d="m 1687.4,395 c -22.7,0 -43.2,9.2 -58.2,24 L 1265.5,255.5 c 7.1,9.2 13,19.2 17.6,30 l 48.7,115.1 -127.6,94.3 55.5,260.7 c -81.3,186.7 -306.2,434.1 -444.9,561.7 v 39.7 h 955.5 V 581.7 550.9 477.7 C 1770.1,432 1733.1,395 1687.4,395 Z"
   id="path83"
   style="fill:url(#SVGID_6_)" />
					<path
   fill="#d1d3d4"
   d="M 1185,219.3 968.3,707 815.8,527.5 c -0.8,5.4 -1.5,10.8 -2.2,16.2 V 527.5 L 661,707 444.4,219.3 c 30.3,360.4 193.4,726.8 370.3,1073 v -0.3 c 0,0.1 0,0.2 0,0.3 176.8,-346.2 340,-712.6 370.3,-1073 z"
   id="path85" />
					<path
   fill="#a7a9ac"
   d="m 833.2,1255.9 v -708 l -17.4,-20.5 h -2.2 l -17.4,20.5 v 708 c 6.1,12.1 12.3,24.3 18.5,36.4 v -0.3 c 0,0.1 0,0.2 0,0.3 6.2,-12.1 12.3,-24.2 18.5,-36.4 z"
   id="path87" />
					<g
   id="g93">
						<path
   fill="#323233"
   d="m 814.7,1291.9 v 0.3 c -6.2,-12.1 -12.3,-24.2 -18.5,-36.4 v 101 h 37 v -101 c -6.1,12.1 -12.3,24.3 -18.5,36.4 0,0 0,-0.1 0,-0.3 z"
   id="path89" />
						<path
   fill="#323233"
   d="m 796.2,527 v 20.9 l 17.4,-20.5 c 0,0 1.4,5.4 2.2,0 l 17.4,20.5 V 527 c -12.3,0.6 -24.7,0.6 -37,0 z"
   id="path91" />
					</g>
					<polygon
   fill="#f1f2f2"
   points="968.3,707 1185,219.2 1171,205.5 1111.3,146.7 815.8,527.5 "
   id="polygon95" />
					<rect
   x="1242.3"
   y="942.79999"
   fill="#262626"
   width="228.8"
   height="33.299999"
   id="rect97" />
					<polygon
   fill="#bcbec0"
   points="903.4,692.3 940.2,673.9 815.8,527.5 "
   id="polygon99" />
					<polygon
   fill="#bcbec0"
   points="726,692.3 689.2,673.9 813.6,527.5 "
   id="polygon101" />
					<polygon
   fill="#f1f2f2"
   points="444.4,219.2 518.1,146.7 813.6,527.5 661,707 "
   id="polygon103" />
					<path
   fill="#262626"
   d="M 1331.7,400.5 1283,285.4 c -4.5,-10.7 -10.5,-20.8 -17.6,-30 v 0 l -80.5,-36.2 v 0 C 1154.7,579.6 991.5,946.1 814.6,1292.3 v 24.9 C 953.3,1189.6 1178.2,942.3 1259.5,755.5 L 1204,494.8 Z"
   id="path105" />
					<path
   fill="#262626"
   d="m 444.4,219.2 v 0 l -80.5,36.2 v 0 c -7.1,9.2 -13,19.2 -17.6,30 l -48.7,115.1 127.6,94.3 -55.5,260.7 c 81.3,186.7 306.2,434.1 444.9,561.7 v -24.9 C 637.8,946.1 474.7,579.6 444.4,219.2 Z"
   id="path107" />
					<polygon
   fill="#d1d3d4"
   points="988.3,305.2 1111.3,146.7 518.1,146.7 641.1,305.2 "
   id="polygon109" />
					<polygon
   fill="#414042"
   points="641.1,305.2 988.3,305.2 815.8,527.5 813.6,527.5 "
   id="polygon111" />
					<polygon
   fill="#f1f2f2"
   points="1457,818.1 1457,942.8 1256.4,942.8 "
   id="polygon113" />
					<polygon
   fill="#d1d3d4"
   points="1448.9,832.6 1448.9,942.8 1271.7,942.8 "
   id="polygon115" />
					<path
   fill="#262626"
   d="m 770.5,598.5 v -55.8 c 0,-3 0.9,-5.8 2.4,-8.1 -32.6,-26.9 -72.3,-41.8 -119.8,-43.8 -19,0 -25.2,29.8 -27.8,43.7 -4.9,26.5 -5,54.8 -0.1,81.4 2,10.8 4.8,21.9 10.3,31.5 11.5,19.7 39,11.3 56.5,6.7 23.3,-6.1 45.5,-16.2 65.3,-29.9 3.8,-2.6 16.4,-9 18.1,-14.4 -3,-2.8 -4.9,-6.8 -4.9,-11.3 z"
   id="path117" />
					<path
   fill="#161616"
   d="m 770.5,542.7 c 0,-3 0.9,-5.8 2.4,-8.1 -5,-4.1 -10.2,-7.9 -15.5,-11.5 v 101.2 c 0,0 0,0 0.1,0 3.8,-2.6 16.4,-9 18.1,-14.4 -3.1,-2.8 -5,-6.8 -5,-11.3 v -55.9 z"
   id="path119" />
					<path
   fill="#262626"
   d="m 856.7,598.5 v -55.8 c 0,-3 -0.9,-5.8 -2.4,-8.1 32.6,-26.9 72.3,-41.8 119.8,-43.8 19,0 25.2,29.8 27.8,43.7 4.9,26.5 5,54.8 0.1,81.4 -2,10.8 -4.7,21.9 -10.3,31.5 -11.5,19.7 -39,11.3 -56.5,6.7 -23.3,-6.1 -45.5,-16.2 -65.3,-29.9 -3.8,-2.6 -16.4,-9 -18.1,-14.4 2.9,-2.8 4.9,-6.8 4.9,-11.3 z"
   id="path121" />
					<path
   fill="#161616"
   d="m 856.7,542.7 c 0,-3 -0.9,-5.8 -2.4,-8.1 5,-4.1 10.2,-7.9 15.5,-11.5 v 101.2 c 0,0 0,0 -0.1,0 -3.8,-2.6 -16.4,-9 -18.1,-14.4 3.1,-2.8 5,-6.8 5,-11.3 v -55.9 z"
   id="path123" />
					<path
   fill="#262626"
   d="m 841.5,613.7 h -55.8 c -8.4,0 -15.2,-6.8 -15.2,-15.2 v -55.8 c 0,-8.4 6.8,-15.2 15.2,-15.2 h 55.8 c 8.4,0 15.2,6.8 15.2,15.2 v 55.8 c 0,8.4 -6.8,15.2 -15.2,15.2 z"
   id="path125" />
					<defs
   id="defs132"><filter
     id="Adobe_OpacityMaskFilter_4_"
     filterUnits="userSpaceOnUse"
     x="1204.1"
     y="412.39999"
     width="127.6"
     height="125.5">
							<feFlood
   result="back"
   id="feFlood127" />
							<feBlend
   in="SourceGraphic"
   in2="back"
   mode="normal"
   id="feBlend129" />
						</filter></defs>
					<mask
   maskUnits="userSpaceOnUse"
   x="1204.1"
   y="412.4"
   width="127.6"
   height="125.5"
   id="mask153">
						<g
   filter="url(#Adobe_OpacityMaskFilter_4_)"
   id="g151">
							<defs
   id="defs139"><filter
     id="Adobe_OpacityMaskFilter_5_"
     filterUnits="userSpaceOnUse"
     x="1204.1"
     y="412.39999"
     width="127.6"
     height="125.5">
									<feFlood
   result="back"
   id="feFlood134" />
									<feBlend
   in="SourceGraphic"
   in2="back"
   mode="normal"
   id="feBlend136" />
								</filter></defs>
							<mask
   maskUnits="userSpaceOnUse"
   x="1204.1"
   y="412.4"
   width="127.6"
   height="125.5"
   id="SVGID_7_">
								<g
   filter="url(#Adobe_OpacityMaskFilter_5_)"
   id="g141">
								</g>
							</mask>
							<linearGradient
   id="SVGID_8_"
   gradientUnits="userSpaceOnUse"
   x1="1204.1201"
   y1="475.13959"
   x2="1331.7158"
   y2="475.13959">
								<stop
   offset="0"
   style="stop-color:#FFFFFF"
   id="stop144" />
								<stop
   offset="1"
   style="stop-color:#000000"
   id="stop146" />
							</linearGradient>
							<polygon
   mask="url(#SVGID_7_)"
   fill="url(#SVGID_8_)"
   points="1204.1,494.8 1213.3,537.9 1331.7,450.4 1315.6,412.4 "
   id="polygon149" />
						</g>
					</mask>
					<linearGradient
   id="SVGID_9_"
   gradientUnits="userSpaceOnUse"
   x1="1204.1201"
   y1="475.13959"
   x2="1331.7158"
   y2="475.13959">
						<stop
   offset="0"
   style="stop-color:#231F20"
   id="stop155" />
						<stop
   offset="1"
   style="stop-color:#231F20"
   id="stop157" />
					</linearGradient>
					<polygon
   fill="url(#SVGID_9_)"
   points="1204.1,494.8 1213.3,537.9 1331.7,450.4 1315.6,412.4 "
   id="polygon160"
   style="fill:url(#SVGID_9_)" />
					<defs
   id="defs167"><filter
     id="Adobe_OpacityMaskFilter_6_"
     filterUnits="userSpaceOnUse"
     x="297.70001"
     y="412.39999"
     width="127.6"
     height="125.5">
							<feFlood
   result="back"
   id="feFlood162" />
							<feBlend
   in="SourceGraphic"
   in2="back"
   mode="normal"
   id="feBlend164" />
						</filter></defs>
					<mask
   maskUnits="userSpaceOnUse"
   x="297.7"
   y="412.4"
   width="127.6"
   height="125.5"
   id="mask188">
						<g
   filter="url(#Adobe_OpacityMaskFilter_6_)"
   id="g186">
							<defs
   id="defs174"><filter
     id="Adobe_OpacityMaskFilter_7_"
     filterUnits="userSpaceOnUse"
     x="297.70001"
     y="412.39999"
     width="127.6"
     height="125.5">
									<feFlood
   result="back"
   id="feFlood169" />
									<feBlend
   in="SourceGraphic"
   in2="back"
   mode="normal"
   id="feBlend171" />
								</filter></defs>
							<mask
   maskUnits="userSpaceOnUse"
   x="297.7"
   y="412.4"
   width="127.6"
   height="125.5"
   id="SVGID_10_">
								<g
   filter="url(#Adobe_OpacityMaskFilter_7_)"
   id="g176">
								</g>
							</mask>
							<linearGradient
   id="SVGID_11_"
   gradientUnits="userSpaceOnUse"
   x1="297.6543"
   y1="475.13959"
   x2="425.25049"
   y2="475.13959">
								<stop
   offset="0"
   style="stop-color:#000000"
   id="stop179" />
								<stop
   offset="1"
   style="stop-color:#FFFFFF"
   id="stop181" />
							</linearGradient>
							<polygon
   mask="url(#SVGID_10_)"
   fill="url(#SVGID_11_)"
   points="425.3,494.8 313.7,412.4 297.7,450.4 416.1,537.9 "
   id="polygon184" />
						</g>
					</mask>
					<linearGradient
   id="SVGID_12_"
   gradientUnits="userSpaceOnUse"
   x1="297.6543"
   y1="475.13959"
   x2="425.25049"
   y2="475.13959">
						<stop
   offset="0"
   style="stop-color:#231F20"
   id="stop190" />
						<stop
   offset="1"
   style="stop-color:#231F20"
   id="stop192" />
					</linearGradient>
					<polygon
   fill="url(#SVGID_12_)"
   points="425.3,494.8 313.7,412.4 297.7,450.4 416.1,537.9 "
   id="polygon195"
   style="fill:url(#SVGID_12_)" />
					<defs
   id="defs202"><filter
     id="Adobe_OpacityMaskFilter_8_"
     filterUnits="userSpaceOnUse"
     x="369.79999"
     y="771.5"
     width="444.89999"
     height="585.40002">
							<feFlood
   result="back"
   id="feFlood197" />
							<feBlend
   in="SourceGraphic"
   in2="back"
   mode="normal"
   id="feBlend199" />
						</filter></defs>
					<mask
   maskUnits="userSpaceOnUse"
   x="369.8"
   y="771.5"
   width="444.9"
   height="585.4"
   id="mask223">
						<g
   filter="url(#Adobe_OpacityMaskFilter_8_)"
   id="g221">
							<defs
   id="defs209"><filter
     id="Adobe_OpacityMaskFilter_9_"
     filterUnits="userSpaceOnUse"
     x="369.79999"
     y="771.5"
     width="444.89999"
     height="585.40002">
									<feFlood
   result="back"
   id="feFlood204" />
									<feBlend
   in="SourceGraphic"
   in2="back"
   mode="normal"
   id="feBlend206" />
								</filter></defs>
							<mask
   maskUnits="userSpaceOnUse"
   x="369.8"
   y="771.5"
   width="444.9"
   height="585.4"
   id="SVGID_13_">
								<g
   filter="url(#Adobe_OpacityMaskFilter_9_)"
   id="g211">
								</g>
							</mask>
							<linearGradient
   id="SVGID_14_"
   gradientUnits="userSpaceOnUse"
   x1="369.77341"
   y1="1064.1855"
   x2="814.67291"
   y2="1064.1855">
								<stop
   offset="0"
   style="stop-color:#000000"
   id="stop214" />
								<stop
   offset="1"
   style="stop-color:#FFFFFF"
   id="stop216" />
							</linearGradient>
							<path
   mask="url(#SVGID_13_)"
   fill="url(#SVGID_14_)"
   d="m 814.7,1356.9 v -14.7 c -8.1,-15.8 -16.1,-31.6 -24.1,-47.5 C 655.4,1166.1 458.7,945.5 377,771.5 l -7.2,33.9 c 79.2,181.9 294.6,421.3 433.9,551.5 z"
   id="path219" />
						</g>
					</mask>
					<linearGradient
   id="SVGID_15_"
   gradientUnits="userSpaceOnUse"
   x1="369.77341"
   y1="1064.1855"
   x2="814.67291"
   y2="1064.1855">
						<stop
   offset="0"
   style="stop-color:#231F20"
   id="stop225" />
						<stop
   offset="1"
   style="stop-color:#231F20"
   id="stop227" />
					</linearGradient>
					<path
   fill="url(#SVGID_15_)"
   d="m 814.7,1356.9 v -14.7 c -8.1,-15.8 -16.1,-31.6 -24.1,-47.5 C 655.4,1166.1 458.7,945.5 377,771.5 l -7.2,33.9 c 79.2,181.9 294.6,421.3 433.9,551.5 z"
   id="path230"
   style="fill:url(#SVGID_15_)" />
					<defs
   id="defs237"><filter
     id="Adobe_OpacityMaskFilter_10_"
     filterUnits="userSpaceOnUse"
     x="814.70001"
     y="771.5"
     width="444.89999"
     height="585.40002">
							<feFlood
   result="back"
   id="feFlood232" />
							<feBlend
   in="SourceGraphic"
   in2="back"
   mode="normal"
   id="feBlend234" />
						</filter></defs>
					<mask
   maskUnits="userSpaceOnUse"
   x="814.7"
   y="771.5"
   width="444.9"
   height="585.4"
   id="mask258">
						<g
   filter="url(#Adobe_OpacityMaskFilter_10_)"
   id="g256">
							<defs
   id="defs244"><filter
     id="Adobe_OpacityMaskFilter_11_"
     filterUnits="userSpaceOnUse"
     x="814.70001"
     y="771.5"
     width="444.89999"
     height="585.40002">
									<feFlood
   result="back"
   id="feFlood239" />
									<feBlend
   in="SourceGraphic"
   in2="back"
   mode="normal"
   id="feBlend241" />
								</filter></defs>
							<mask
   maskUnits="userSpaceOnUse"
   x="814.7"
   y="771.5"
   width="444.9"
   height="585.4"
   id="SVGID_16_">
								<g
   filter="url(#Adobe_OpacityMaskFilter_11_)"
   id="g246">
								</g>
							</mask>
							<linearGradient
   id="SVGID_17_"
   gradientUnits="userSpaceOnUse"
   x1="814.69733"
   y1="1064.1855"
   x2="1259.5967"
   y2="1064.1855">
								<stop
   offset="0"
   style="stop-color:#FFFFFF"
   id="stop249" />
								<stop
   offset="1"
   style="stop-color:#000000"
   id="stop251" />
							</linearGradient>
							<path
   mask="url(#SVGID_16_)"
   fill="url(#SVGID_17_)"
   d="m 1252.4,771.5 c -81.7,174 -278.4,394.6 -413.6,523.2 -8,15.9 -16,31.7 -24.1,47.5 v 14.7 h 11 C 965,1226.7 1180.4,987.3 1259.6,805.4 Z"
   id="path254" />
						</g>
					</mask>
					<linearGradient
   id="SVGID_18_"
   gradientUnits="userSpaceOnUse"
   x1="814.69733"
   y1="1064.1855"
   x2="1259.5967"
   y2="1064.1855">
						<stop
   offset="0"
   style="stop-color:#231F20"
   id="stop260" />
						<stop
   offset="1"
   style="stop-color:#231F20"
   id="stop262" />
					</linearGradient>
					<path
   fill="url(#SVGID_18_)"
   d="m 1252.4,771.5 c -81.7,174 -278.4,394.6 -413.6,523.2 -8,15.9 -16,31.7 -24.1,47.5 v 14.7 h 11 C 965,1226.7 1180.4,987.3 1259.6,805.4 Z"
   id="path265"
   style="fill:url(#SVGID_18_)" />
				</g>
			</g>
		</g>
	</g>
</g>
</svg>
